SplineFontDB: 3.0
FontName: KAN-BadamiBold
FullName: KAN Badami Bold
FamilyName: KAN Badami
Weight: Bold
Copyright: Copyright (c) 2009-2015, NLCI (http://www.nlci.in/fonts/)
Version: 1.0 Sat Apr 29 14:51:32 1995
ItalicAngle: 0
UnderlinePosition: -593.92
UnderlineWidth: 40.96
Ascent: 1638
Descent: 410
InvalidEm: 0
LayerCount: 2
Layer: 0 1 "Back" 1
Layer: 1 1 "Fore" 0
XUID: [1021 240 25334161 2440652]
FSType: 0
OS2Version: 0
OS2_WeightWidthSlopeOnly: 0
OS2_UseTypoMetrics: 1
CreationTime: 1250825672
ModificationTime: 1523584229
PfmFamily: 81
TTFWeight: 700
TTFWidth: 5
LineGap: 0
VLineGap: 0
Panose: 5 0 0 0 0 0 0 0 0 0
OS2TypoAscent: -147
OS2TypoAOffset: 1
OS2TypoDescent: -401
OS2TypoDOffset: 1
OS2TypoLinegap: 0
OS2WinAscent: -240
OS2WinAOffset: 1
OS2WinDescent: -317
OS2WinDOffset: 1
HheadAscent: -240
HheadAOffset: 1
HheadDescent: 317
HheadDOffset: 1
OS2SubXSize: 1434
OS2SubYSize: 1331
OS2SubXOff: 0
OS2SubYOff: 293
OS2SupXSize: 1434
OS2SupYSize: 1331
OS2SupXOff: 0
OS2SupYOff: 928
OS2StrikeYSize: 102
OS2StrikeYPos: 530
OS2Vendor: 'Alts'
OS2UnicodeRanges: 00000000.00000000.00000000.00000000
Lookup: 262 0 0 "blwm" { "blwm-2sub"  } []
MarkAttachClasses: 1
DEI: 91125
TtTable: prep
NPUSHB
 1
 1
SCANTYPE
PUSHW_1
 511
SCANCTRL
EndTTInstrs
ShortTable: maxp 16
  1
  0
  319
  150
  6
  188
  8
  2
  8
  64
  10
  0
  3
  417
  4
  2
EndShort
LangName: 1033 "" "" "Bold" "NLCI:KAN Badami Bold" "" "1.0 Sat Apr 29 14:51:32 1995"
Encoding: Original
Compacted: 1
UnicodeInterp: none
NameList: Adobe Glyph List
DisplaySize: -48
AntiAlias: 1
FitToEm: 1
WinInfo: 0 37 14
BeginPrivate: 0
EndPrivate
AnchorClass2: "Sub" "blwm-2sub" "Nukta"""  "s"""  "V""" 
BeginChars: 572 313

StartChar: .notdef
Encoding: 0 -1 0
Width: 1024
Flags: W
LayerCount: 2
Fore
SplineSet
63 0 m 1,0,-1
 63 1284 l 1,1,-1
 961 1284 l 1,2,-1
 961 0 l 1,3,-1
 63 0 l 1,0,-1
897 63 m 1,4,-1
 897 1221 l 1,5,-1
 127 1221 l 1,6,-1
 127 63 l 1,7,-1
 897 63 l 1,4,-1
EndSplineSet
EndChar

StartChar: exclam
Encoding: 4 33 4
Width: 712
VWidth: 1024
Flags: W
LayerCount: 2
Fore
SplineSet
416 436 m 0,0,-1
 302 436 l 0,1,-1
 186 1271 l 0,2,3
 186 1315 186 1315 200 1347 c 0,4,5
 214 1379 214 1379 237 1400 c 0,6,7
 260 1420 260 1420 291 1431 c 0,8,9
 322 1441 322 1441 358 1441 c 0,10,11
 393 1441 393 1441 424 1431 c 0,12,13
 455 1421 455 1421 479 1401 c 0,14,15
 502 1381 502 1381 515 1348 c 0,16,17
 528 1316 528 1316 528 1271 c 0,18,-1
 416 436 l 0,0,-1
526 146 m 0,19,20
 526 110 526 110 513 79 c 0,21,22
 499 47 499 47 476 24 c 0,23,24
 453 1 453 1 422 -12 c 0,25,26
 392 -25 392 -25 358 -26 c 0,27,28
 332 -26 332 -26 303 -16 c 0,29,30
 273 -6 273 -6 248 14 c 0,31,32
 222 34 222 34 205 68 c 0,33,34
 188 101 188 101 188 146 c 0,35,36
 188 187 188 187 204 219 c 0,37,38
 219 250 219 250 244 270 c 0,39,40
 269 290 269 290 298 302 c 0,41,42
 328 313 328 313 358 312 c 0,43,44
 387 312 387 312 417 301 c 0,45,46
 447 290 447 290 472 268 c 0,47,48
 496 246 496 246 511 216 c 0,49,50
 526 185 526 185 526 146 c 0,19,20
EndSplineSet
EndChar

StartChar: quotedbl
Encoding: 5 34 5
Width: 821
VWidth: 1024
Flags: W
LayerCount: 2
Fore
SplineSet
577 874 m 0,0,-1
 495 1365 l 0,1,2
 495 1423 495 1423 523 1460 c 0,3,4
 551 1497 551 1497 614 1497 c 0,5,6
 679 1497 679 1497 709 1460 c 0,7,8
 739 1423 739 1423 738 1365 c 0,9,-1
 654 874 l 0,10,-1
 577 874 l 0,0,-1
166 874 m 0,11,-1
 84 1365 l 0,12,13
 84 1423 84 1423 112 1460 c 0,14,15
 140 1497 140 1497 204 1497 c 0,16,17
 267 1497 267 1497 296 1460 c 0,18,19
 325 1423 325 1423 325 1365 c 0,20,-1
 244 874 l 0,21,-1
 166 874 l 0,11,-1
EndSplineSet
EndChar

StartChar: numbersign
Encoding: 6 35 6
Width: 1554
VWidth: 1024
Flags: W
LayerCount: 2
Fore
SplineSet
1105 868 m 0,0,-1
 1015 592 l 0,1,-1
 1340 592 l 0,2,-1
 1340 460 l 0,3,-1
 969 460 l 0,4,-1
 810 -50 l 0,5,-1
 665 -14 l 0,6,-1
 820 460 l 0,7,-1
 558 460 l 0,8,-1
 394 -50 l 0,9,-1
 254 -12 l 0,10,-1
 411 460 l 0,11,-1
 130 460 l 0,12,-1
 130 592 l 0,13,-1
 453 592 l 0,14,-1
 543 868 l 0,15,-1
 232 868 l 0,16,-1
 232 1007 l 0,17,-1
 587 1007 l 0,18,-1
 749 1489 l 0,19,-1
 889 1451 l 0,20,-1
 734 1007 l 0,21,-1
 1007 1007 l 0,22,-1
 1162 1489 l 0,23,-1
 1307 1449 l 0,24,-1
 1149 1007 l 0,25,-1
 1424 1007 l 0,26,-1
 1424 868 l 0,27,-1
 1105 868 l 0,0,-1
694 868 m 0,28,-1
 602 592 l 0,29,-1
 862 592 l 0,30,-1
 958 868 l 0,31,-1
 694 868 l 0,28,-1
EndSplineSet
EndChar

StartChar: dollar
Encoding: 7 36 7
Width: 1230
VWidth: 1024
Flags: W
LayerCount: 2
Fore
SplineSet
1120 430 m 0,0,1
 1120 340 1120 340 1087 267 c 0,2,3
 1054 194 1054 194 993 140 c 0,4,5
 933 86 933 86 849 51 c 0,6,7
 766 16 766 16 667 2 c 0,8,-1
 667 -214 l 0,9,-1
 543 -214 l 0,10,-1
 543 0 l 0,11,12
 470 3 470 3 395 12 c 0,13,14
 330 20 330 20 256 34 c 0,15,16
 181 47 181 47 114 70 c 0,17,-1
 114 432 l 0,18,-1
 262 432 l 0,19,-1
 306 186 l 0,20,21
 339 166 339 166 380 155 c 0,22,23
 421 144 421 144 457 138 c 0,24,25
 499 132 499 132 543 130 c 0,26,-1
 543 592 l 0,27,28
 504 603 504 603 458 618 c 0,29,30
 412 633 412 633 365 655 c 0,31,32
 318 677 318 677 275 707 c 0,33,34
 232 737 232 737 199 779 c 0,35,36
 166 820 166 820 146 875 c 0,37,38
 126 930 126 930 126 1000 c 0,39,40
 126 1072 126 1072 144 1127 c 0,41,42
 162 1182 162 1182 191 1225 c 0,43,44
 220 1267 220 1267 258 1296 c 0,45,46
 295 1325 295 1325 334 1345 c 0,47,48
 426 1391 426 1391 543 1401 c 0,49,-1
 543 1556 l 0,50,-1
 667 1556 l 0,51,-1
 667 1401 l 0,52,53
 732 1401 732 1401 798 1391 c 0,54,55
 865 1381 865 1381 921 1370 c 0,56,57
 986 1357 986 1357 1047 1340 c 0,58,-1
 1047 990 l 0,59,-1
 902 990 l 0,60,-1
 862 1223 l 0,61,62
 860 1230 860 1230 834 1239 c 0,63,64
 808 1248 808 1248 775 1255 c 0,65,66
 742 1263 742 1263 710 1268 c 0,67,68
 679 1273 679 1273 667 1273 c 0,69,-1
 667 841 l 0,70,71
 702 832 702 832 749 818 c 0,72,73
 796 804 796 804 846 783 c 0,74,75
 896 762 896 762 945 732 c 0,76,77
 994 702 994 702 1033 659 c 0,78,79
 1072 617 1072 617 1096 560 c 0,80,81
 1120 504 1120 504 1120 430 c 0,0,1
543 1267 m 0,82,83
 501 1261 501 1261 467 1239 c 0,84,85
 438 1220 438 1220 415 1182 c 0,86,87
 392 1144 392 1144 392 1076 c 0,88,89
 392 1011 392 1011 415 972 c 0,90,91
 438 932 438 932 467 909 c 0,92,93
 501 882 501 882 543 870 c 0,94,-1
 543 1267 l 0,82,83
854 354 m 0,95,96
 854 406 854 406 835 442 c 0,97,98
 816 478 816 478 787 502 c 0,99,100
 759 526 759 526 726 539 c 0,101,102
 693 553 693 553 667 560 c 0,103,-1
 667 136 l 0,104,105
 719 143 719 143 760 169 c 0,106,107
 777 179 777 179 794 196 c 0,108,109
 811 212 811 212 824 234 c 0,110,111
 837 256 837 256 846 286 c 0,112,113
 854 315 854 315 854 354 c 0,95,96
EndSplineSet
EndChar

StartChar: percent
Encoding: 8 37 8
Width: 1873
VWidth: 1024
Flags: W
LayerCount: 2
Fore
SplineSet
1815 404 m 0,0,1
 1815 302 1815 302 1791 221 c 0,2,3
 1768 140 1768 140 1723 83 c 0,4,5
 1678 26 1678 26 1611 -4 c 0,6,7
 1543 -34 1543 -34 1453 -34 c 0,8,9
 1364 -34 1364 -34 1297 -4 c 0,10,11
 1230 26 1230 26 1185 83 c 0,12,13
 1140 140 1140 140 1119 221 c 0,14,15
 1097 302 1097 302 1097 404 c 0,16,17
 1097 506 1097 506 1119 588 c 0,18,19
 1141 669 1141 669 1185 726 c 0,20,21
 1230 782 1230 782 1297 813 c 0,22,23
 1364 843 1364 843 1453 843 c 0,24,25
 1543 843 1543 843 1611 813 c 0,26,27
 1679 783 1679 783 1723 726 c 0,28,29
 1768 670 1768 670 1791 588 c 0,30,31
 1815 506 1815 506 1815 404 c 0,0,1
577 0 m 0,32,-1
 428 0 l 0,33,-1
 1298 1407 l 0,34,-1
 1449 1407 l 0,35,-1
 577 0 l 0,32,-1
780 1002 m 0,36,37
 780 900 780 900 758 819 c 0,38,39
 735 738 735 738 691 680 c 0,40,41
 646 623 646 623 579 593 c 0,42,43
 511 562 511 562 422 562 c 0,44,45
 332 562 332 562 264 593 c 0,46,47
 196 624 196 624 151 680 c 0,48,49
 105 737 105 737 83 819 c 0,50,51
 60 900 60 900 60 1002 c 0,52,53
 60 1104 60 1104 83 1186 c 0,54,55
 106 1267 106 1267 151 1324 c 0,56,57
 197 1381 197 1381 264 1411 c 0,58,59
 332 1441 332 1441 422 1441 c 0,60,61
 511 1441 511 1441 579 1411 c 0,62,63
 647 1381 647 1381 691 1324 c 0,64,65
 736 1267 736 1267 758 1186 c 0,66,67
 780 1104 780 1104 780 1002 c 0,36,37
1585 404 m 0,68,69
 1585 500 1585 500 1575 566 c 0,70,71
 1565 632 1565 632 1548 671 c 0,72,73
 1531 710 1531 710 1506 728 c 0,74,75
 1481 745 1481 745 1453 744 c 0,76,77
 1425 744 1425 744 1399 728 c 0,78,79
 1373 711 1373 711 1354 671 c 0,80,81
 1335 632 1335 632 1322 566 c 0,82,83
 1310 500 1310 500 1311 404 c 0,84,85
 1311 307 1311 307 1322 242 c 0,86,87
 1334 177 1334 177 1354 138 c 0,88,89
 1373 99 1373 99 1399 81 c 0,90,91
 1425 64 1425 64 1453 65 c 0,92,93
 1482 65 1482 65 1506 81 c 0,94,95
 1531 98 1531 98 1548 138 c 0,96,97
 1565 177 1565 177 1575 242 c 0,98,99
 1585 307 1585 307 1585 404 c 0,68,69
554 1002 m 0,100,101
 554 1098 554 1098 544 1164 c 0,102,103
 534 1230 534 1230 516 1269 c 0,104,105
 499 1308 499 1308 474 1326 c 0,106,107
 449 1343 449 1343 422 1342 c 0,108,109
 392 1342 392 1342 366 1326 c 0,110,111
 339 1309 339 1309 318 1269 c 0,112,113
 297 1230 297 1230 285 1164 c 0,114,115
 273 1098 273 1098 272 1002 c 0,116,117
 272 905 272 905 285 840 c 0,118,119
 297 774 297 774 318 734 c 0,120,121
 339 694 339 694 366 677 c 0,122,123
 393 660 393 660 422 660 c 0,124,125
 450 660 450 660 474 677 c 0,126,127
 499 694 499 694 516 734 c 0,128,129
 533 774 533 774 544 840 c 0,130,131
 554 905 554 905 554 1002 c 0,100,101
EndSplineSet
EndChar

StartChar: ampersand
Encoding: 9 38 9
Width: 1540
VWidth: 1024
Flags: W
LayerCount: 2
Fore
SplineSet
791 1101 m 0,0,1
 791 1144 791 1144 779 1182 c 0,2,3
 768 1220 768 1220 746 1248 c 0,4,5
 724 1276 724 1276 694 1292 c 0,6,7
 663 1308 663 1308 625 1309 c 0,8,9
 589 1309 589 1309 558 1296 c 0,10,11
 527 1284 527 1284 505 1263 c 0,12,13
 482 1241 482 1241 470 1211 c 0,14,15
 457 1181 457 1181 457 1145 c 0,16,17
 457 1110 457 1110 467 1076 c 0,18,19
 478 1042 478 1042 502 1005 c 0,20,21
 526 968 526 968 564 926 c 0,22,23
 602 884 602 884 656 835 c 0,24,25
 688 864 688 864 713 892 c 0,26,27
 738 921 738 921 756 952 c 0,28,29
 773 983 773 983 782 1019 c 0,30,31
 791 1056 791 1056 791 1101 c 0,0,1
462 673 m 0,32,33
 433 654 433 654 412 627 c 0,34,35
 394 603 394 603 378 567 c 0,36,37
 363 531 363 531 362 482 c 0,38,39
 362 393 362 393 390 331 c 0,40,41
 417 269 417 269 461 229 c 0,42,43
 505 190 505 190 560 173 c 0,44,45
 615 156 615 156 671 156 c 0,46,47
 724 156 724 156 762 168 c 0,48,49
 800 181 800 181 826 197 c 0,50,51
 856 215 856 215 877 239 c 0,52,-1
 462 673 l 0,32,33
1051 0 m 0,53,-1
 1051 50 l 0,54,-1
 963 148 l 0,55,56
 914 99 914 99 849 61 c 0,57,58
 821 45 821 45 787 29 c 0,59,60
 753 13 753 13 714 1 c 0,61,62
 674 -11 674 -11 628 -18 c 0,63,64
 582 -25 582 -25 532 -26 c 0,65,66
 431 -26 431 -26 348 4 c 0,67,68
 265 34 265 34 205 88 c 0,69,70
 146 142 146 142 113 217 c 0,71,72
 80 293 80 293 80 386 c 0,73,74
 80 461 80 461 101 518 c 0,75,76
 122 575 122 575 161 620 c 0,77,78
 200 664 200 664 254 694 c 0,79,80
 308 725 308 725 374 746 c 0,81,82
 371 748 371 748 357 759 c 0,83,84
 342 770 342 770 321 790 c 0,85,86
 299 810 299 810 274 838 c 0,87,88
 249 866 249 866 229 903 c 0,89,90
 208 939 208 939 194 983 c 0,91,92
 180 1027 180 1027 180 1078 c 0,93,94
 180 1165 180 1165 217 1232 c 0,95,96
 253 1299 253 1299 315 1343 c 0,97,98
 377 1388 377 1388 460 1412 c 0,99,100
 543 1435 543 1435 636 1435 c 0,101,102
 677 1435 677 1435 723 1428 c 0,103,104
 770 1422 770 1422 816 1407 c 0,105,106
 862 1392 862 1392 905 1367 c 0,107,108
 947 1342 947 1342 979 1306 c 0,109,110
 1011 1270 1011 1270 1031 1220 c 0,111,112
 1050 1170 1050 1170 1051 1105 c 0,113,114
 1051 1034 1051 1034 1029 982 c 0,115,116
 1007 930 1007 930 975 891 c 0,117,118
 942 853 942 853 903 828 c 0,119,120
 864 803 864 803 829 788 c 0,121,122
 794 773 794 773 769 766 c 0,123,124
 743 759 743 759 736 759 c 0,125,-1
 1059 424 l 0,126,127
 1084 456 1084 456 1105 493 c 0,128,129
 1123 525 1123 525 1142 567 c 0,130,131
 1160 609 1160 609 1170 658 c 0,132,133
 1171 667 1171 667 1163 680 c 0,134,135
 1155 692 1155 692 1149 694 c 0,136,-1
 1040 713 l 0,137,-1
 1040 812 l 0,138,-1
 1481 812 l 0,139,-1
 1481 713 l 0,140,-1
 1336 684 l 0,141,142
 1310 601 1310 601 1277 537 c 0,143,144
 1243 472 1243 472 1213 427 c 0,145,146
 1177 375 1177 375 1141 336 c 0,147,-1
 1338 124 l 0,148,-1
 1508 106 l 0,149,-1
 1508 0 l 0,150,-1
 1051 0 l 0,53,-1
EndSplineSet
EndChar

StartChar: quotesingle
Encoding: 10 39 10
Width: 368
VWidth: 1024
Flags: W
LayerCount: 2
Fore
SplineSet
146 874 m 0,0,-1
 65 1365 l 0,1,2
 65 1423 65 1423 92 1460 c 0,3,4
 120 1497 120 1497 184 1497 c 0,5,6
 247 1497 247 1497 277 1460 c 0,7,8
 306 1423 306 1423 306 1365 c 0,9,-1
 222 874 l 0,10,-1
 146 874 l 0,0,-1
EndSplineSet
EndChar

StartChar: parenleft
Encoding: 11 40 11
Width: 821
VWidth: 1024
Flags: W
LayerCount: 2
Fore
SplineSet
751 -298 m 0,0,1
 596 -294 596 -294 479 -229 c 0,2,3
 362 -164 362 -164 283 -48 c 0,4,5
 204 69 204 69 164 233 c 0,6,7
 124 398 124 398 124 604 c 0,8,9
 124 809 124 809 164 973 c 0,10,11
 204 1137 204 1137 283 1254 c 0,12,13
 362 1370 362 1370 479 1434 c 0,14,15
 596 1498 596 1498 751 1503 c 0,16,-1
 751 1391 l 0,17,18
 640 1376 640 1376 570 1311 c 0,19,20
 500 1247 500 1247 460 1144 c 0,21,22
 420 1041 420 1041 405 903 c 0,23,24
 390 765 390 765 390 604 c 0,25,26
 390 442 390 442 405 305 c 0,27,28
 420 167 420 167 460 63 c 0,29,30
 500 -40 500 -40 570 -104 c 0,31,32
 640 -169 640 -169 751 -184 c 0,33,-1
 751 -298 l 0,0,1
EndSplineSet
EndChar

StartChar: parenright
Encoding: 12 41 12
Width: 821
VWidth: 1024
Flags: W
LayerCount: 2
Fore
SplineSet
698 604 m 0,0,1
 698 398 698 398 658 233 c 0,2,3
 618 68 618 68 539 -48 c 0,4,5
 460 -165 460 -165 343 -229 c 0,6,7
 226 -294 226 -294 72 -298 c 0,8,-1
 72 -184 l 0,9,10
 182 -169 182 -169 251 -104 c 0,11,12
 321 -39 321 -39 361 63 c 0,13,14
 401 166 401 166 417 305 c 0,15,16
 432 443 432 443 432 604 c 0,17,18
 432 765 432 765 417 903 c 0,19,20
 402 1041 402 1041 361 1144 c 0,21,22
 321 1247 321 1247 251 1311 c 0,23,24
 181 1375 181 1375 72 1391 c 0,25,-1
 72 1503 l 0,26,27
 226 1498 226 1498 343 1434 c 0,28,29
 460 1370 460 1370 539 1254 c 0,30,31
 618 1138 618 1138 658 973 c 0,32,33
 698 809 698 809 698 604 c 0,0,1
EndSplineSet
EndChar

StartChar: asterisk
Encoding: 13 42 13
Width: 1048
VWidth: 1024
Flags: W
LayerCount: 2
Fore
SplineSet
845 1061 m 0,0,-1
 574 1063 l 0,1,-1
 560 1095 l 0,2,-1
 782 1258 l 0,3,-1
 937 1197 l 0,4,-1
 845 1061 l 0,0,-1
541 1118 m 0,5,-1
 506 1118 l 0,6,-1
 420 1380 l 0,7,-1
 524 1505 l 0,8,-1
 629 1380 l 0,9,-1
 541 1118 l 0,5,-1
780 709 m 0,10,-1
 621 751 l 0,11,-1
 537 1011 l 0,12,-1
 562 1036 l 0,13,-1
 786 872 l 0,14,-1
 780 709 l 0,10,-1
474 1063 m 0,15,-1
 202 1061 l 0,16,-1
 112 1197 l 0,17,-1
 262 1258 l 0,18,-1
 486 1093 l 0,19,-1
 474 1063 l 0,15,-1
428 751 m 0,20,-1
 268 709 l 0,21,-1
 262 872 l 0,22,-1
 486 1036 l 0,23,-1
 512 1011 l 0,24,-1
 428 751 l 0,20,-1
EndSplineSet
EndChar

StartChar: plus
Encoding: 14 43 14
Width: 2097
VWidth: 1024
Flags: W
LayerCount: 2
Fore
SplineSet
1113 564 m 0,0,-1
 1113 0 l 0,1,-1
 984 0 l 0,2,-1
 984 564 l 0,3,-1
 420 564 l 0,4,-1
 420 694 l 0,5,-1
 984 694 l 0,6,-1
 984 1258 l 0,7,-1
 1113 1258 l 0,8,-1
 1113 694 l 0,9,-1
 1677 694 l 0,10,-1
 1677 564 l 0,11,-1
 1113 564 l 0,0,-1
EndSplineSet
EndChar

StartChar: comma
Encoding: 15 44 15
Width: 665
VWidth: 1024
Flags: W
LayerCount: 2
Fore
SplineSet
508 124 m 0,0,1
 508 58 508 58 489 -2 c 0,2,3
 471 -62 471 -62 440 -116 c 0,4,5
 409 -170 409 -170 366 -215 c 0,6,7
 324 -260 324 -260 275 -292 c 0,8,9
 227 -325 227 -325 176 -346 c 0,10,11
 124 -366 124 -366 74 -369 c 0,12,-1
 74 -266 l 0,13,14
 114 -260 114 -260 159 -243 c 0,15,16
 205 -226 205 -226 243 -194 c 0,17,18
 281 -161 281 -161 304 -110 c 0,19,20
 328 -59 328 -59 325 14 c 0,21,-1
 198 14 l 0,22,23
 179 29 179 29 166 47 c 0,24,25
 154 64 154 64 146 81 c 0,26,27
 138 98 138 98 135 116 c 0,28,29
 132 133 132 133 132 148 c 0,30,31
 132 188 132 188 147 221 c 0,32,33
 162 253 162 253 186 276 c 0,34,35
 211 299 211 299 243 312 c 0,36,37
 275 325 275 325 308 325 c 0,38,39
 403 325 403 325 456 270 c 0,40,41
 508 216 508 216 508 124 c 0,0,1
EndSplineSet
EndChar

StartChar: hyphen
Encoding: 16 45 16
Width: 688
VWidth: 1024
Flags: W
LayerCount: 2
Fore
SplineSet
70 394 m 0,0,-1
 70 616 l 0,1,-1
 618 616 l 0,2,-1
 618 394 l 0,3,-1
 70 394 l 0,0,-1
EndSplineSet
EndChar

StartChar: period
Encoding: 17 46 17
Width: 665
VWidth: 1024
Flags: W
LayerCount: 2
Fore
SplineSet
482 148 m 0,0,1
 482 112 482 112 469 81 c 0,2,3
 456 49 456 49 432 26 c 0,4,5
 408 2 408 2 377 -12 c 0,6,7
 345 -26 345 -26 308 -26 c 0,8,9
 272 -26 272 -26 240 -12 c 0,10,11
 208 2 208 2 184 26 c 0,12,13
 160 50 160 50 146 81 c 0,14,15
 132 113 132 113 132 148 c 0,16,17
 132 185 132 185 146 217 c 0,18,19
 160 249 160 249 184 273 c 0,20,21
 208 297 208 297 240 311 c 0,22,23
 272 325 272 325 308 325 c 0,24,25
 345 325 345 325 377 311 c 0,26,27
 409 297 409 297 432 273 c 0,28,29
 456 249 456 249 469 217 c 0,30,31
 482 185 482 185 482 148 c 0,0,1
EndSplineSet
EndChar

StartChar: slash
Encoding: 18 47 18
Width: 1050
VWidth: 1024
Flags: W
LayerCount: 2
Fore
SplineSet
164 -195 m 0,0,-1
 0 -195 l 0,1,-1
 885 1407 l 0,2,-1
 1051 1407 l 0,3,-1
 164 -195 l 0,0,-1
EndSplineSet
EndChar

StartChar: zero
Encoding: 19 48 19
Width: 1243
VWidth: 1024
Flags: W
LayerCount: 2
Fore
SplineSet
934 684 m 0,0,1
 934 915 934 915 889 1047 c 0,2,3
 815 1256 815 1256 627 1255 c 0,4,5
 576 1255 576 1255 532 1237 c 0,6,7
 489 1219 489 1219 451 1182 c 0,8,9
 426 1157 426 1157 411 1130 c 0,10,11
 396 1103 396 1103 373 1027 c 0,12,13
 350 950 350 950 341 863 c 0,14,15
 332 776 332 776 332 682 c 0,16,17
 332 453 332 453 377 319 c 0,18,19
 449 108 449 108 637 109 c 0,20,21
 819 109 819 109 893 326 c 0,22,23
 938 463 938 463 934 684 c 0,0,1
1198 678 m 0,24,25
 1198 545 1198 545 1169 433 c 0,26,27
 1140 321 1140 321 1072 213 c 0,28,29
 1003 104 1003 104 885 36 c 0,30,31
 766 -33 766 -33 627 -33 c 0,32,33
 496 -33 496 -33 384 27 c 0,34,35
 272 86 272 86 201 188 c 0,36,37
 129 290 129 290 96 419 c 0,38,39
 63 547 63 547 63 678 c 0,40,41
 63 952 63 952 195 1155 c 0,42,43
 351 1395 351 1395 618 1395 c 0,44,45
 901 1395 901 1395 1059 1163 c 0,46,47
 1196 961 1196 961 1198 678 c 0,24,25
EndSplineSet
EndChar

StartChar: one
Encoding: 20 49 20
Width: 1243
VWidth: 1024
Flags: W
LayerCount: 2
Fore
SplineSet
1028 0 m 0,0,-1
 301 0 l 0,1,-1
 301 96 l 0,2,3
 354 104 354 104 412 113 c 0,4,5
 469 121 469 121 506 137 c 0,6,7
 529 151 529 151 536 175 c 0,8,9
 543 199 543 199 543 248 c 0,10,11
 543 297 543 297 543 313 c 0,12,-1
 543 1010 l 0,13,14
 543 1133 543 1133 514 1165 c 0,15,16
 485 1198 485 1198 360 1198 c 0,17,-1
 301 1198 l 0,18,-1
 301 1294 l 0,19,-1
 688 1356 l 0,20,-1
 788 1356 l 0,21,-1
 788 307 l 0,22,23
 788 170 788 170 825 136 c 0,24,25
 862 102 862 102 1028 88 c 0,26,-1
 1028 0 l 0,0,-1
EndSplineSet
EndChar

StartChar: two
Encoding: 21 50 21
Width: 1243
VWidth: 1024
Flags: W
LayerCount: 2
Fore
SplineSet
1180 403 m 0,0,-1
 1071 0 l 0,1,-1
 63 0 l 0,2,-1
 63 168 l 0,3,4
 208 250 208 250 313 324 c 0,5,6
 432 410 432 410 532 506 c 0,7,8
 698 664 698 664 764 795 c 0,9,10
 817 899 817 899 817 1008 c 0,11,12
 817 1121 817 1121 749 1186 c 0,13,14
 680 1252 680 1252 561 1251 c 0,15,16
 477 1251 477 1251 389 1207 c 0,17,18
 301 1163 301 1163 301 1090 c 0,19,20
 301 1053 301 1053 323 1029 c 0,21,22
 345 1005 345 1005 355 984 c 0,23,24
 366 962 366 962 367 940 c 0,25,26
 367 889 367 889 324 852 c 0,27,28
 281 815 281 815 229 815 c 0,29,30
 157 815 157 815 117 870 c 0,31,32
 76 925 76 925 76 997 c 0,33,34
 76 1083 76 1083 118 1159 c 0,35,36
 160 1235 160 1235 232 1289 c 0,37,38
 305 1343 305 1343 393 1369 c 0,39,40
 481 1395 481 1395 584 1395 c 0,41,42
 678 1395 678 1395 764 1373 c 0,43,44
 850 1351 850 1351 926 1304 c 0,45,46
 1002 1256 1002 1256 1050 1171 c 0,47,48
 1098 1087 1098 1087 1098 997 c 0,49,50
 1098 843 1098 843 975 682 c 0,51,52
 873 549 873 549 690 410 c 0,53,54
 559 310 559 310 371 201 c 0,55,-1
 731 201 l 0,56,57
 878 201 878 201 931 231 c 0,58,59
 983 262 983 262 1040 387 c 0,60,-1
 1059 430 l 0,61,-1
 1180 403 l 0,0,-1
EndSplineSet
EndChar

StartChar: three
Encoding: 22 51 22
Width: 1243
VWidth: 1024
Flags: W
LayerCount: 2
Fore
SplineSet
850 760 m 0,0,1
 993 727 993 727 1075 645 c 0,2,3
 1175 549 1175 549 1176 403 c 0,4,5
 1176 309 1176 309 1120 219 c 0,6,7
 1065 129 1065 129 978 75 c 0,8,9
 891 21 891 21 794 -3 c 0,10,11
 697 -27 697 -27 580 -27 c 0,12,13
 496 -27 496 -27 413 -10 c 0,14,15
 330 6 330 6 250 45 c 0,16,17
 170 90 170 90 123 150 c 0,18,19
 66 222 66 222 66 301 c 0,20,21
 66 362 66 362 103 407 c 0,22,23
 141 451 141 451 207 451 c 0,24,25
 266 451 266 451 303 414 c 0,26,27
 340 377 340 377 340 317 c 0,28,29
 340 301 340 301 336 293 c 0,30,31
 332 285 332 285 328 274 c 0,32,-1
 326 238 l 0,33,34
 326 209 326 209 349 182 c 0,35,36
 373 155 373 155 403 141 c 0,37,38
 485 104 485 104 590 104 c 0,39,40
 735 104 735 104 819 183 c 0,41,42
 903 262 903 262 903 401 c 0,43,44
 903 548 903 548 816 622 c 0,45,46
 729 695 729 695 575 694 c 0,47,-1
 424 686 l 0,48,-1
 424 815 l 0,49,-1
 539 813 l 0,50,51
 670 813 670 813 750 864 c 0,52,53
 844 923 844 923 844 1047 c 0,54,55
 844 1149 844 1149 775 1211 c 0,56,57
 706 1273 706 1273 598 1274 c 0,58,59
 514 1274 514 1274 442 1244 c 0,60,61
 370 1214 370 1214 371 1143 c 0,62,63
 371 1129 371 1129 385 1100 c 0,64,65
 389 1084 389 1084 396 1065 c 0,66,67
 403 1047 403 1047 403 1036 c 0,68,69
 403 985 403 985 364 951 c 0,70,71
 324 917 324 917 270 918 c 0,72,73
 209 918 209 918 173 962 c 0,74,75
 137 1006 137 1006 137 1067 c 0,76,77
 137 1133 137 1133 181 1201 c 0,78,79
 225 1270 225 1270 288 1313 c 0,80,81
 350 1356 350 1356 436 1379 c 0,82,83
 522 1403 522 1403 610 1403 c 0,84,85
 696 1403 696 1403 777 1388 c 0,86,87
 858 1373 858 1373 931 1331 c 0,88,89
 1004 1290 1004 1290 1055 1218 c 0,90,91
 1106 1145 1106 1145 1106 1063 c 0,92,93
 1106 1002 1106 1002 1072 937 c 0,94,95
 1038 872 1038 872 987 836 c 0,96,97
 954 811 954 811 926 797 c 0,98,99
 897 783 897 783 850 760 c 0,0,1
EndSplineSet
EndChar

StartChar: four
Encoding: 23 52 23
Width: 1243
VWidth: 1024
Flags: W
LayerCount: 2
Fore
SplineSet
692 516 m 0,0,-1
 692 1122 l 0,1,-1
 252 547 l 0,2,-1
 229 516 l 0,3,-1
 692 516 l 0,0,-1
1235 514 m 0,4,-1
 1176 360 l 0,5,-1
 930 360 l 0,6,-1
 930 350 l 0,7,8
 928 291 928 291 928 258 c 0,9,10
 928 205 928 205 942 168 c 0,11,12
 956 131 956 131 990 119 c 0,13,14
 1024 107 1024 107 1071 106 c 0,15,-1
 1126 106 l 0,16,-1
 1126 6 l 0,17,-1
 498 6 l 0,18,-1
 498 106 l 0,19,-1
 543 106 l 0,20,21
 590 106 590 106 624 116 c 0,22,23
 658 125 658 125 672 154 c 0,24,25
 686 183 686 183 688 216 c 0,26,27
 690 250 690 250 690 338 c 0,28,-1
 690 362 l 0,29,-1
 63 362 l 0,30,-1
 23 473 l 0,31,-1
 362 903 l 0,32,-1
 700 1366 l 0,33,-1
 924 1366 l 0,34,-1
 924 516 l 0,35,-1
 1235 514 l 0,4,-1
EndSplineSet
EndChar

StartChar: five
Encoding: 24 53 24
Width: 1243
VWidth: 1024
Flags: W
LayerCount: 2
Fore
SplineSet
1194 483 m 0,0,1
 1194 245 1194 245 1024 105 c 0,2,3
 854 -35 854 -35 606 -35 c 0,4,5
 534 -35 534 -35 455 -18 c 0,6,7
 375 -2 375 -2 298 29 c 0,8,9
 221 60 221 60 168 121 c 0,10,11
 107 193 107 193 106 274 c 0,12,13
 106 335 106 335 144 377 c 0,14,15
 182 418 182 418 244 418 c 0,16,17
 303 418 303 418 343 381 c 0,18,19
 383 344 383 344 383 287 c 0,20,21
 383 273 383 273 374 243 c 0,22,23
 365 213 365 213 365 199 c 0,24,25
 365 142 365 142 434 116 c 0,26,27
 504 90 504 90 575 90 c 0,28,29
 735 90 735 90 829 187 c 0,30,31
 923 284 923 284 924 438 c 0,32,33
 924 499 924 499 905 564 c 0,34,35
 887 629 887 629 847 676 c 0,36,37
 807 723 807 723 740 750 c 0,38,39
 673 777 673 777 606 776 c 0,40,41
 416 776 416 776 301 594 c 0,42,-1
 184 618 l 0,43,-1
 184 1358 l 0,44,-1
 838 1358 l 0,45,46
 889 1358 889 1358 914 1366 c 0,47,48
 940 1374 940 1374 950 1425 c 0,49,-1
 1067 1425 l 0,50,-1
 1028 1153 l 0,51,-1
 350 1153 l 0,52,-1
 350 829 l 0,53,54
 489 925 489 925 666 926 c 0,55,56
 889 926 889 926 1043 804 c 0,57,58
 1198 682 1198 682 1194 483 c 0,0,1
EndSplineSet
EndChar

StartChar: six
Encoding: 25 54 25
Width: 1243
VWidth: 1024
Flags: W
LayerCount: 2
Fore
SplineSet
946 434 m 0,0,1
 946 565 946 565 872 655 c 0,2,3
 798 745 798 745 668 745 c 0,4,5
 516 745 516 745 437 652 c 0,6,7
 358 559 358 559 358 412 c 0,8,9
 358 281 358 281 435 196 c 0,10,11
 512 111 512 111 643 111 c 0,12,13
 788 111 788 111 867 201 c 0,14,15
 946 291 946 291 946 434 c 0,0,1
1206 438 m 0,16,17
 1206 227 1206 227 1032 94 c 0,18,19
 870 -31 870 -31 647 -31 c 0,20,21
 518 -31 518 -31 404 18 c 0,22,23
 290 67 290 67 217 158 c 0,24,25
 143 248 143 248 110 378 c 0,26,27
 76 508 76 508 76 633 c 0,28,29
 76 780 76 780 106 913 c 0,30,31
 137 1046 137 1046 215 1156 c 0,32,33
 293 1266 293 1266 427 1331 c 0,34,35
 561 1397 561 1397 707 1397 c 0,36,37
 773 1397 773 1397 855 1377 c 0,38,39
 938 1358 938 1358 1004 1327 c 0,40,41
 1072 1288 1072 1288 1108 1245 c 0,42,43
 1159 1186 1159 1186 1159 1124 c 0,44,45
 1159 1073 1159 1073 1122 1039 c 0,46,47
 1085 1005 1085 1005 1032 1006 c 0,48,49
 960 1006 960 1006 923 1056 c 0,50,51
 885 1106 885 1106 885 1178 c 0,52,53
 885 1229 885 1229 829 1247 c 0,54,55
 774 1265 774 1265 702 1266 c 0,56,57
 503 1266 503 1266 418 1100 c 0,58,59
 344 961 344 961 344 774 c 0,60,-1
 344 752 l 0,61,62
 477 889 477 889 702 889 c 0,63,64
 913 889 913 889 1061 767 c 0,65,66
 1208 645 1208 645 1206 438 c 0,16,17
EndSplineSet
EndChar

StartChar: seven
Encoding: 26 55 26
Width: 1243
VWidth: 1024
Flags: W
LayerCount: 2
Fore
SplineSet
1198 1219 m 0,0,1
 1089 1102 1089 1102 994 962 c 0,2,3
 899 822 899 822 825 678 c 0,4,-1
 694 373 l 0,5,6
 665 279 665 279 650 191 c 0,7,8
 635 104 635 104 635 4 c 0,9,-1
 326 4 l 0,10,11
 359 192 359 192 424 352 c 0,12,13
 481 491 481 491 584 659 c 0,14,15
 670 798 670 798 763 921 c 0,16,17
 856 1043 856 1043 975 1159 c 0,18,-1
 532 1159 l 0,19,20
 380 1159 380 1159 330 1141 c 0,21,22
 244 1108 244 1108 201 979 c 0,23,-1
 98 979 l 0,24,-1
 168 1368 l 0,25,-1
 1180 1368 l 0,26,-1
 1198 1219 l 0,0,1
EndSplineSet
EndChar

StartChar: eight
Encoding: 27 56 27
Width: 1243
VWidth: 1024
Flags: W
LayerCount: 2
Fore
SplineSet
348 715 m 0,0,1
 248 758 248 758 197 823 c 0,2,3
 138 899 138 899 137 1014 c 0,4,5
 137 1196 137 1196 291 1305 c 0,6,7
 430 1401 430 1401 625 1401 c 0,8,9
 815 1401 815 1401 952 1327 c 0,10,11
 1124 1237 1124 1237 1124 1065 c 0,12,13
 1124 956 1124 956 1056 884 c 0,14,15
 987 811 987 811 870 774 c 0,16,17
 1015 721 1015 721 1085 649 c 0,18,19
 1179 559 1179 559 1180 422 c 0,20,21
 1180 328 1180 328 1129 240 c 0,22,23
 1079 152 1079 152 998 93 c 0,24,25
 917 35 917 35 812 5 c 0,26,27
 707 -25 707 -25 598 -25 c 0,28,29
 414 -25 414 -25 262 61 c 0,30,31
 172 112 172 112 118 189 c 0,32,33
 64 266 64 266 63 362 c 0,34,35
 63 495 63 495 142 586 c 0,36,37
 221 676 221 676 348 715 c 0,0,1
967 354 m 0,38,39
 967 454 967 454 893 514 c 0,40,41
 836 559 836 559 721 590 c 0,42,-1
 520 651 l 0,43,44
 409 608 409 608 352 547 c 0,45,46
 284 471 284 471 285 367 c 0,47,48
 285 236 285 236 389 162 c 0,49,50
 483 96 483 96 627 96 c 0,51,52
 760 96 760 96 854 158 c 0,53,54
 965 231 965 231 967 354 c 0,38,39
930 1063 m 0,55,56
 930 1163 930 1163 850 1222 c 0,57,58
 770 1280 770 1280 662 1280 c 0,59,60
 545 1280 545 1280 455 1225 c 0,61,62
 365 1170 365 1170 365 1059 c 0,63,64
 365 983 365 983 438 932 c 0,65,66
 489 895 489 895 586 870 c 0,67,-1
 709 834 l 0,68,69
 811 857 811 857 869 913 c 0,70,71
 928 971 928 971 930 1063 c 0,55,56
EndSplineSet
EndChar

StartChar: nine
Encoding: 28 57 28
Width: 1243
VWidth: 1024
Flags: W
LayerCount: 2
Fore
SplineSet
901 950 m 0,0,1
 901 1018 901 1018 886 1073 c 0,2,3
 871 1128 871 1128 834 1172 c 0,4,5
 797 1216 797 1216 738 1240 c 0,6,7
 680 1264 680 1264 614 1264 c 0,8,9
 471 1264 471 1264 394 1172 c 0,10,11
 317 1081 317 1081 317 936 c 0,12,13
 317 803 317 803 389 712 c 0,14,15
 461 621 461 621 594 621 c 0,16,17
 746 621 746 621 824 709 c 0,18,19
 903 796 903 796 901 950 c 0,0,1
1178 725 m 0,20,21
 1178 573 1178 573 1153 457 c 0,22,23
 1120 310 1120 310 1043 201 c 0,24,25
 966 92 966 92 836 31 c 0,26,27
 705 -30 705 -30 557 -31 c 0,28,29
 489 -31 489 -31 420 -14 c 0,30,31
 350 2 350 2 284 33 c 0,32,33
 217 64 217 64 178 111 c 0,34,35
 127 170 127 170 127 229 c 0,36,37
 127 280 127 280 158 314 c 0,38,39
 189 348 189 348 240 348 c 0,40,41
 322 348 322 348 369 272 c 0,42,43
 385 235 385 235 385 197 c 0,44,45
 393 150 393 150 415 134 c 0,46,47
 437 119 437 119 478 110 c 0,48,49
 520 101 520 101 567 100 c 0,50,51
 757 100 757 100 848 272 c 0,52,53
 920 405 920 405 920 610 c 0,54,-1
 920 635 l 0,55,56
 854 555 854 555 760 517 c 0,57,58
 666 479 666 479 551 479 c 0,59,60
 467 479 467 479 379 505 c 0,61,62
 291 531 291 531 221 585 c 0,63,64
 151 639 151 639 106 730 c 0,65,66
 61 821 61 821 61 915 c 0,67,68
 61 1126 61 1126 228 1263 c 0,69,70
 395 1399 395 1399 614 1399 c 0,71,72
 745 1399 745 1399 860 1349 c 0,73,74
 975 1299 975 1299 1051 1202 c 0,75,76
 1117 1116 1117 1116 1147 985 c 0,77,78
 1178 854 1178 854 1178 725 c 0,20,21
EndSplineSet
EndChar

StartChar: colon
Encoding: 29 58 29
Width: 665
VWidth: 1024
Flags: W
LayerCount: 2
Fore
SplineSet
482 148 m 0,0,1
 482 112 482 112 469 81 c 0,2,3
 456 49 456 49 432 26 c 0,4,5
 408 2 408 2 377 -12 c 0,6,7
 345 -26 345 -26 308 -26 c 0,8,9
 272 -26 272 -26 240 -12 c 0,10,11
 208 2 208 2 184 26 c 0,12,13
 160 50 160 50 146 81 c 0,14,15
 132 113 132 113 132 148 c 0,16,17
 132 185 132 185 146 217 c 0,18,19
 160 249 160 249 184 273 c 0,20,21
 208 297 208 297 240 311 c 0,22,23
 272 325 272 325 308 325 c 0,24,25
 345 325 345 325 377 311 c 0,26,27
 409 297 409 297 432 273 c 0,28,29
 456 249 456 249 469 217 c 0,30,31
 482 185 482 185 482 148 c 0,0,1
482 872 m 0,32,33
 482 835 482 835 469 804 c 0,34,35
 456 772 456 772 432 749 c 0,36,37
 408 725 408 725 377 712 c 0,38,39
 345 699 345 699 308 698 c 0,40,41
 272 698 272 698 240 712 c 0,42,43
 208 725 208 725 184 749 c 0,44,45
 160 773 160 773 146 804 c 0,46,47
 132 836 132 836 132 872 c 0,48,49
 132 908 132 908 146 941 c 0,50,51
 160 973 160 973 184 997 c 0,52,53
 208 1021 208 1021 240 1035 c 0,54,55
 272 1049 272 1049 308 1049 c 0,56,57
 345 1049 345 1049 377 1035 c 0,58,59
 409 1021 409 1021 432 997 c 0,60,61
 456 973 456 973 469 941 c 0,62,63
 482 908 482 908 482 872 c 0,32,33
EndSplineSet
EndChar

StartChar: semicolon
Encoding: 30 59 30
Width: 665
VWidth: 1024
Flags: W
LayerCount: 2
Fore
SplineSet
508 124 m 0,0,1
 508 58 508 58 489 -2 c 0,2,3
 471 -62 471 -62 440 -116 c 0,4,5
 409 -170 409 -170 366 -215 c 0,6,7
 324 -260 324 -260 275 -292 c 0,8,9
 227 -325 227 -325 176 -346 c 0,10,11
 124 -366 124 -366 74 -369 c 0,12,-1
 74 -266 l 0,13,14
 114 -260 114 -260 159 -243 c 0,15,16
 205 -226 205 -226 243 -194 c 0,17,18
 281 -161 281 -161 304 -110 c 0,19,20
 328 -59 328 -59 325 14 c 0,21,-1
 198 14 l 0,22,23
 179 29 179 29 166 47 c 0,24,25
 154 64 154 64 146 81 c 0,26,27
 138 98 138 98 135 116 c 0,28,29
 132 133 132 133 132 148 c 0,30,31
 132 188 132 188 147 221 c 0,32,33
 162 253 162 253 186 276 c 0,34,35
 211 299 211 299 243 312 c 0,36,37
 275 325 275 325 308 325 c 0,38,39
 403 325 403 325 456 270 c 0,40,41
 508 216 508 216 508 124 c 0,0,1
482 872 m 0,42,43
 482 835 482 835 469 804 c 0,44,45
 456 772 456 772 432 749 c 0,46,47
 408 725 408 725 377 712 c 0,48,49
 345 699 345 699 308 698 c 0,50,51
 272 698 272 698 240 712 c 0,52,53
 208 725 208 725 184 749 c 0,54,55
 160 773 160 773 146 804 c 0,56,57
 132 836 132 836 132 872 c 0,58,59
 132 908 132 908 146 941 c 0,60,61
 160 973 160 973 184 997 c 0,62,63
 208 1021 208 1021 240 1035 c 0,64,65
 272 1049 272 1049 308 1049 c 0,66,67
 345 1049 345 1049 377 1035 c 0,68,69
 409 1021 409 1021 432 997 c 0,70,71
 456 973 456 973 469 941 c 0,72,73
 482 908 482 908 482 872 c 0,42,43
EndSplineSet
EndChar

StartChar: less
Encoding: 31 60 31
Width: 2097
VWidth: 1024
Flags: W
LayerCount: 2
Fore
SplineSet
420 564 m 0,0,-1
 420 694 l 0,1,-1
 1677 1177 l 0,2,-1
 1677 1047 l 0,3,-1
 554 629 l 0,4,-1
 1677 212 l 0,5,-1
 1677 82 l 0,6,-1
 420 564 l 0,0,-1
EndSplineSet
EndChar

StartChar: equal
Encoding: 32 61 32
Width: 2097
VWidth: 1024
Flags: W
LayerCount: 2
Fore
SplineSet
420 755 m 0,0,-1
 420 885 l 0,1,-1
 1677 885 l 0,2,-1
 1677 755 l 0,3,-1
 420 755 l 0,0,-1
420 374 m 0,4,-1
 420 504 l 0,5,-1
 1677 504 l 0,6,-1
 1677 374 l 0,7,-1
 420 374 l 0,4,-1
EndSplineSet
EndChar

StartChar: greater
Encoding: 33 62 33
Width: 2097
VWidth: 1024
Flags: W
LayerCount: 2
Fore
SplineSet
420 82 m 0,0,-1
 420 212 l 0,1,-1
 1543 629 l 0,2,-1
 420 1047 l 0,3,-1
 420 1177 l 0,4,-1
 1677 694 l 0,5,-1
 1677 564 l 0,6,-1
 420 82 l 0,0,-1
EndSplineSet
EndChar

StartChar: question
Encoding: 34 63 34
Width: 1093
VWidth: 1024
Flags: W
LayerCount: 2
Fore
SplineSet
961 1042 m 0,0,1
 961 975 961 975 941 921 c 0,2,3
 922 866 922 866 889 822 c 0,4,5
 857 777 857 777 817 743 c 0,6,7
 777 709 777 709 733 684 c 0,8,9
 633 625 633 625 506 594 c 0,10,-1
 506 416 l 0,11,-1
 362 416 l 0,12,-1
 362 694 l 0,13,14
 447 717 447 717 514 763 c 0,15,16
 543 782 543 782 570 809 c 0,17,18
 597 836 597 836 618 870 c 0,19,20
 640 905 640 905 653 949 c 0,21,22
 666 993 666 993 667 1047 c 0,23,24
 667 1106 667 1106 650 1155 c 0,25,26
 633 1204 633 1204 599 1239 c 0,27,28
 565 1274 565 1274 513 1293 c 0,29,30
 461 1312 461 1312 392 1313 c 0,31,-1
 298 1061 l 0,32,33
 297 1060 297 1060 293 1059 c 0,34,35
 290 1058 290 1058 285 1057 c 0,36,37
 280 1056 280 1056 272 1057 c 0,38,39
 252 1057 252 1057 221 1059 c 0,40,41
 190 1062 190 1062 162 1075 c 0,42,43
 133 1088 133 1088 113 1115 c 0,44,45
 93 1142 93 1142 92 1191 c 0,46,47
 92 1260 92 1260 130 1307 c 0,48,49
 167 1355 167 1355 224 1384 c 0,50,51
 281 1414 281 1414 351 1427 c 0,52,53
 421 1440 421 1440 484 1441 c 0,54,55
 585 1441 585 1441 673 1413 c 0,56,57
 760 1385 760 1385 824 1333 c 0,58,59
 888 1281 888 1281 924 1207 c 0,60,61
 961 1133 961 1133 961 1042 c 0,0,1
606 136 m 0,62,63
 606 101 606 101 592 72 c 0,64,65
 578 42 578 42 555 20 c 0,66,67
 531 -2 531 -2 500 -13 c 0,68,69
 469 -25 469 -25 434 -26 c 0,70,71
 400 -26 400 -26 371 -12 c 0,72,73
 342 2 342 2 321 26 c 0,74,75
 299 50 299 50 287 80 c 0,76,77
 275 111 275 111 274 144 c 0,78,79
 274 179 274 179 287 209 c 0,80,81
 300 239 300 239 322 263 c 0,82,83
 344 286 344 286 373 299 c 0,84,85
 403 312 403 312 436 312 c 0,86,87
 474 312 474 312 505 298 c 0,88,89
 536 284 536 284 559 260 c 0,90,91
 582 236 582 236 594 203 c 0,92,93
 606 171 606 171 606 136 c 0,62,63
EndSplineSet
EndChar

StartChar: at
Encoding: 35 64 35
Width: 1961
VWidth: 1024
Flags: W
LayerCount: 2
Fore
SplineSet
1195 814 m 0,0,1
 1198 826 1198 826 1193 845 c 0,2,3
 1188 864 1188 864 1178 882 c 0,4,5
 1167 899 1167 899 1147 912 c 0,6,7
 1128 925 1128 925 1101 925 c 0,8,9
 1038 925 1038 925 982 891 c 0,10,11
 926 857 926 857 884 797 c 0,12,13
 842 737 842 737 817 654 c 0,14,15
 792 571 792 571 793 474 c 0,16,17
 793 415 793 415 804 373 c 0,18,19
 816 332 816 332 836 306 c 0,20,21
 855 280 855 280 879 268 c 0,22,23
 903 256 903 256 927 256 c 0,24,25
 961 256 961 256 988 269 c 0,26,27
 1015 282 1015 282 1037 301 c 0,28,29
 1059 320 1059 320 1077 343 c 0,30,31
 1095 366 1095 366 1111 384 c 0,32,-1
 1195 814 l 0,0,1
1841 772 m 0,33,34
 1841 668 1841 668 1818 578 c 0,35,36
 1795 488 1795 488 1756 414 c 0,37,38
 1717 340 1717 340 1663 282 c 0,39,40
 1610 224 1610 224 1550 185 c 0,41,42
 1490 146 1490 146 1426 125 c 0,43,44
 1362 105 1362 105 1300 104 c 0,45,46
 1252 104 1252 104 1220 117 c 0,47,48
 1188 129 1188 129 1167 149 c 0,49,50
 1146 169 1146 169 1135 196 c 0,51,52
 1124 223 1124 223 1120 252 c 0,53,54
 1087 224 1087 224 1054 198 c 0,55,56
 1020 172 1020 172 984 152 c 0,57,58
 948 132 948 132 910 119 c 0,59,60
 872 107 872 107 833 106 c 0,61,62
 761 106 761 106 707 133 c 0,63,64
 653 159 653 159 615 205 c 0,65,66
 578 252 578 252 560 315 c 0,67,68
 541 378 541 378 541 455 c 0,69,70
 541 573 541 573 584 676 c 0,71,72
 628 780 628 780 702 859 c 0,73,74
 777 937 777 937 878 983 c 0,75,76
 979 1029 979 1029 1093 1028 c 0,77,78
 1118 1028 1118 1028 1142 1022 c 0,79,80
 1167 1016 1167 1016 1192 1006 c 0,81,82
 1217 996 1217 996 1240 985 c 0,83,84
 1263 974 1263 974 1283 965 c 0,85,-1
 1311 1017 l 0,86,-1
 1487 1017 l 0,87,-1
 1477 978 l 0,88,89
 1470 947 1470 947 1459 902 c 0,90,91
 1448 857 1448 857 1435 802 c 0,92,93
 1422 747 1422 747 1409 690 c 0,94,95
 1378 558 1378 558 1340 394 c 0,96,97
 1332 359 1332 359 1328 331 c 0,98,99
 1324 302 1324 302 1328 282 c 0,100,101
 1332 262 1332 262 1346 250 c 0,102,103
 1360 239 1360 239 1389 239 c 0,104,105
 1409 239 1409 239 1439 254 c 0,106,107
 1469 270 1469 270 1502 301 c 0,108,109
 1534 332 1534 332 1566 377 c 0,110,111
 1598 423 1598 423 1623 482 c 0,112,113
 1648 541 1648 541 1663 613 c 0,114,115
 1679 685 1679 685 1679 770 c 0,116,117
 1679 869 1679 869 1656 950 c 0,118,119
 1632 1030 1632 1030 1592 1093 c 0,120,121
 1552 1155 1552 1155 1498 1201 c 0,122,123
 1443 1247 1443 1247 1381 1276 c 0,124,125
 1320 1306 1320 1306 1253 1320 c 0,126,127
 1186 1334 1186 1334 1122 1334 c 0,128,129
 1011 1334 1011 1334 911 1307 c 0,130,131
 810 1280 810 1280 722 1230 c 0,132,133
 634 1180 634 1180 563 1109 c 0,134,135
 491 1037 491 1037 440 948 c 0,136,137
 389 858 389 858 361 753 c 0,138,139
 333 648 333 648 334 530 c 0,140,141
 334 368 334 368 384 233 c 0,142,143
 434 97 434 97 526 -2 c 0,144,145
 618 -101 618 -101 749 -157 c 0,146,147
 879 -212 879 -212 1038 -212 c 0,148,149
 1121 -212 1121 -212 1196 -198 c 0,150,151
 1271 -184 1271 -184 1340 -161 c 0,152,153
 1410 -137 1410 -137 1477 -105 c 0,154,155
 1544 -73 1544 -73 1611 -36 c 0,156,-1
 1655 -140 l 0,157,158
 1584 -177 1584 -177 1508 -211 c 0,159,160
 1432 -245 1432 -245 1351 -272 c 0,161,162
 1269 -298 1269 -298 1178 -314 c 0,163,164
 1087 -330 1087 -330 988 -330 c 0,165,166
 865 -330 865 -330 754 -304 c 0,167,168
 642 -278 642 -278 546 -227 c 0,169,170
 450 -177 450 -177 371 -105 c 0,171,172
 293 -33 293 -33 238 58 c 0,173,174
 183 150 183 150 152 259 c 0,175,176
 122 368 122 368 122 493 c 0,177,178
 122 646 122 646 159 775 c 0,179,180
 196 905 196 905 262 1011 c 0,181,182
 328 1116 328 1116 419 1197 c 0,183,184
 510 1277 510 1277 618 1331 c 0,185,186
 726 1385 726 1385 847 1413 c 0,187,188
 968 1441 968 1441 1095 1441 c 0,189,190
 1265 1441 1265 1441 1403 1396 c 0,191,192
 1541 1351 1541 1351 1638 1265 c 0,193,194
 1735 1179 1735 1179 1788 1055 c 0,195,196
 1841 931 1841 931 1841 772 c 0,33,34
EndSplineSet
EndChar

StartChar: A
Encoding: 36 65 36
Width: 1437
VWidth: 1024
Flags: W
LayerCount: 2
Fore
SplineSet
849 0 m 0,0,-1
 849 106 l 0,1,-1
 973 122 l 0,2,3
 983 124 983 124 990 135 c 0,4,5
 997 146 997 146 992 158 c 0,6,-1
 879 490 l 0,7,-1
 430 490 l 0,8,-1
 314 166 l 0,9,10
 308 150 308 150 321 136 c 0,11,12
 333 123 333 123 344 122 c 0,13,-1
 462 106 l 0,14,-1
 462 0 l 0,15,-1
 10 0 l 0,16,-1
 10 106 l 0,17,-1
 128 124 l 0,18,-1
 598 1441 l 0,19,-1
 837 1441 l 0,20,-1
 1303 162 l 0,21,22
 1311 143 1311 143 1318 135 c 0,23,24
 1326 127 1326 127 1349 122 c 0,25,-1
 1428 106 l 0,26,-1
 1428 0 l 0,27,-1
 849 0 l 0,0,-1
646 1118 m 0,28,-1
 470 614 l 0,29,-1
 826 614 l 0,30,-1
 646 1118 l 0,28,-1
EndSplineSet
EndChar

StartChar: B
Encoding: 37 66 37
Width: 1339
VWidth: 1024
Flags: W
LayerCount: 2
Fore
SplineSet
872 1049 m 0,0,1
 872 1095 872 1095 862 1138 c 0,2,3
 852 1182 852 1182 823 1215 c 0,4,5
 794 1249 794 1249 741 1270 c 0,6,7
 688 1290 688 1290 604 1290 c 0,8,-1
 594 1290 l 0,9,10
 591 1290 591 1290 583 1290 c 0,11,12
 575 1289 575 1289 561 1288 c 0,13,14
 546 1287 546 1287 518 1285 c 0,15,-1
 518 786 l 0,16,17
 529 785 529 785 541 785 c 0,18,19
 550 784 550 784 558 784 c 0,20,-1
 570 784 l 0,21,22
 660 784 660 784 719 805 c 0,23,24
 777 825 777 825 812 861 c 0,25,26
 846 896 846 896 859 945 c 0,27,28
 872 994 872 994 872 1049 c 0,0,1
948 394 m 0,29,30
 948 529 948 529 870 595 c 0,31,32
 792 661 792 661 623 660 c 0,33,-1
 585 660 l 0,34,35
 562 660 562 660 518 658 c 0,36,-1
 518 124 l 0,37,38
 542 123 542 123 562 122 c 0,39,40
 579 121 579 121 595 120 c 0,41,42
 611 119 611 119 616 120 c 0,43,44
 696 120 696 120 758 134 c 0,45,46
 820 148 820 148 863 181 c 0,47,48
 905 214 905 214 927 266 c 0,49,50
 948 318 948 318 948 394 c 0,29,30
1263 409 m 0,51,52
 1263 311 1263 311 1241 242 c 0,53,54
 1219 174 1219 174 1183 129 c 0,55,56
 1147 83 1147 83 1098 57 c 0,57,58
 1049 31 1049 31 996 19 c 0,59,60
 942 6 942 6 886 3 c 0,61,62
 830 0 830 0 778 0 c 0,63,-1
 58 0 l 0,64,-1
 58 106 l 0,65,-1
 172 118 l 0,66,67
 191 120 191 120 205 132 c 0,68,69
 218 144 218 144 218 164 c 0,70,-1
 218 1243 l 0,71,72
 218 1263 218 1263 205 1276 c 0,73,74
 192 1288 192 1288 172 1290 c 0,75,-1
 58 1300 l 0,76,-1
 58 1407 l 0,77,-1
 734 1407 l 0,78,79
 772 1407 772 1407 820 1403 c 0,80,81
 868 1399 868 1399 917 1388 c 0,82,83
 967 1376 967 1376 1014 1355 c 0,84,85
 1061 1333 1061 1333 1098 1297 c 0,86,87
 1135 1261 1135 1261 1158 1208 c 0,88,89
 1181 1155 1181 1155 1181 1082 c 0,90,91
 1181 1019 1181 1019 1163 971 c 0,92,93
 1146 923 1146 923 1118 887 c 0,94,95
 1090 851 1090 851 1057 826 c 0,96,97
 1023 801 1023 801 990 785 c 0,98,99
 957 769 957 769 928 760 c 0,100,101
 899 751 899 751 884 749 c 0,102,103
 922 748 922 748 965 741 c 0,104,105
 1009 735 1009 735 1051 720 c 0,106,107
 1093 705 1093 705 1131 681 c 0,108,109
 1169 656 1169 656 1199 619 c 0,110,111
 1228 582 1228 582 1245 530 c 0,112,113
 1263 479 1263 479 1263 409 c 0,51,52
EndSplineSet
EndChar

StartChar: C
Encoding: 38 67 38
Width: 1333
VWidth: 1024
Flags: W
LayerCount: 2
Fore
SplineSet
1258 50 m 0,0,1
 1239 42 1239 42 1198 28 c 0,2,3
 1157 14 1157 14 1098 1 c 0,4,5
 1040 -13 1040 -13 967 -24 c 0,6,7
 895 -34 895 -34 814 -34 c 0,8,9
 706 -34 706 -34 610 -9 c 0,10,11
 514 16 514 16 432 61 c 0,12,13
 350 107 350 107 285 173 c 0,14,15
 219 239 219 239 173 321 c 0,16,17
 127 403 127 403 102 500 c 0,18,19
 77 597 77 597 78 705 c 0,20,21
 78 869 78 869 135 1004 c 0,22,23
 192 1139 192 1139 291 1236 c 0,24,25
 390 1333 390 1333 525 1387 c 0,26,27
 660 1441 660 1441 816 1441 c 0,28,29
 875 1441 875 1441 925 1436 c 0,30,31
 974 1431 974 1431 1023 1420 c 0,32,33
 1073 1409 1073 1409 1129 1393 c 0,34,35
 1185 1377 1185 1377 1258 1353 c 0,36,-1
 1258 996 l 0,37,-1
 1095 996 l 0,38,-1
 1049 1231 l 0,39,40
 1049 1236 1049 1236 1040 1248 c 0,41,42
 1032 1260 1032 1260 1021 1265 c 0,43,44
 1013 1269 1013 1269 996 1274 c 0,45,46
 979 1280 979 1280 958 1285 c 0,47,48
 937 1290 937 1290 914 1294 c 0,49,50
 891 1298 891 1298 872 1298 c 0,51,52
 764 1298 764 1298 678 1256 c 0,53,54
 591 1214 591 1214 531 1135 c 0,55,56
 471 1057 471 1057 439 947 c 0,57,58
 407 837 407 837 407 700 c 0,59,60
 407 626 407 626 418 554 c 0,61,62
 429 481 429 481 453 415 c 0,63,64
 477 348 477 348 516 291 c 0,65,66
 554 234 554 234 607 193 c 0,67,68
 660 151 660 151 731 126 c 0,69,70
 801 102 801 102 889 102 c 0,71,72
 928 102 928 102 961 112 c 0,73,74
 994 122 994 122 1011 130 c 0,75,76
 1019 133 1019 133 1031 147 c 0,77,78
 1043 161 1043 161 1047 170 c 0,79,-1
 1093 418 l 0,80,-1
 1258 418 l 0,81,-1
 1258 50 l 0,0,1
EndSplineSet
EndChar

StartChar: D
Encoding: 39 68 39
Width: 1517
VWidth: 1024
Flags: W
LayerCount: 2
Fore
SplineSet
1441 719 m 0,0,1
 1441 539 1441 539 1389 404 c 0,2,3
 1337 269 1337 269 1242 179 c 0,4,5
 1146 89 1146 89 1011 45 c 0,6,7
 876 0 876 0 709 0 c 0,8,-1
 54 0 l 0,9,-1
 54 106 l 0,10,-1
 170 118 l 0,11,12
 188 120 188 120 203 132 c 0,13,14
 218 144 218 144 218 164 c 0,15,-1
 218 1243 l 0,16,17
 218 1263 218 1263 203 1276 c 0,18,19
 188 1288 188 1288 170 1290 c 0,20,-1
 54 1300 l 0,21,-1
 54 1407 l 0,22,-1
 696 1407 l 0,23,24
 875 1407 875 1407 1014 1357 c 0,25,26
 1153 1307 1153 1307 1248 1216 c 0,27,28
 1343 1125 1343 1125 1392 999 c 0,29,30
 1441 873 1441 873 1441 719 c 0,0,1
1103 696 m 0,31,32
 1103 817 1103 817 1084 908 c 0,33,34
 1066 999 1066 999 1034 1063 c 0,35,36
 1002 1128 1002 1128 957 1171 c 0,37,38
 913 1214 913 1214 863 1240 c 0,39,40
 813 1265 813 1265 759 1275 c 0,41,42
 705 1285 705 1285 650 1285 c 0,43,-1
 518 1285 l 0,44,-1
 518 124 l 0,45,-1
 692 128 l 0,46,47
 737 129 737 129 785 140 c 0,48,49
 833 151 833 151 879 177 c 0,50,51
 925 203 925 203 965 245 c 0,52,53
 1005 287 1005 287 1036 351 c 0,54,55
 1067 414 1067 414 1085 499 c 0,56,57
 1103 584 1103 584 1103 696 c 0,31,32
EndSplineSet
EndChar

StartChar: E
Encoding: 40 69 40
Width: 1253
VWidth: 1024
Flags: W
LayerCount: 2
Fore
SplineSet
54 0 m 0,0,-1
 54 106 l 0,1,-1
 170 118 l 0,2,3
 188 120 188 120 203 132 c 0,4,5
 218 144 218 144 218 164 c 0,6,-1
 218 1243 l 0,7,8
 218 1263 218 1263 203 1276 c 0,9,10
 188 1288 188 1288 170 1290 c 0,11,-1
 54 1300 l 0,12,-1
 54 1407 l 0,13,-1
 1124 1407 l 0,14,-1
 1124 1072 l 0,15,-1
 973 1072 l 0,16,-1
 940 1246 l 0,17,18
 936 1261 936 1261 926 1273 c 0,19,20
 916 1285 916 1285 902 1285 c 0,21,-1
 512 1285 l 0,22,-1
 512 793 l 0,23,-1
 761 793 l 0,24,25
 775 793 775 793 785 806 c 0,26,27
 795 819 795 819 797 830 c 0,28,-1
 816 973 l 0,29,-1
 946 973 l 0,30,-1
 946 480 l 0,31,-1
 816 480 l 0,32,-1
 797 623 l 0,33,34
 795 634 795 634 785 647 c 0,35,36
 775 660 775 660 761 660 c 0,37,-1
 512 660 l 0,38,-1
 512 126 l 0,39,-1
 969 126 l 0,40,41
 982 126 982 126 993 140 c 0,42,43
 1004 154 1004 154 1007 166 c 0,44,-1
 1038 384 l 0,45,-1
 1191 384 l 0,46,-1
 1191 0 l 0,47,-1
 54 0 l 0,0,-1
EndSplineSet
EndChar

StartChar: F
Encoding: 41 70 41
Width: 1171
VWidth: 1024
Flags: W
LayerCount: 2
Fore
SplineSet
965 1049 m 0,0,-1
 935 1239 l 0,1,2
 932 1255 932 1255 922 1267 c 0,3,4
 912 1279 912 1279 898 1279 c 0,5,-1
 518 1279 l 0,6,-1
 518 763 l 0,7,-1
 778 763 l 0,8,9
 792 763 792 763 802 776 c 0,10,11
 812 789 812 789 814 801 c 0,12,-1
 835 944 l 0,13,-1
 965 944 l 0,14,-1
 965 449 l 0,15,-1
 835 449 l 0,16,-1
 814 592 l 0,17,18
 812 603 812 603 801 616 c 0,19,20
 790 629 790 629 778 629 c 0,21,-1
 518 629 l 0,22,-1
 518 164 l 0,23,24
 518 144 518 144 531 132 c 0,25,26
 544 120 544 120 564 118 c 0,27,-1
 700 106 l 0,28,-1
 700 0 l 0,29,-1
 56 0 l 0,30,-1
 56 106 l 0,31,-1
 170 118 l 0,32,33
 188 120 188 120 203 132 c 0,34,35
 218 144 218 144 218 164 c 0,36,-1
 218 1243 l 0,37,38
 218 1263 218 1263 203 1276 c 0,39,40
 188 1288 188 1288 170 1290 c 0,41,-1
 50 1300 l 0,42,-1
 50 1407 l 0,43,-1
 1116 1407 l 0,44,-1
 1116 1049 l 0,45,-1
 965 1049 l 0,0,-1
EndSplineSet
EndChar

StartChar: G
Encoding: 42 71 42
Width: 1501
VWidth: 1024
Flags: W
LayerCount: 2
Fore
SplineSet
1347 579 m 0,0,1
 1328 577 1328 577 1313 565 c 0,2,3
 1299 553 1299 553 1298 532 c 0,4,-1
 1298 65 l 0,5,6
 1236 37 1236 37 1160 15 c 0,7,8
 1094 -3 1094 -3 1006 -18 c 0,9,10
 917 -33 917 -33 812 -34 c 0,11,12
 654 -34 654 -34 520 19 c 0,13,14
 386 72 386 72 288 169 c 0,15,16
 190 266 190 266 134 402 c 0,17,18
 78 538 78 538 78 707 c 0,19,20
 78 877 78 877 134 1013 c 0,21,22
 190 1149 190 1149 290 1244 c 0,23,24
 390 1339 390 1339 528 1390 c 0,25,26
 666 1441 666 1441 828 1441 c 0,27,28
 931 1441 931 1441 1018 1428 c 0,29,30
 1104 1415 1104 1415 1167 1400 c 0,31,32
 1241 1382 1241 1382 1300 1359 c 0,33,-1
 1300 996 l 0,34,-1
 1137 996 l 0,35,-1
 1095 1223 l 0,36,37
 1093 1234 1093 1234 1081 1248 c 0,38,39
 1070 1262 1070 1262 1057 1267 c 0,40,41
 1008 1285 1008 1285 966 1294 c 0,42,43
 924 1303 924 1303 906 1303 c 0,44,45
 815 1303 815 1303 742 1279 c 0,46,47
 669 1256 669 1256 613 1216 c 0,48,49
 557 1176 557 1176 517 1120 c 0,50,51
 477 1065 477 1065 452 999 c 0,52,53
 426 933 426 933 414 862 c 0,54,55
 402 790 402 790 402 715 c 0,56,57
 402 580 402 580 436 471 c 0,58,59
 470 362 470 362 535 284 c 0,60,61
 600 207 600 207 695 165 c 0,62,63
 790 124 790 124 914 124 c 0,64,65
 928 124 928 124 950 122 c 0,66,67
 971 120 971 120 1009 124 c 0,68,-1
 1009 532 l 0,69,70
 1009 552 1009 552 994 566 c 0,71,72
 980 579 980 579 961 579 c 0,73,-1
 820 589 l 0,74,-1
 820 696 l 0,75,-1
 1453 696 l 0,76,-1
 1453 589 l 0,77,-1
 1347 579 l 0,0,1
EndSplineSet
EndChar

StartChar: H
Encoding: 43 72 43
Width: 1611
VWidth: 1024
Flags: W
LayerCount: 2
Fore
SplineSet
940 0 m 0,0,-1
 940 106 l 0,1,-1
 1049 118 l 0,2,3
 1068 120 1068 120 1081 132 c 0,4,5
 1094 144 1094 144 1095 164 c 0,6,-1
 1095 671 l 0,7,-1
 518 671 l 0,8,-1
 518 164 l 0,9,10
 518 144 518 144 531 132 c 0,11,12
 544 120 544 120 564 118 c 0,13,-1
 675 106 l 0,14,-1
 675 0 l 0,15,-1
 62 0 l 0,16,-1
 62 106 l 0,17,-1
 172 118 l 0,18,19
 191 120 191 120 205 132 c 0,20,21
 218 144 218 144 218 164 c 0,22,-1
 218 1243 l 0,23,24
 218 1263 218 1263 205 1276 c 0,25,26
 192 1288 192 1288 172 1290 c 0,27,-1
 62 1300 l 0,28,-1
 62 1407 l 0,29,-1
 675 1407 l 0,30,-1
 675 1300 l 0,31,-1
 564 1290 l 0,32,33
 545 1288 545 1288 531 1276 c 0,34,35
 518 1264 518 1264 518 1243 c 0,36,-1
 518 805 l 0,37,-1
 1095 805 l 0,38,-1
 1095 1243 l 0,39,40
 1095 1263 1095 1263 1081 1276 c 0,41,42
 1068 1288 1068 1288 1049 1290 c 0,43,-1
 940 1300 l 0,44,-1
 940 1407 l 0,45,-1
 1549 1407 l 0,46,-1
 1549 1300 l 0,47,-1
 1441 1290 l 0,48,49
 1424 1288 1424 1288 1409 1276 c 0,50,51
 1395 1264 1395 1264 1395 1243 c 0,52,-1
 1395 164 l 0,53,54
 1395 144 1395 144 1408 132 c 0,55,56
 1421 120 1421 120 1441 118 c 0,57,-1
 1549 106 l 0,58,-1
 1549 0 l 0,59,-1
 940 0 l 0,0,-1
EndSplineSet
EndChar

StartChar: I
Encoding: 44 73 44
Width: 751
VWidth: 1024
Flags: W
LayerCount: 2
Fore
SplineSet
48 0 m 0,0,-1
 48 106 l 0,1,-1
 178 118 l 0,2,3
 197 120 197 120 211 132 c 0,4,5
 224 144 224 144 224 164 c 0,6,-1
 224 1243 l 0,7,8
 224 1263 224 1263 211 1276 c 0,9,10
 198 1288 198 1288 178 1290 c 0,11,-1
 48 1300 l 0,12,-1
 48 1407 l 0,13,-1
 702 1407 l 0,14,-1
 702 1300 l 0,15,-1
 572 1290 l 0,16,17
 555 1288 555 1288 540 1276 c 0,18,19
 525 1264 525 1264 524 1243 c 0,20,-1
 524 164 l 0,21,22
 524 144 524 144 540 132 c 0,23,24
 555 120 555 120 572 118 c 0,25,-1
 702 106 l 0,26,-1
 702 0 l 0,27,-1
 48 0 l 0,0,-1
EndSplineSet
EndChar

StartChar: J
Encoding: 45 74 45
Width: 1073
VWidth: 1024
Flags: W
LayerCount: 2
Fore
SplineSet
900 1290 m 0,0,1
 881 1288 881 1288 867 1276 c 0,2,3
 854 1264 854 1264 854 1243 c 0,4,-1
 854 508 l 0,5,6
 854 386 854 386 825 287 c 0,7,8
 796 188 796 188 737 116 c 0,9,10
 677 44 677 44 584 5 c 0,11,12
 491 -34 491 -34 362 -34 c 0,13,14
 319 -34 319 -34 274 -28 c 0,15,16
 229 -22 229 -22 188 -13 c 0,17,18
 147 -4 147 -4 111 6 c 0,19,20
 75 16 75 16 50 26 c 0,21,-1
 50 409 l 0,22,-1
 214 409 l 0,23,-1
 262 128 l 0,24,25
 265 118 265 118 272 110 c 0,26,27
 278 103 278 103 289 97 c 0,28,29
 299 92 299 92 316 92 c 0,30,31
 374 92 374 92 419 114 c 0,32,33
 464 136 464 136 495 184 c 0,34,35
 526 233 526 233 541 314 c 0,36,37
 556 395 556 395 556 514 c 0,38,-1
 556 1243 l 0,39,40
 556 1263 556 1263 542 1276 c 0,41,42
 528 1288 528 1288 510 1290 c 0,43,-1
 380 1300 l 0,44,-1
 380 1407 l 0,45,-1
 1028 1407 l 0,46,-1
 1028 1300 l 0,47,-1
 900 1290 l 0,0,1
EndSplineSet
EndChar

StartChar: K
Encoding: 46 75 46
Width: 1429
VWidth: 1024
Flags: W
LayerCount: 2
Fore
SplineSet
975 0 m 0,0,-1
 975 78 l 0,1,-1
 633 614 l 0,2,-1
 518 614 l 0,3,-1
 518 164 l 0,4,5
 518 144 518 144 531 132 c 0,6,7
 544 120 544 120 564 118 c 0,8,-1
 675 106 l 0,9,-1
 675 0 l 0,10,-1
 60 0 l 0,11,-1
 60 106 l 0,12,-1
 172 118 l 0,13,14
 191 120 191 120 205 132 c 0,15,16
 218 144 218 144 218 164 c 0,17,-1
 218 1243 l 0,18,19
 218 1263 218 1263 205 1276 c 0,20,21
 192 1288 192 1288 172 1290 c 0,22,-1
 60 1300 l 0,23,-1
 60 1407 l 0,24,-1
 675 1407 l 0,25,-1
 675 1300 l 0,26,-1
 564 1290 l 0,27,28
 545 1288 545 1288 531 1276 c 0,29,30
 518 1264 518 1264 518 1243 c 0,31,-1
 518 715 l 0,32,-1
 577 715 l 0,33,-1
 1028 1265 l 0,34,35
 1033 1271 1033 1271 1031 1281 c 0,36,37
 1028 1291 1028 1291 1017 1290 c 0,38,-1
 898 1300 l 0,39,-1
 898 1407 l 0,40,-1
 1378 1407 l 0,41,-1
 1378 1300 l 0,42,43
 1355 1298 1355 1298 1330 1296 c 0,44,45
 1308 1294 1308 1294 1283 1292 c 0,46,47
 1257 1289 1257 1289 1231 1287 c 0,48,-1
 841 822 l 0,49,-1
 1281 120 l 0,50,-1
 1431 106 l 0,51,-1
 1431 0 l 0,52,-1
 975 0 l 0,0,-1
EndSplineSet
EndChar

StartChar: L
Encoding: 47 76 47
Width: 1161
VWidth: 1024
Flags: W
LayerCount: 2
Fore
SplineSet
56 0 m 0,0,-1
 56 106 l 0,1,-1
 172 118 l 0,2,3
 191 120 191 120 205 132 c 0,4,5
 218 144 218 144 218 164 c 0,6,-1
 218 1243 l 0,7,8
 218 1263 218 1263 205 1276 c 0,9,10
 192 1288 192 1288 172 1290 c 0,11,-1
 56 1300 l 0,12,-1
 56 1407 l 0,13,-1
 682 1407 l 0,14,-1
 682 1300 l 0,15,-1
 564 1290 l 0,16,17
 545 1288 545 1288 531 1276 c 0,18,19
 518 1264 518 1264 518 1243 c 0,20,-1
 518 128 l 0,21,-1
 883 128 l 0,22,23
 894 128 894 128 903 133 c 0,24,25
 912 138 912 138 918 146 c 0,26,27
 925 154 925 154 928 162 c 0,28,29
 932 170 932 170 933 176 c 0,30,-1
 961 418 l 0,31,-1
 1128 418 l 0,32,-1
 1128 0 l 0,33,-1
 56 0 l 0,0,-1
EndSplineSet
EndChar

StartChar: M
Encoding: 48 77 48
Width: 1892
VWidth: 1024
Flags: W
LayerCount: 2
Fore
SplineSet
1225 0 m 0,0,-1
 1225 106 l 0,1,-1
 1327 118 l 0,2,3
 1344 120 1344 120 1359 132 c 0,4,5
 1373 144 1373 144 1373 164 c 0,6,-1
 1373 1265 l 0,7,-1
 952 0 l 0,8,-1
 791 0 l 0,9,-1
 378 1256 l 0,10,-1
 378 164 l 0,11,12
 378 144 378 144 392 132 c 0,13,14
 406 120 406 120 424 118 c 0,15,-1
 537 106 l 0,16,-1
 537 0 l 0,17,-1
 52 0 l 0,18,-1
 52 106 l 0,19,-1
 170 118 l 0,20,21
 188 120 188 120 203 132 c 0,22,23
 218 144 218 144 218 164 c 0,24,-1
 218 1243 l 0,25,26
 218 1263 218 1263 203 1276 c 0,27,28
 188 1288 188 1288 170 1290 c 0,29,-1
 52 1300 l 0,30,-1
 52 1407 l 0,31,-1
 654 1407 l 0,32,-1
 654 1349 l 0,33,-1
 950 451 l 0,34,-1
 1243 1349 l 0,35,-1
 1243 1407 l 0,36,-1
 1839 1407 l 0,37,-1
 1839 1300 l 0,38,-1
 1719 1290 l 0,39,40
 1701 1288 1701 1288 1687 1276 c 0,41,42
 1673 1264 1673 1264 1673 1243 c 0,43,-1
 1673 164 l 0,44,45
 1673 144 1673 144 1687 132 c 0,46,47
 1701 120 1701 120 1719 118 c 0,48,-1
 1839 106 l 0,49,-1
 1839 0 l 0,50,-1
 1225 0 l 0,0,-1
EndSplineSet
EndChar

StartChar: N
Encoding: 49 78 49
Width: 1560
VWidth: 1024
Flags: W
LayerCount: 2
Fore
SplineSet
1386 1290 m 0,0,1
 1369 1288 1369 1288 1355 1276 c 0,2,3
 1341 1264 1341 1264 1340 1243 c 0,4,-1
 1340 0 l 0,5,-1
 1084 0 l 0,6,-1
 378 1109 l 0,7,-1
 378 164 l 0,8,9
 378 144 378 144 392 132 c 0,10,11
 406 120 406 120 424 118 c 0,12,-1
 541 106 l 0,13,-1
 541 0 l 0,14,-1
 56 0 l 0,15,-1
 56 106 l 0,16,-1
 172 118 l 0,17,18
 191 120 191 120 205 132 c 0,19,20
 218 144 218 144 218 164 c 0,21,-1
 218 1243 l 0,22,23
 218 1263 218 1263 205 1276 c 0,24,25
 192 1288 192 1288 172 1290 c 0,26,-1
 58 1300 l 0,27,-1
 58 1407 l 0,28,-1
 577 1407 l 0,29,-1
 577 1351 l 0,30,-1
 1181 404 l 0,31,-1
 1181 1243 l 0,32,33
 1181 1263 1181 1263 1166 1276 c 0,34,35
 1151 1288 1151 1288 1133 1290 c 0,36,-1
 1013 1300 l 0,37,-1
 1013 1407 l 0,38,-1
 1499 1407 l 0,39,-1
 1499 1300 l 0,40,-1
 1386 1290 l 0,0,1
EndSplineSet
EndChar

StartChar: O
Encoding: 50 79 50
Width: 1585
VWidth: 1024
Flags: W
LayerCount: 2
Fore
SplineSet
1510 696 m 0,0,1
 1510 545 1510 545 1460 413 c 0,2,3
 1409 280 1409 280 1316 181 c 0,4,5
 1223 82 1223 82 1093 24 c 0,6,7
 963 -34 963 -34 805 -34 c 0,8,9
 648 -34 648 -34 515 16 c 0,10,11
 381 66 381 66 284 161 c 0,12,13
 187 256 187 256 133 395 c 0,14,15
 78 534 78 534 78 713 c 0,16,17
 78 868 78 868 126 1001 c 0,18,19
 174 1135 174 1135 265 1232 c 0,20,21
 356 1329 356 1329 487 1385 c 0,22,23
 619 1441 619 1441 786 1441 c 0,24,25
 895 1441 895 1441 991 1414 c 0,26,27
 1087 1387 1087 1387 1168 1338 c 0,28,29
 1248 1289 1248 1289 1312 1221 c 0,30,31
 1375 1153 1375 1153 1419 1070 c 0,32,33
 1463 987 1463 987 1487 892 c 0,34,35
 1510 797 1510 797 1510 696 c 0,0,1
1172 688 m 0,36,37
 1172 811 1172 811 1149 922 c 0,38,39
 1126 1033 1126 1033 1080 1117 c 0,40,41
 1034 1201 1034 1201 965 1251 c 0,42,43
 896 1301 896 1301 805 1300 c 0,44,45
 732 1300 732 1300 675 1276 c 0,46,47
 618 1251 618 1251 574 1209 c 0,48,49
 530 1167 530 1167 500 1109 c 0,50,51
 469 1052 469 1052 450 986 c 0,52,53
 431 920 431 920 421 848 c 0,54,55
 412 777 412 777 413 707 c 0,56,57
 413 632 413 632 422 558 c 0,58,59
 432 484 432 484 452 417 c 0,60,61
 471 349 471 349 502 291 c 0,62,63
 533 233 533 233 573 190 c 0,64,65
 614 148 614 148 667 123 c 0,66,67
 720 98 720 98 784 98 c 0,68,69
 854 98 854 98 910 123 c 0,70,71
 966 148 966 148 1010 191 c 0,72,73
 1053 234 1053 234 1083 292 c 0,74,75
 1114 349 1114 349 1134 415 c 0,76,77
 1154 481 1154 481 1163 550 c 0,78,79
 1172 620 1172 620 1172 688 c 0,36,37
EndSplineSet
EndChar

StartChar: P
Encoding: 51 80 51
Width: 1282
VWidth: 1024
Flags: W
LayerCount: 2
Fore
SplineSet
893 971 m 0,0,1
 893 1045 893 1045 874 1102 c 0,2,3
 856 1159 856 1159 822 1199 c 0,4,5
 788 1238 788 1238 741 1258 c 0,6,7
 694 1278 694 1278 636 1279 c 0,8,-1
 518 1279 l 0,9,-1
 518 646 l 0,10,11
 530 645 530 645 538 645 c 0,12,13
 546 644 546 644 551 644 c 0,14,-1
 574 644 l 0,15,16
 647 645 647 645 706 663 c 0,17,18
 765 680 765 680 806 719 c 0,19,20
 847 758 847 758 870 820 c 0,21,22
 893 882 893 882 893 971 c 0,0,1
1206 981 m 0,23,24
 1206 891 1206 891 1184 822 c 0,25,26
 1162 753 1162 753 1123 701 c 0,27,28
 1084 649 1084 649 1032 614 c 0,29,30
 979 579 979 579 918 557 c 0,31,32
 857 535 857 535 790 526 c 0,33,34
 723 516 723 516 656 516 c 0,35,36
 626 516 626 516 594 516 c 0,37,38
 561 515 561 515 518 520 c 0,39,-1
 518 164 l 0,40,41
 518 144 518 144 531 132 c 0,42,43
 544 120 544 120 564 118 c 0,44,-1
 696 106 l 0,45,-1
 696 0 l 0,46,-1
 54 0 l 0,47,-1
 54 106 l 0,48,-1
 170 118 l 0,49,50
 188 120 188 120 203 132 c 0,51,52
 218 144 218 144 218 164 c 0,53,-1
 218 1243 l 0,54,55
 218 1263 218 1263 203 1276 c 0,56,57
 188 1288 188 1288 170 1290 c 0,58,-1
 48 1300 l 0,59,-1
 48 1407 l 0,60,-1
 636 1407 l 0,61,62
 707 1407 707 1407 776 1401 c 0,63,64
 846 1395 846 1395 909 1379 c 0,65,66
 972 1362 972 1362 1027 1333 c 0,67,68
 1081 1304 1081 1304 1121 1256 c 0,69,70
 1161 1208 1161 1208 1184 1141 c 0,71,72
 1206 1073 1206 1073 1206 981 c 0,23,24
EndSplineSet
EndChar

StartChar: Q
Encoding: 52 81 52
Width: 1585
VWidth: 1024
Flags: W
LayerCount: 2
Fore
SplineSet
1441 -338 m 0,0,1
 1332 -363 1332 -363 1243 -374 c 0,2,3
 1154 -386 1154 -386 1069 -386 c 0,4,5
 956 -386 956 -386 877 -360 c 0,6,7
 797 -334 797 -334 746 -286 c 0,8,9
 696 -238 696 -238 673 -171 c 0,10,11
 649 -103 649 -103 648 -20 c 0,12,13
 521 3 521 3 416 61 c 0,14,15
 311 120 311 120 236 213 c 0,16,17
 161 306 161 306 119 432 c 0,18,19
 78 557 78 557 78 713 c 0,20,21
 78 868 78 868 126 1001 c 0,22,23
 174 1135 174 1135 265 1232 c 0,24,25
 356 1329 356 1329 487 1385 c 0,26,27
 619 1441 619 1441 786 1441 c 0,28,29
 895 1441 895 1441 991 1414 c 0,30,31
 1087 1387 1087 1387 1168 1338 c 0,32,33
 1248 1289 1248 1289 1312 1221 c 0,34,35
 1375 1153 1375 1153 1419 1070 c 0,36,37
 1463 987 1463 987 1487 892 c 0,38,39
 1511 797 1511 797 1510 696 c 0,40,41
 1510 565 1510 565 1471 447 c 0,42,43
 1432 329 1432 329 1361 235 c 0,44,45
 1289 140 1289 140 1187 75 c 0,46,47
 1085 9 1085 9 961 -16 c 0,48,49
 959 -73 959 -73 982 -117 c 0,50,51
 1005 -161 1005 -161 1044 -191 c 0,52,53
 1083 -221 1083 -221 1136 -237 c 0,54,55
 1189 -252 1189 -252 1246 -252 c 0,56,57
 1277 -252 1277 -252 1324 -247 c 0,58,59
 1371 -242 1371 -242 1441 -226 c 0,60,-1
 1441 -338 l 0,0,1
1172 688 m 0,61,62
 1172 811 1172 811 1149 922 c 0,63,64
 1126 1033 1126 1033 1080 1117 c 0,65,66
 1034 1201 1034 1201 965 1251 c 0,67,68
 896 1301 896 1301 805 1300 c 0,69,70
 732 1300 732 1300 675 1276 c 0,71,72
 618 1251 618 1251 574 1209 c 0,73,74
 530 1167 530 1167 500 1109 c 0,75,76
 469 1052 469 1052 450 986 c 0,77,78
 431 920 431 920 421 848 c 0,79,80
 412 777 412 777 413 707 c 0,81,82
 413 632 413 632 422 558 c 0,83,84
 432 484 432 484 452 417 c 0,85,86
 471 349 471 349 502 291 c 0,87,88
 533 233 533 233 573 190 c 0,89,90
 614 148 614 148 667 123 c 0,91,92
 720 98 720 98 784 98 c 0,93,94
 854 98 854 98 910 123 c 0,95,96
 966 148 966 148 1010 191 c 0,97,98
 1053 234 1053 234 1083 292 c 0,99,100
 1114 349 1114 349 1134 415 c 0,101,102
 1154 481 1154 481 1163 550 c 0,103,104
 1172 620 1172 620 1172 688 c 0,61,62
EndSplineSet
EndChar

StartChar: R
Encoding: 53 82 53
Width: 1476
VWidth: 1024
Flags: W
LayerCount: 2
Fore
SplineSet
898 1019 m 0,0,1
 898 1152 898 1152 818 1217 c 0,2,3
 738 1282 738 1282 585 1281 c 0,4,5
 577 1282 577 1282 565 1282 c 0,6,-1
 544 1282 l 0,7,8
 532 1282 532 1282 518 1281 c 0,9,-1
 518 744 l 0,10,11
 545 742 545 742 562 741 c 0,12,13
 579 740 579 740 587 740 c 0,14,15
 636 740 636 740 691 750 c 0,16,17
 746 760 746 760 792 790 c 0,18,19
 838 820 838 820 868 875 c 0,20,21
 898 930 898 930 898 1019 c 0,0,1
1477 0 m 0,22,23
 1407 -8 1407 -8 1357 -21 c 0,24,25
 1307 -34 1307 -34 1269 -34 c 0,26,27
 1168 -34 1168 -34 1100 -6 c 0,28,29
 1032 22 1032 22 988 68 c 0,30,31
 943 114 943 114 915 172 c 0,32,33
 887 230 887 230 866 291 c 0,34,35
 844 352 844 352 822 411 c 0,36,37
 800 469 800 469 768 515 c 0,38,39
 735 561 735 561 686 588 c 0,40,41
 637 616 637 616 560 616 c 0,42,-1
 518 616 l 0,43,-1
 518 164 l 0,44,45
 518 144 518 144 531 132 c 0,46,47
 544 120 544 120 564 118 c 0,48,-1
 680 106 l 0,49,-1
 680 0 l 0,50,-1
 58 0 l 0,51,-1
 58 106 l 0,52,-1
 170 118 l 0,53,54
 188 120 188 120 203 132 c 0,55,56
 218 144 218 144 218 164 c 0,57,-1
 218 1243 l 0,58,59
 218 1263 218 1263 203 1276 c 0,60,61
 188 1288 188 1288 170 1290 c 0,62,-1
 58 1300 l 0,63,-1
 58 1407 l 0,64,-1
 755 1407 l 0,65,66
 794 1407 794 1407 843 1402 c 0,67,68
 892 1397 892 1397 943 1383 c 0,69,70
 994 1369 994 1369 1042 1345 c 0,71,72
 1091 1320 1091 1320 1128 1282 c 0,73,74
 1166 1244 1166 1244 1189 1188 c 0,75,76
 1212 1133 1212 1133 1212 1059 c 0,77,78
 1212 988 1212 988 1193 935 c 0,79,80
 1174 882 1174 882 1143 842 c 0,81,82
 1112 803 1112 803 1073 776 c 0,83,84
 1034 749 1034 749 992 732 c 0,85,86
 951 715 951 715 913 706 c 0,87,88
 875 697 875 697 847 692 c 0,89,90
 916 679 916 679 964 653 c 0,91,92
 1012 627 1012 627 1044 592 c 0,93,94
 1077 557 1077 557 1098 516 c 0,95,96
 1119 475 1119 475 1134 432 c 0,97,98
 1149 388 1149 388 1161 345 c 0,99,100
 1173 302 1173 302 1188 263 c 0,101,102
 1203 224 1203 224 1224 192 c 0,103,104
 1245 160 1245 160 1278 138 c 0,105,106
 1311 116 1311 116 1359 107 c 0,107,108
 1407 98 1407 98 1477 106 c 0,109,-1
 1477 0 l 0,22,23
EndSplineSet
EndChar

StartChar: S
Encoding: 54 83 54
Width: 1124
VWidth: 1024
Flags: W
LayerCount: 2
Fore
SplineSet
1047 411 m 0,0,1
 1047 300 1047 300 1000 217 c 0,2,3
 954 134 954 134 877 78 c 0,4,5
 800 23 800 23 698 -6 c 0,6,7
 597 -34 597 -34 486 -34 c 0,8,9
 403 -34 403 -34 330 -22 c 0,10,11
 257 -10 257 -10 201 6 c 0,12,13
 135 23 135 23 78 46 c 0,14,-1
 78 430 l 0,15,-1
 244 430 l 0,16,-1
 279 176 l 0,17,18
 281 164 281 164 291 154 c 0,19,20
 301 144 301 144 306 144 c 0,21,22
 331 134 331 134 357 126 c 0,23,24
 381 119 381 119 410 114 c 0,25,26
 439 109 439 109 468 109 c 0,27,28
 514 109 514 109 562 120 c 0,29,30
 610 131 610 131 650 155 c 0,31,32
 689 179 689 179 714 216 c 0,33,34
 739 254 739 254 738 306 c 0,35,36
 738 372 738 372 708 419 c 0,37,38
 677 467 677 467 628 505 c 0,39,40
 579 543 579 543 517 576 c 0,41,42
 455 608 455 608 392 642 c 0,43,44
 337 672 337 672 285 706 c 0,45,46
 233 740 233 740 194 784 c 0,47,48
 154 828 154 828 130 885 c 0,49,50
 106 941 106 941 106 1015 c 0,51,52
 106 1117 106 1117 147 1197 c 0,53,54
 188 1276 188 1276 258 1330 c 0,55,56
 328 1384 328 1384 419 1413 c 0,57,58
 511 1441 511 1441 612 1441 c 0,59,60
 692 1441 692 1441 764 1427 c 0,61,62
 836 1414 836 1414 891 1399 c 0,63,64
 954 1381 954 1381 1009 1357 c 0,65,-1
 1009 1013 l 0,66,-1
 847 1013 l 0,67,-1
 812 1237 l 0,68,69
 811 1241 811 1241 806 1246 c 0,70,71
 801 1251 801 1251 797 1256 c 0,72,73
 791 1261 791 1261 782 1267 c 0,74,75
 771 1276 771 1276 753 1283 c 0,76,77
 738 1289 738 1289 714 1295 c 0,78,79
 690 1301 690 1301 656 1300 c 0,80,81
 604 1300 604 1300 558 1288 c 0,82,83
 511 1276 511 1276 476 1252 c 0,84,85
 441 1228 441 1228 419 1193 c 0,86,87
 398 1157 398 1157 398 1111 c 0,88,89
 398 1056 398 1056 422 1013 c 0,90,91
 446 971 446 971 485 937 c 0,92,93
 524 903 524 903 575 876 c 0,94,95
 626 848 626 848 682 820 c 0,96,97
 748 787 748 787 813 752 c 0,98,99
 878 716 878 716 930 669 c 0,100,101
 982 622 982 622 1014 560 c 0,102,103
 1047 498 1047 498 1047 411 c 0,0,1
EndSplineSet
EndChar

StartChar: T
Encoding: 55 84 55
Width: 1275
VWidth: 1024
Flags: W
LayerCount: 2
Fore
SplineSet
1091 1023 m 0,0,-1
 1053 1256 l 0,1,2
 1050 1281 1050 1281 1023 1281 c 0,3,-1
 788 1281 l 0,4,-1
 788 164 l 0,5,6
 788 144 788 144 802 132 c 0,7,8
 816 120 816 120 835 118 c 0,9,-1
 958 106 l 0,10,-1
 958 0 l 0,11,-1
 318 0 l 0,12,-1
 318 106 l 0,13,-1
 440 118 l 0,14,15
 459 120 459 120 474 132 c 0,16,17
 488 144 488 144 488 164 c 0,18,-1
 488 1281 l 0,19,-1
 254 1281 l 0,20,21
 225 1281 225 1281 222 1256 c 0,22,-1
 184 1023 l 0,23,-1
 34 1023 l 0,24,-1
 34 1407 l 0,25,-1
 1243 1407 l 0,26,-1
 1243 1023 l 0,27,-1
 1091 1023 l 0,0,-1
EndSplineSet
EndChar

StartChar: U
Encoding: 56 85 56
Width: 1527
VWidth: 1024
Flags: W
LayerCount: 2
Fore
SplineSet
1363 1290 m 0,0,1
 1346 1288 1346 1288 1331 1276 c 0,2,3
 1317 1264 1317 1264 1317 1243 c 0,4,-1
 1317 532 l 0,5,6
 1317 377 1317 377 1282 270 c 0,7,8
 1247 162 1247 162 1177 94 c 0,9,10
 1106 26 1106 26 998 -4 c 0,11,12
 890 -34 890 -34 742 -34 c 0,13,14
 472 -34 472 -34 340 111 c 0,15,16
 208 256 208 256 208 532 c 0,17,-1
 208 1243 l 0,18,19
 208 1263 208 1263 193 1276 c 0,20,21
 178 1288 178 1288 160 1290 c 0,22,-1
 46 1300 l 0,23,-1
 46 1407 l 0,24,-1
 667 1407 l 0,25,-1
 667 1300 l 0,26,-1
 554 1290 l 0,27,28
 537 1288 537 1288 522 1276 c 0,29,30
 508 1264 508 1264 508 1243 c 0,31,-1
 508 516 l 0,32,33
 508 319 508 319 591 230 c 0,34,35
 674 140 674 140 847 140 c 0,36,37
 930 140 930 140 988 167 c 0,38,39
 1046 194 1046 194 1084 244 c 0,40,41
 1122 293 1122 293 1140 362 c 0,42,43
 1157 431 1157 431 1157 516 c 0,44,-1
 1157 1243 l 0,45,46
 1157 1263 1157 1263 1144 1276 c 0,47,48
 1131 1288 1131 1288 1111 1290 c 0,49,-1
 992 1300 l 0,50,-1
 992 1407 l 0,51,-1
 1475 1407 l 0,52,-1
 1475 1300 l 0,53,-1
 1363 1290 l 0,0,1
EndSplineSet
EndChar

StartChar: V
Encoding: 57 86 57
Width: 1480
VWidth: 1024
Flags: W
LayerCount: 2
Fore
SplineSet
1327 1283 m 0,0,-1
 845 -34 l 0,1,-1
 646 -34 l 0,2,-1
 156 1281 l 0,3,-1
 20 1300 l 0,4,-1
 20 1407 l 0,5,-1
 618 1407 l 0,6,-1
 618 1300 l 0,7,-1
 501 1285 l 0,8,9
 483 1282 483 1282 479 1267 c 0,10,11
 475 1252 475 1252 480 1239 c 0,12,-1
 812 327 l 0,13,-1
 1133 1241 l 0,14,15
 1136 1254 1136 1254 1131 1268 c 0,16,17
 1126 1282 1126 1282 1103 1285 c 0,18,-1
 990 1300 l 0,19,-1
 990 1407 l 0,20,-1
 1459 1407 l 0,21,-1
 1459 1300 l 0,22,-1
 1327 1283 l 0,0,-1
EndSplineSet
EndChar

StartChar: W
Encoding: 58 87 58
Width: 2025
VWidth: 1024
Flags: W
LayerCount: 2
Fore
SplineSet
1877 1283 m 0,0,-1
 1547 -34 l 0,1,-1
 1349 -34 l 0,2,-1
 1021 1057 l 0,3,-1
 700 -34 l 0,4,-1
 499 -34 l 0,5,-1
 148 1283 l 0,6,-1
 20 1300 l 0,7,-1
 20 1407 l 0,8,-1
 592 1407 l 0,9,-1
 592 1300 l 0,10,-1
 468 1287 l 0,11,12
 449 1285 449 1285 447 1271 c 0,13,14
 445 1257 445 1257 449 1243 c 0,15,-1
 671 413 l 0,16,-1
 965 1407 l 0,17,-1
 1191 1407 l 0,18,-1
 1495 390 l 0,19,-1
 1705 1243 l 0,20,21
 1708 1256 1708 1256 1703 1270 c 0,22,23
 1698 1284 1698 1284 1675 1287 c 0,24,-1
 1541 1300 l 0,25,-1
 1541 1407 l 0,26,-1
 2005 1407 l 0,27,-1
 2005 1300 l 0,28,-1
 1877 1283 l 0,0,-1
EndSplineSet
EndChar

StartChar: X
Encoding: 59 88 59
Width: 1406
VWidth: 1024
Flags: W
LayerCount: 2
Fore
SplineSet
757 0 m 0,0,-1
 757 106 l 0,1,-1
 885 116 l 0,2,3
 899 118 899 118 904 132 c 0,4,5
 909 146 909 146 895 166 c 0,6,-1
 660 535 l 0,7,-1
 378 168 l 0,8,9
 370 159 370 159 369 150 c 0,10,11
 368 141 368 141 371 134 c 0,12,13
 374 127 374 127 379 123 c 0,14,15
 385 119 385 119 390 118 c 0,16,-1
 516 106 l 0,17,-1
 516 0 l 0,18,-1
 20 0 l 0,19,-1
 20 106 l 0,20,-1
 156 124 l 0,21,-1
 572 671 l 0,22,-1
 180 1281 l 0,23,-1
 48 1300 l 0,24,-1
 48 1407 l 0,25,-1
 663 1407 l 0,26,-1
 663 1300 l 0,27,-1
 552 1290 l 0,28,29
 541 1290 541 1290 535 1275 c 0,30,31
 529 1260 529 1260 541 1239 c 0,32,-1
 751 908 l 0,33,-1
 1009 1241 l 0,34,35
 1023 1258 1023 1258 1017 1275 c 0,36,37
 1011 1292 1011 1292 996 1292 c 0,38,-1
 885 1300 l 0,39,-1
 885 1407 l 0,40,-1
 1363 1407 l 0,41,-1
 1363 1300 l 0,42,-1
 1231 1281 l 0,43,-1
 839 772 l 0,44,-1
 1254 124 l 0,45,-1
 1386 106 l 0,46,-1
 1386 0 l 0,47,-1
 757 0 l 0,0,-1
EndSplineSet
EndChar

StartChar: Y
Encoding: 60 89 60
Width: 1390
VWidth: 1024
Flags: W
LayerCount: 2
Fore
SplineSet
1248 1281 m 0,0,-1
 860 608 l 0,1,-1
 860 164 l 0,2,3
 860 144 860 144 873 132 c 0,4,5
 886 120 886 120 906 118 c 0,6,-1
 1034 106 l 0,7,-1
 1034 0 l 0,8,-1
 384 0 l 0,9,-1
 384 106 l 0,10,-1
 512 118 l 0,11,12
 529 120 529 120 545 132 c 0,13,14
 560 144 560 144 560 164 c 0,15,-1
 560 550 l 0,16,-1
 156 1281 l 0,17,-1
 20 1300 l 0,18,-1
 20 1407 l 0,19,-1
 616 1407 l 0,20,-1
 616 1300 l 0,21,-1
 506 1290 l 0,22,23
 495 1290 495 1290 489 1275 c 0,24,25
 483 1260 483 1260 495 1239 c 0,26,-1
 759 742 l 0,27,-1
 1044 1241 l 0,28,29
 1055 1260 1055 1260 1052 1276 c 0,30,31
 1048 1292 1048 1292 1034 1292 c 0,32,-1
 906 1300 l 0,33,-1
 906 1407 l 0,34,-1
 1369 1407 l 0,35,-1
 1369 1300 l 0,36,-1
 1248 1281 l 0,0,-1
EndSplineSet
EndChar

StartChar: Z
Encoding: 61 90 61
Width: 1218
VWidth: 1024
Flags: W
LayerCount: 2
Fore
SplineSet
78 0 m 0,0,-1
 78 124 l 0,1,-1
 797 1279 l 0,2,-1
 334 1279 l 0,3,4
 307 1279 307 1279 304 1254 c 0,5,-1
 266 1025 l 0,6,-1
 114 1025 l 0,7,-1
 114 1407 l 0,8,-1
 1130 1407 l 0,9,-1
 1130 1283 l 0,10,-1
 413 130 l 0,11,-1
 914 130 l 0,12,13
 940 130 940 130 946 154 c 0,14,-1
 988 413 l 0,15,-1
 1141 413 l 0,16,-1
 1141 0 l 0,17,-1
 78 0 l 0,0,-1
EndSplineSet
EndChar

StartChar: bracketleft
Encoding: 62 91 62
Width: 1148
VWidth: 1024
Flags: W
LayerCount: 2
Fore
SplineSet
492 -276 m 0,0,-1
 492 1485 l 0,1,-1
 1073 1485 l 0,2,-1
 1073 1359 l 0,3,-1
 752 1359 l 0,4,-1
 752 -156 l 0,5,-1
 1073 -156 l 0,6,-1
 1073 -276 l 0,7,-1
 492 -276 l 0,0,-1
EndSplineSet
EndChar

StartChar: backslash
Encoding: 63 92 63
Width: 1036
VWidth: 1024
Flags: W
LayerCount: 2
Fore
SplineSet
872 -195 m 0,0,-1
 0 1407 l 0,1,-1
 164 1407 l 0,2,-1
 1036 -195 l 0,3,-1
 872 -195 l 0,0,-1
EndSplineSet
EndChar

StartChar: bracketright
Encoding: 64 93 64
Width: 1234
VWidth: 1024
Flags: W
LayerCount: 2
Fore
SplineSet
76 -276 m 0,0,-1
 76 -156 l 0,1,-1
 396 -156 l 0,2,-1
 396 1359 l 0,3,-1
 76 1359 l 0,4,-1
 76 1485 l 0,5,-1
 656 1485 l 0,6,-1
 656 -276 l 0,7,-1
 76 -276 l 0,0,-1
EndSplineSet
EndChar

StartChar: asciicircum
Encoding: 65 94 65
Width: 712
VWidth: 1024
Flags: W
LayerCount: 2
Fore
SplineSet
754 578 m 0,0,-1
 663 677 l 0,1,-1
 571 578 l 0,2,-1
 484 578 l 0,3,-1
 601 757 l 0,4,-1
 724 757 l 0,5,-1
 841 578 l 0,6,-1
 754 578 l 0,0,-1
EndSplineSet
EndChar

StartChar: underscore
Encoding: 66 95 66
Width: 712
VWidth: 1024
Flags: W
LayerCount: 2
Fore
SplineSet
0 -348 m 0,0,-1
 0 -179 l 0,1,-1
 713 -179 l 0,2,-1
 713 -348 l 0,3,-1
 0 -348 l 0,0,-1
EndSplineSet
EndChar

StartChar: grave
Encoding: 67 96 67
Width: 784
VWidth: 1024
Flags: W
LayerCount: 2
Fore
SplineSet
669 578 m 0,0,-1
 499 670 l 0,1,2
 493 673 493 673 488 679 c 0,3,4
 483 684 483 684 480 690 c 0,5,6
 476 696 476 696 475 703 c 0,7,8
 473 709 473 709 473 714 c 0,9,10
 473 723 473 723 476 733 c 0,11,12
 479 743 479 743 486 751 c 0,13,14
 493 759 493 759 504 764 c 0,15,16
 516 769 516 769 532 770 c 0,17,18
 543 770 543 770 551 768 c 0,19,20
 559 766 559 766 567 763 c 0,21,22
 574 759 574 759 582 752 c 0,23,24
 589 746 589 746 599 736 c 0,25,-1
 742 578 l 0,26,-1
 669 578 l 0,0,-1
EndSplineSet
EndChar

StartChar: a
Encoding: 68 97 68
Width: 1159
VWidth: 1024
Flags: W
LayerCount: 2
Fore
SplineSet
707 541 m 0,0,1
 606 521 606 521 539 499 c 0,2,3
 473 477 473 477 434 450 c 0,4,5
 395 422 395 422 380 387 c 0,6,7
 365 352 365 352 365 304 c 0,8,9
 365 271 365 271 375 243 c 0,10,11
 386 215 386 215 406 194 c 0,12,13
 426 173 426 173 454 161 c 0,14,15
 482 149 482 149 514 148 c 0,16,17
 548 148 548 148 582 156 c 0,18,19
 616 163 616 163 644 171 c 0,20,21
 677 181 677 181 707 195 c 0,22,-1
 707 541 l 0,0,1
734 0 m 0,23,-1
 707 104 l 0,24,25
 653 67 653 67 593 39 c 0,26,27
 541 14 541 14 476 -6 c 0,28,29
 411 -26 411 -26 342 -26 c 0,30,31
 285 -26 285 -26 235 -7 c 0,32,33
 185 12 185 12 148 48 c 0,34,35
 111 83 111 83 89 133 c 0,36,37
 67 183 67 183 68 246 c 0,38,39
 68 293 68 293 75 333 c 0,40,41
 83 373 83 373 106 407 c 0,42,43
 129 441 129 441 172 473 c 0,44,45
 215 504 215 504 286 534 c 0,46,47
 357 564 357 564 461 593 c 0,48,49
 564 623 564 623 709 654 c 0,50,-1
 709 680 l 0,51,52
 709 695 709 695 710 708 c 0,53,54
 710 722 710 722 711 736 c 0,55,56
 712 766 712 766 705 800 c 0,57,58
 698 834 698 834 676 864 c 0,59,60
 654 893 654 893 615 912 c 0,61,62
 576 931 576 931 514 931 c 0,63,64
 492 931 492 931 476 930 c 0,65,66
 459 929 459 929 447 927 c 0,67,68
 434 925 434 925 424 923 c 0,69,-1
 424 724 l 0,70,-1
 208 724 l 0,71,72
 181 722 181 722 161 729 c 0,73,74
 144 735 144 735 129 751 c 0,75,76
 114 766 114 766 114 799 c 0,77,78
 114 857 114 857 155 903 c 0,79,80
 196 949 196 949 264 982 c 0,81,82
 331 1014 331 1014 414 1031 c 0,83,84
 497 1048 497 1048 581 1049 c 0,85,86
 671 1049 671 1049 745 1035 c 0,87,88
 820 1022 820 1022 874 984 c 0,89,90
 928 946 928 946 957 876 c 0,91,92
 986 806 986 806 986 692 c 0,93,-1
 986 154 l 0,94,95
 986 135 986 135 999 120 c 0,96,97
 1012 106 1012 106 1032 104 c 0,98,-1
 1124 98 l 0,99,-1
 1124 0 l 0,100,-1
 734 0 l 0,23,-1
EndSplineSet
EndChar

StartChar: b
Encoding: 69 98 69
Width: 1253
VWidth: 1024
Flags: W
LayerCount: 2
Fore
SplineSet
883 512 m 0,0,1
 883 597 883 597 863 664 c 0,2,3
 844 731 844 731 806 778 c 0,4,5
 768 825 768 825 711 850 c 0,6,7
 654 875 654 875 581 874 c 0,8,9
 562 874 562 874 542 872 c 0,10,11
 523 870 523 870 507 868 c 0,12,-1
 470 862 l 0,13,-1
 470 118 l 0,14,15
 488 118 488 118 496 117 c 0,16,17
 504 116 504 116 514 116 c 0,18,19
 601 116 601 116 670 136 c 0,20,21
 739 156 739 156 785 202 c 0,22,23
 832 249 832 249 858 325 c 0,24,25
 883 400 883 400 883 512 c 0,0,1
1187 574 m 0,26,27
 1187 453 1187 453 1146 349 c 0,28,29
 1105 244 1105 244 1027 166 c 0,30,31
 949 89 949 89 834 45 c 0,32,33
 720 0 720 0 572 0 c 0,34,-1
 188 0 l 0,35,-1
 188 1361 l 0,36,-1
 42 1361 l 0,37,-1
 42 1447 l 0,38,-1
 362 1552 l 0,39,-1
 470 1552 l 0,40,-1
 470 952 l 0,41,42
 514 979 514 979 563 1000 c 0,43,44
 606 1017 606 1017 660 1033 c 0,45,46
 714 1048 714 1048 774 1049 c 0,47,48
 858 1049 858 1049 933 1017 c 0,49,50
 1008 985 1008 985 1065 924 c 0,51,52
 1121 863 1121 863 1154 775 c 0,53,54
 1187 687 1187 687 1187 574 c 0,26,27
EndSplineSet
EndChar

StartChar: c
Encoding: 70 99 70
Width: 1052
VWidth: 1024
Flags: W
LayerCount: 2
Fore
SplineSet
988 92 m 0,0,1
 961 80 961 80 923 60 c 0,2,3
 885 41 885 41 834 22 c 0,4,5
 783 3 783 3 719 -12 c 0,6,7
 654 -26 654 -26 574 -26 c 0,8,9
 451 -26 451 -26 357 16 c 0,10,11
 263 58 263 58 199 130 c 0,12,13
 134 201 134 201 101 294 c 0,14,15
 68 387 68 387 68 490 c 0,16,17
 68 614 68 614 110 717 c 0,18,19
 152 820 152 820 226 894 c 0,20,21
 299 968 299 968 397 1008 c 0,22,23
 495 1048 495 1048 608 1049 c 0,24,25
 691 1049 691 1049 758 1032 c 0,26,27
 825 1015 825 1015 872 984 c 0,28,29
 920 953 920 953 945 911 c 0,30,31
 971 869 971 869 971 818 c 0,32,33
 971 782 971 782 958 754 c 0,34,35
 945 725 945 725 925 704 c 0,36,37
 905 683 905 683 878 672 c 0,38,39
 851 661 851 661 822 660 c 0,40,41
 789 660 789 660 767 665 c 0,42,43
 745 669 745 669 730 675 c 0,44,45
 715 682 715 682 703 690 c 0,46,47
 692 698 692 698 682 705 c 0,48,-1
 682 940 l 0,49,50
 669 940 669 940 661 941 c 0,51,52
 653 942 653 942 642 942 c 0,53,54
 594 942 594 942 546 918 c 0,55,56
 498 893 498 893 461 844 c 0,57,58
 423 795 423 795 399 722 c 0,59,60
 375 649 375 649 376 552 c 0,61,62
 376 460 376 460 398 386 c 0,63,64
 420 312 420 312 461 259 c 0,65,66
 502 207 502 207 561 179 c 0,67,68
 620 151 620 151 694 151 c 0,69,70
 742 151 742 151 791 164 c 0,71,72
 839 177 839 177 879 195 c 0,73,74
 919 212 919 212 949 229 c 0,75,76
 978 246 978 246 988 254 c 0,77,-1
 988 92 l 0,0,1
EndSplineSet
EndChar

StartChar: d
Encoding: 71 100 71
Width: 1275
VWidth: 1024
Flags: W
LayerCount: 2
Fore
SplineSet
810 0 m 0,0,-1
 810 122 l 0,1,2
 798 116 798 116 766 92 c 0,3,4
 734 68 734 68 689 41 c 0,5,6
 644 15 644 15 590 -5 c 0,7,8
 536 -25 536 -25 478 -26 c 0,9,10
 382 -26 382 -26 306 13 c 0,11,12
 230 52 230 52 177 121 c 0,13,14
 124 190 124 190 96 284 c 0,15,16
 68 378 68 378 68 488 c 0,17,18
 68 623 68 623 109 728 c 0,19,20
 150 832 150 832 222 904 c 0,21,22
 295 975 295 975 395 1012 c 0,23,24
 495 1049 495 1049 614 1049 c 0,25,26
 644 1049 644 1049 678 1044 c 0,27,28
 712 1040 712 1040 742 1035 c 0,29,30
 776 1030 776 1030 810 1023 c 0,31,-1
 810 1361 l 0,32,-1
 654 1361 l 0,33,-1
 654 1447 l 0,34,-1
 981 1552 l 0,35,-1
 1089 1552 l 0,36,-1
 1089 154 l 0,37,38
 1089 135 1089 135 1102 120 c 0,39,40
 1115 106 1115 106 1135 104 c 0,41,-1
 1223 98 l 0,42,-1
 1223 0 l 0,43,-1
 810 0 l 0,0,-1
810 885 m 0,44,45
 785 895 785 895 759 903 c 0,46,47
 736 910 736 910 710 916 c 0,48,49
 684 922 684 922 660 923 c 0,50,51
 587 923 587 923 534 893 c 0,52,53
 480 863 480 863 444 811 c 0,54,55
 409 759 409 759 391 688 c 0,56,57
 374 617 374 617 374 537 c 0,58,59
 374 454 374 454 391 386 c 0,60,61
 408 318 408 318 441 270 c 0,62,63
 475 221 475 221 526 195 c 0,64,65
 577 168 577 168 646 168 c 0,66,67
 675 168 675 168 704 174 c 0,68,69
 733 180 733 180 757 187 c 0,70,71
 785 196 785 196 810 208 c 0,72,-1
 810 885 l 0,44,45
EndSplineSet
EndChar

StartChar: e
Encoding: 72 101 72
Width: 1107
VWidth: 1024
Flags: W
LayerCount: 2
Fore
SplineSet
1044 98 m 0,0,1
 990 62 990 62 923 36 c 0,2,3
 865 12 865 12 783 -7 c 0,4,5
 702 -26 702 -26 602 -26 c 0,6,7
 468 -26 468 -26 368 15 c 0,8,9
 268 56 268 56 201 127 c 0,10,11
 134 198 134 198 101 294 c 0,12,13
 68 389 68 389 68 499 c 0,14,15
 68 618 68 618 105 718 c 0,16,17
 142 819 142 819 211 892 c 0,18,19
 280 965 280 965 378 1007 c 0,20,21
 476 1048 476 1048 596 1049 c 0,22,23
 719 1049 719 1049 804 1008 c 0,24,25
 890 968 890 968 943 901 c 0,26,27
 996 834 996 834 1020 748 c 0,28,29
 1044 662 1044 662 1044 570 c 0,30,-1
 1044 520 l 0,31,-1
 356 520 l 0,32,33
 356 434 356 434 378 366 c 0,34,35
 400 297 400 297 441 249 c 0,36,37
 482 201 482 201 543 175 c 0,38,39
 603 149 603 149 680 148 c 0,40,41
 760 148 760 148 826 166 c 0,42,43
 892 184 892 184 941 207 c 0,44,45
 997 234 997 234 1044 266 c 0,46,-1
 1044 98 l 0,0,1
744 684 m 0,47,48
 744 734 744 734 735 778 c 0,49,50
 726 822 726 822 705 855 c 0,51,52
 684 887 684 887 651 906 c 0,53,54
 618 925 618 925 572 925 c 0,55,56
 514 925 514 925 475 899 c 0,57,58
 436 873 436 873 411 831 c 0,59,60
 387 790 387 790 377 738 c 0,61,62
 367 687 367 687 367 638 c 0,63,-1
 744 638 l 0,64,-1
 744 684 l 0,47,48
EndSplineSet
EndChar

StartChar: f
Encoding: 73 102 73
Width: 727
VWidth: 1024
Flags: W
LayerCount: 2
Fore
SplineSet
881 1384 m 0,0,1
 881 1359 881 1359 870 1338 c 0,2,3
 859 1316 859 1316 841 1299 c 0,4,5
 823 1281 823 1281 800 1268 c 0,6,7
 776 1255 776 1255 751 1246 c 0,8,-1
 543 1441 l 0,9,10
 528 1417 528 1417 515 1391 c 0,11,12
 502 1365 502 1365 494 1329 c 0,13,14
 486 1293 486 1293 481 1242 c 0,15,16
 476 1192 476 1192 476 1120 c 0,17,-1
 476 998 l 0,18,-1
 705 998 l 0,19,-1
 705 864 l 0,20,-1
 478 864 l 0,21,-1
 478 154 l 0,22,23
 478 135 478 135 491 119 c 0,24,25
 504 104 504 104 524 104 c 0,26,-1
 652 98 l 0,27,-1
 652 0 l 0,28,-1
 44 0 l 0,29,-1
 44 98 l 0,30,-1
 151 104 l 0,31,32
 170 106 170 106 184 120 c 0,33,34
 198 134 198 134 198 154 c 0,35,-1
 198 864 l 0,36,-1
 60 864 l 0,37,-1
 60 948 l 0,38,-1
 195 1017 l 0,39,40
 195 1100 195 1100 218 1174 c 0,41,42
 241 1248 241 1248 286 1317 c 0,43,44
 317 1368 317 1368 358 1411 c 0,45,46
 399 1454 399 1454 450 1486 c 0,47,48
 500 1518 500 1518 558 1535 c 0,49,50
 616 1552 616 1552 680 1552 c 0,51,52
 711 1552 711 1552 746 1543 c 0,53,54
 781 1533 781 1533 812 1513 c 0,55,56
 842 1493 842 1493 861 1461 c 0,57,58
 881 1428 881 1428 881 1384 c 0,0,1
EndSplineSet
EndChar

StartChar: g
Encoding: 74 103 74
Width: 1163
VWidth: 1024
Flags: W
LayerCount: 2
Fore
SplineSet
961 860 m 0,0,1
 972 837 972 837 981 812 c 0,2,3
 989 789 989 789 996 761 c 0,4,5
 1003 733 1003 733 1002 700 c 0,6,7
 1002 629 1002 629 979 576 c 0,8,9
 955 522 955 522 916 483 c 0,10,11
 877 444 877 444 825 417 c 0,12,13
 774 390 774 390 718 375 c 0,14,15
 662 360 662 360 606 354 c 0,16,17
 550 349 550 349 501 352 c 0,18,19
 483 340 483 340 467 327 c 0,20,21
 452 314 452 314 444 298 c 0,22,23
 436 283 436 283 436 266 c 0,24,25
 435 249 435 249 444 226 c 0,26,27
 616 212 616 212 738 186 c 0,28,29
 859 160 859 160 936 123 c 0,30,31
 1013 85 1013 85 1048 33 c 0,32,33
 1083 -19 1083 -19 1082 -84 c 0,34,35
 1082 -144 1082 -144 1059 -198 c 0,36,37
 1036 -251 1036 -251 996 -295 c 0,38,39
 956 -340 956 -340 902 -375 c 0,40,41
 848 -410 848 -410 785 -435 c 0,42,43
 722 -459 722 -459 653 -472 c 0,44,45
 584 -485 584 -485 516 -484 c 0,46,47
 433 -484 433 -484 353 -465 c 0,48,49
 273 -446 273 -446 209 -407 c 0,50,51
 146 -367 146 -367 106 -305 c 0,52,53
 67 -244 67 -244 68 -160 c 0,54,55
 68 -94 68 -94 92 -51 c 0,56,57
 117 -7 117 -7 151 19 c 0,58,59
 185 45 185 45 220 54 c 0,60,61
 255 63 255 63 276 60 c 0,62,63
 262 89 262 89 256 120 c 0,64,65
 250 151 250 151 250 172 c 0,66,67
 250 199 250 199 257 223 c 0,68,69
 264 247 264 247 279 270 c 0,70,71
 293 293 293 293 315 316 c 0,72,73
 337 340 337 340 367 367 c 0,74,75
 339 373 339 373 295 392 c 0,76,77
 251 411 251 411 210 449 c 0,78,79
 169 486 169 486 139 543 c 0,80,81
 109 600 109 600 109 682 c 0,82,83
 109 776 109 776 145 845 c 0,84,85
 181 914 181 914 244 959 c 0,86,87
 307 1004 307 1004 392 1027 c 0,88,89
 476 1049 476 1049 572 1049 c 0,90,91
 621 1049 621 1049 665 1041 c 0,92,93
 709 1034 709 1034 746 1025 c 0,94,95
 783 1015 783 1015 815 1004 c 0,96,97
 846 993 846 993 872 984 c 0,98,-1
 1145 984 l 0,99,-1
 1145 860 l 0,100,-1
 961 860 l 0,0,1
726 705 m 0,101,102
 726 748 726 748 716 791 c 0,103,104
 706 835 706 835 687 869 c 0,105,106
 667 903 667 903 637 925 c 0,107,108
 607 947 607 947 568 946 c 0,109,110
 521 946 521 946 488 925 c 0,111,112
 455 904 455 904 436 869 c 0,113,114
 416 834 416 834 407 791 c 0,115,116
 398 747 398 747 398 702 c 0,117,118
 398 656 398 656 408 611 c 0,119,120
 418 565 418 565 438 530 c 0,121,122
 458 495 458 495 489 473 c 0,123,124
 521 451 521 451 564 451 c 0,125,126
 607 451 607 451 637 473 c 0,127,128
 667 495 667 495 688 531 c 0,129,130
 708 567 708 567 717 613 c 0,131,132
 726 659 726 659 726 705 c 0,101,102
812 -144 m 0,133,134
 812 -107 812 -107 790 -81 c 0,135,136
 767 -54 767 -54 731 -35 c 0,137,138
 695 -16 695 -16 650 -4 c 0,139,140
 605 8 605 8 560 16 c 0,141,142
 515 24 515 24 475 27 c 0,143,144
 435 31 435 31 409 34 c 0,145,146
 399 19 399 19 387 2 c 0,147,148
 376 -14 376 -14 366 -34 c 0,149,150
 356 -53 356 -53 350 -77 c 0,151,152
 344 -101 344 -101 344 -130 c 0,153,154
 343 -180 343 -180 364 -224 c 0,155,156
 384 -268 384 -268 417 -300 c 0,157,158
 450 -332 450 -332 491 -350 c 0,159,160
 532 -368 532 -368 574 -369 c 0,161,162
 616 -369 616 -369 659 -353 c 0,163,164
 701 -337 701 -337 735 -308 c 0,165,166
 769 -279 769 -279 791 -237 c 0,167,168
 812 -195 812 -195 812 -144 c 0,133,134
EndSplineSet
EndChar

StartChar: h
Encoding: 75 104 75
Width: 1312
VWidth: 1024
Flags: W
LayerCount: 2
Fore
SplineSet
730 0 m 0,0,-1
 730 98 l 0,1,-1
 797 104 l 0,2,3
 816 106 816 106 829 120 c 0,4,5
 842 134 842 134 843 154 c 0,6,-1
 843 648 l 0,7,8
 843 674 843 674 837 710 c 0,9,10
 831 746 831 746 813 778 c 0,11,12
 795 810 795 810 760 833 c 0,13,14
 725 856 725 856 667 856 c 0,15,16
 635 856 635 856 601 851 c 0,17,18
 567 846 567 846 537 842 c 0,19,20
 503 836 503 836 470 828 c 0,21,-1
 470 154 l 0,22,23
 470 135 470 135 483 120 c 0,24,25
 496 106 496 106 516 104 c 0,26,-1
 589 98 l 0,27,-1
 589 0 l 0,28,-1
 56 0 l 0,29,-1
 56 98 l 0,30,-1
 142 104 l 0,31,32
 161 106 161 106 175 120 c 0,33,34
 188 134 188 134 188 154 c 0,35,-1
 188 1361 l 0,36,-1
 40 1361 l 0,37,-1
 40 1447 l 0,38,-1
 360 1552 l 0,39,-1
 470 1552 l 0,40,-1
 470 919 l 0,41,42
 528 955 528 955 592 983 c 0,43,44
 619 995 619 995 649 1007 c 0,45,46
 679 1019 679 1019 710 1028 c 0,47,48
 741 1037 741 1037 774 1043 c 0,49,50
 806 1049 806 1049 837 1049 c 0,51,52
 898 1049 898 1049 944 1033 c 0,53,54
 990 1017 990 1017 1021 991 c 0,55,56
 1053 965 1053 965 1074 930 c 0,57,58
 1094 896 1094 896 1105 859 c 0,59,60
 1116 822 1116 822 1120 786 c 0,61,62
 1124 750 1124 750 1124 719 c 0,63,-1
 1124 154 l 0,64,65
 1124 135 1124 135 1138 120 c 0,66,67
 1151 106 1151 106 1170 104 c 0,68,-1
 1258 98 l 0,69,-1
 1258 0 l 0,70,-1
 730 0 l 0,0,-1
EndSplineSet
EndChar

StartChar: i
Encoding: 76 105 76
Width: 698
VWidth: 1024
Flags: W
LayerCount: 2
Fore
SplineSet
518 1391 m 0,0,1
 518 1357 518 1357 505 1327 c 0,2,3
 492 1297 492 1297 470 1275 c 0,4,5
 447 1252 447 1252 418 1240 c 0,6,7
 388 1227 388 1227 354 1227 c 0,8,9
 320 1227 320 1227 291 1240 c 0,10,11
 261 1253 261 1253 240 1275 c 0,12,13
 218 1298 218 1298 205 1327 c 0,14,15
 192 1357 192 1357 193 1391 c 0,16,17
 193 1425 193 1425 205 1454 c 0,18,19
 218 1484 218 1484 240 1505 c 0,20,21
 262 1527 262 1527 291 1540 c 0,22,23
 321 1553 321 1553 354 1552 c 0,24,25
 388 1552 388 1552 418 1540 c 0,26,27
 448 1527 448 1527 470 1505 c 0,28,29
 493 1483 493 1483 505 1454 c 0,30,31
 518 1425 518 1425 518 1391 c 0,0,1
68 0 m 0,32,-1
 68 98 l 0,33,-1
 164 104 l 0,34,35
 182 106 182 106 196 120 c 0,36,37
 210 134 210 134 210 154 c 0,38,-1
 210 858 l 0,39,-1
 76 858 l 0,40,-1
 76 944 l 0,41,-1
 382 1049 l 0,42,-1
 488 1049 l 0,43,-1
 488 154 l 0,44,45
 488 135 488 135 503 120 c 0,46,47
 518 106 518 106 537 104 c 0,48,-1
 638 98 l 0,49,-1
 638 0 l 0,50,-1
 68 0 l 0,32,-1
EndSplineSet
EndChar

StartChar: j
Encoding: 77 106 77
Width: 679
VWidth: 1024
Flags: W
LayerCount: 2
Fore
SplineSet
510 1391 m 0,0,1
 510 1357 510 1357 497 1327 c 0,2,3
 484 1297 484 1297 463 1275 c 0,4,5
 441 1252 441 1252 412 1240 c 0,6,7
 382 1227 382 1227 348 1227 c 0,8,9
 314 1227 314 1227 285 1240 c 0,10,11
 255 1253 255 1253 232 1275 c 0,12,13
 209 1298 209 1298 197 1327 c 0,14,15
 184 1357 184 1357 184 1391 c 0,16,17
 184 1425 184 1425 197 1454 c 0,18,19
 210 1484 210 1484 232 1505 c 0,20,21
 255 1527 255 1527 285 1540 c 0,22,23
 315 1553 315 1553 348 1552 c 0,24,25
 382 1552 382 1552 412 1540 c 0,26,27
 442 1527 442 1527 463 1505 c 0,28,29
 485 1483 485 1483 497 1454 c 0,30,31
 510 1425 510 1425 510 1391 c 0,0,1
488 98 m 0,32,33
 488 -17 488 -17 461 -124 c 0,34,35
 433 -232 433 -232 374 -314 c 0,36,37
 317 -392 317 -392 229 -438 c 0,38,39
 142 -484 142 -484 20 -484 c 0,40,41
 -22 -484 -22 -484 -59 -474 c 0,42,43
 -97 -464 -97 -464 -126 -443 c 0,44,45
 -155 -423 -155 -423 -172 -393 c 0,46,47
 -189 -363 -189 -363 -188 -325 c 0,48,49
 -188 -297 -188 -297 -178 -272 c 0,50,51
 -167 -247 -167 -247 -148 -229 c 0,52,53
 -130 -210 -130 -210 -105 -198 c 0,54,55
 -80 -186 -80 -186 -54 -184 c 0,56,-1
 151 -392 l 0,57,58
 163 -373 163 -373 172 -346 c 0,59,60
 181 -319 181 -319 187 -288 c 0,61,62
 193 -257 193 -257 198 -225 c 0,63,64
 202 -193 202 -193 205 -162 c 0,65,66
 210 -90 210 -90 210 -10 c 0,67,-1
 210 858 l 0,68,-1
 60 858 l 0,69,-1
 60 944 l 0,70,-1
 382 1049 l 0,71,-1
 488 1049 l 0,72,-1
 488 98 l 0,32,33
EndSplineSet
EndChar

StartChar: k
Encoding: 78 107 78
Width: 1241
VWidth: 1024
Flags: W
LayerCount: 2
Fore
SplineSet
799 0 m 0,0,-1
 799 86 l 0,1,-1
 568 474 l 0,2,-1
 470 474 l 0,3,-1
 470 154 l 0,4,5
 470 135 470 135 483 120 c 0,6,7
 496 106 496 106 516 104 c 0,8,-1
 600 98 l 0,9,-1
 600 0 l 0,10,-1
 54 0 l 0,11,-1
 54 98 l 0,12,-1
 142 104 l 0,13,14
 161 106 161 106 175 120 c 0,15,16
 188 134 188 134 188 154 c 0,17,-1
 188 1361 l 0,18,-1
 42 1361 l 0,19,-1
 42 1447 l 0,20,-1
 362 1552 l 0,21,-1
 470 1552 l 0,22,-1
 470 545 l 0,23,-1
 516 545 l 0,24,-1
 797 881 l 0,25,26
 807 892 807 892 802 903 c 0,27,28
 797 914 797 914 782 916 c 0,29,-1
 702 925 l 0,30,-1
 702 1023 l 0,31,-1
 1139 1023 l 0,32,-1
 1139 925 l 0,33,-1
 1000 908 l 0,34,-1
 776 652 l 0,35,-1
 1099 109 l 0,36,-1
 1223 98 l 0,37,-1
 1223 0 l 0,38,-1
 799 0 l 0,0,-1
EndSplineSet
EndChar

StartChar: l
Encoding: 79 108 79
Width: 698
VWidth: 1024
Flags: W
LayerCount: 2
Fore
SplineSet
60 0 m 0,0,-1
 60 98 l 0,1,-1
 164 104 l 0,2,3
 184 106 184 106 197 120 c 0,4,5
 210 133 210 133 210 154 c 0,6,-1
 210 1361 l 0,7,-1
 60 1361 l 0,8,-1
 60 1447 l 0,9,-1
 382 1552 l 0,10,-1
 488 1552 l 0,11,-1
 488 154 l 0,12,13
 488 134 488 134 501 120 c 0,14,15
 514 107 514 107 535 104 c 0,16,-1
 640 98 l 0,17,-1
 640 0 l 0,18,-1
 60 0 l 0,0,-1
EndSplineSet
EndChar

StartChar: m
Encoding: 80 109 80
Width: 1898
VWidth: 1024
Flags: W
LayerCount: 2
Fore
SplineSet
1327 0 m 0,0,-1
 1327 98 l 0,1,-1
 1393 104 l 0,2,3
 1411 106 1411 106 1426 120 c 0,4,5
 1441 134 1441 134 1441 154 c 0,6,-1
 1441 658 l 0,7,8
 1441 696 1441 696 1432 732 c 0,9,10
 1423 768 1423 768 1401 796 c 0,11,12
 1380 824 1380 824 1346 840 c 0,13,14
 1311 856 1311 856 1258 856 c 0,15,16
 1224 856 1224 856 1194 850 c 0,17,18
 1164 844 1164 844 1141 839 c 0,19,20
 1114 832 1114 832 1091 822 c 0,21,-1
 1091 154 l 0,22,23
 1091 135 1091 135 1104 120 c 0,24,25
 1117 106 1117 106 1137 104 c 0,26,-1
 1202 98 l 0,27,-1
 1202 0 l 0,28,-1
 698 0 l 0,29,-1
 698 98 l 0,30,-1
 763 104 l 0,31,32
 782 106 782 106 796 120 c 0,33,34
 810 134 810 134 810 154 c 0,35,-1
 810 658 l 0,36,37
 810 696 810 696 800 732 c 0,38,39
 790 768 790 768 768 796 c 0,40,41
 746 824 746 824 712 840 c 0,42,43
 678 856 678 856 629 856 c 0,44,45
 586 856 586 856 553 850 c 0,46,47
 521 844 521 844 501 839 c 0,48,49
 476 832 476 832 460 822 c 0,50,-1
 460 154 l 0,51,52
 460 135 460 135 474 120 c 0,53,54
 488 106 488 106 508 104 c 0,55,-1
 572 98 l 0,56,-1
 572 0 l 0,57,-1
 56 0 l 0,58,-1
 56 98 l 0,59,-1
 134 104 l 0,60,61
 153 106 153 106 167 120 c 0,62,63
 180 134 180 134 180 154 c 0,64,-1
 180 856 l 0,65,-1
 46 856 l 0,66,-1
 46 942 l 0,67,-1
 354 1049 l 0,68,-1
 460 1049 l 0,69,-1
 460 921 l 0,70,71
 513 957 513 957 570 984 c 0,72,73
 619 1008 619 1008 680 1028 c 0,74,75
 741 1048 741 1048 803 1049 c 0,76,77
 862 1049 862 1049 904 1033 c 0,78,79
 946 1017 946 1017 975 995 c 0,80,81
 1004 973 1004 973 1023 948 c 0,82,83
 1042 923 1042 923 1057 906 c 0,84,85
 1118 945 1118 945 1182 977 c 0,86,87
 1210 990 1210 990 1240 1003 c 0,88,89
 1271 1016 1271 1016 1303 1026 c 0,90,91
 1335 1036 1335 1036 1368 1042 c 0,92,93
 1400 1048 1400 1048 1431 1049 c 0,94,95
 1494 1049 1494 1049 1540 1032 c 0,96,97
 1586 1015 1586 1015 1618 987 c 0,98,99
 1650 959 1650 959 1670 925 c 0,100,101
 1689 891 1689 891 1701 855 c 0,102,103
 1712 819 1712 819 1716 786 c 0,104,105
 1720 753 1720 753 1719 728 c 0,106,-1
 1719 154 l 0,107,108
 1719 135 1719 135 1733 120 c 0,109,110
 1747 106 1747 106 1765 104 c 0,111,-1
 1841 98 l 0,112,-1
 1841 0 l 0,113,-1
 1327 0 l 0,0,-1
EndSplineSet
EndChar

StartChar: n
Encoding: 81 110 81
Width: 1310
VWidth: 1024
Flags: W
LayerCount: 2
Fore
SplineSet
719 0 m 0,0,-1
 719 98 l 0,1,-1
 797 104 l 0,2,3
 816 106 816 106 829 120 c 0,4,5
 842 134 842 134 843 154 c 0,6,-1
 843 646 l 0,7,8
 843 686 843 686 834 724 c 0,9,10
 825 762 825 762 804 791 c 0,11,12
 784 820 784 820 751 838 c 0,13,14
 718 856 718 856 671 856 c 0,15,16
 628 856 628 856 591 851 c 0,17,18
 554 846 554 846 527 842 c 0,19,20
 495 836 495 836 470 828 c 0,21,-1
 470 154 l 0,22,23
 470 135 470 135 484 120 c 0,24,25
 498 106 498 106 518 104 c 0,26,-1
 581 98 l 0,27,-1
 581 0 l 0,28,-1
 68 0 l 0,29,-1
 68 98 l 0,30,-1
 142 104 l 0,31,32
 161 106 161 106 175 120 c 0,33,34
 188 134 188 134 188 154 c 0,35,-1
 188 856 l 0,36,-1
 44 856 l 0,37,-1
 44 942 l 0,38,-1
 360 1049 l 0,39,-1
 470 1049 l 0,40,-1
 470 921 l 0,41,42
 524 957 524 957 586 984 c 0,43,44
 638 1008 638 1008 703 1028 c 0,45,46
 769 1048 769 1048 837 1049 c 0,47,48
 927 1049 927 1049 983 1017 c 0,49,50
 1039 986 1039 986 1070 935 c 0,51,52
 1101 884 1101 884 1112 818 c 0,53,54
 1123 752 1123 752 1122 684 c 0,55,-1
 1122 154 l 0,56,57
 1122 135 1122 135 1137 120 c 0,58,59
 1151 106 1151 106 1170 104 c 0,60,-1
 1235 98 l 0,61,-1
 1235 0 l 0,62,-1
 719 0 l 0,0,-1
EndSplineSet
EndChar

StartChar: o
Encoding: 82 111 82
Width: 1224
VWidth: 1024
Flags: W
LayerCount: 2
Fore
SplineSet
1160 506 m 0,0,1
 1160 388 1160 388 1123 290 c 0,2,3
 1086 192 1086 192 1014 122 c 0,4,5
 942 52 942 52 839 13 c 0,6,7
 736 -26 736 -26 606 -26 c 0,8,9
 486 -26 486 -26 388 11 c 0,10,11
 289 48 289 48 218 117 c 0,12,13
 147 186 147 186 107 284 c 0,14,15
 68 383 68 383 68 508 c 0,16,17
 68 637 68 637 109 737 c 0,18,19
 150 837 150 837 223 907 c 0,20,21
 296 976 296 976 397 1012 c 0,22,23
 498 1048 498 1048 621 1049 c 0,24,25
 751 1049 751 1049 851 1009 c 0,26,27
 951 969 951 969 1020 897 c 0,28,29
 1089 825 1089 825 1124 725 c 0,30,31
 1160 626 1160 626 1160 506 c 0,0,1
847 508 m 0,32,33
 847 552 847 552 843 601 c 0,34,35
 839 650 839 650 829 696 c 0,36,37
 819 743 819 743 802 785 c 0,38,39
 785 827 785 827 758 859 c 0,40,41
 732 891 732 891 696 910 c 0,42,43
 660 929 660 929 612 929 c 0,44,45
 541 929 541 929 497 890 c 0,46,47
 452 851 452 851 426 790 c 0,48,49
 401 729 401 729 392 656 c 0,50,51
 382 583 382 583 382 516 c 0,52,53
 382 471 382 471 386 422 c 0,54,55
 390 373 390 373 399 326 c 0,56,57
 409 279 409 279 425 237 c 0,58,59
 441 195 441 195 467 162 c 0,60,61
 493 130 493 130 529 111 c 0,62,63
 565 92 565 92 614 92 c 0,64,65
 686 92 686 92 731 131 c 0,66,67
 776 169 776 169 802 229 c 0,68,69
 828 289 828 289 837 364 c 0,70,71
 847 437 847 437 847 508 c 0,32,33
EndSplineSet
EndChar

StartChar: p
Encoding: 83 112 83
Width: 1265
VWidth: 1024
Flags: W
LayerCount: 2
Fore
SplineSet
1199 541 m 0,0,1
 1199 414 1199 414 1159 309 c 0,2,3
 1119 205 1119 205 1046 131 c 0,4,5
 972 57 972 57 867 15 c 0,6,7
 763 -26 763 -26 633 -26 c 0,8,9
 601 -26 601 -26 572 -23 c 0,10,11
 543 -20 543 -20 520 -15 c 0,12,13
 493 -11 493 -11 470 -4 c 0,14,-1
 470 -306 l 0,15,16
 470 -326 470 -326 483 -340 c 0,17,18
 496 -354 496 -354 516 -354 c 0,19,-1
 627 -360 l 0,20,-1
 627 -460 l 0,21,-1
 50 -460 l 0,22,-1
 50 -360 l 0,23,-1
 142 -354 l 0,24,25
 161 -354 161 -354 175 -340 c 0,26,27
 188 -326 188 -326 188 -306 c 0,28,-1
 188 856 l 0,29,-1
 50 856 l 0,30,-1
 50 942 l 0,31,-1
 360 1049 l 0,32,-1
 470 1049 l 0,33,-1
 470 916 l 0,34,35
 519 953 519 953 575 982 c 0,36,37
 623 1007 623 1007 683 1028 c 0,38,39
 742 1049 742 1049 807 1049 c 0,40,41
 870 1049 870 1049 925 1028 c 0,42,43
 979 1008 979 1008 1022 972 c 0,44,45
 1066 937 1066 937 1099 888 c 0,46,47
 1132 839 1132 839 1155 783 c 0,48,49
 1177 727 1177 727 1188 665 c 0,50,51
 1199 603 1199 603 1199 541 c 0,0,1
889 510 m 0,52,53
 889 579 889 579 873 642 c 0,54,55
 857 705 857 705 825 753 c 0,56,57
 793 801 793 801 743 829 c 0,58,59
 693 858 693 858 625 858 c 0,60,61
 597 858 597 858 570 853 c 0,62,63
 543 848 543 848 520 842 c 0,64,65
 493 835 493 835 470 826 c 0,66,-1
 470 114 l 0,67,68
 490 106 490 106 511 100 c 0,69,70
 528 95 528 95 548 92 c 0,71,72
 567 88 567 88 585 88 c 0,73,74
 661 88 661 88 717 121 c 0,75,76
 774 154 774 154 813 210 c 0,77,78
 851 267 851 267 870 345 c 0,79,80
 889 422 889 422 889 510 c 0,52,53
EndSplineSet
EndChar

StartChar: q
Encoding: 84 113 84
Width: 1263
VWidth: 1024
Flags: W
LayerCount: 2
Fore
SplineSet
633 -460 m 0,0,-1
 633 -360 l 0,1,-1
 749 -354 l 0,2,3
 769 -354 769 -354 782 -340 c 0,4,5
 795 -326 795 -326 795 -306 c 0,6,-1
 795 82 l 0,7,8
 751 51 751 51 700 28 c 0,9,10
 656 8 656 8 600 -9 c 0,11,12
 543 -25 543 -25 478 -26 c 0,13,14
 384 -26 384 -26 308 15 c 0,15,16
 232 56 232 56 178 126 c 0,17,18
 125 196 125 196 96 287 c 0,19,20
 67 379 67 379 68 480 c 0,21,22
 68 628 68 628 118 736 c 0,23,24
 168 844 168 844 258 913 c 0,25,26
 348 982 348 982 472 1015 c 0,27,28
 596 1048 596 1048 744 1049 c 0,29,30
 797 1049 797 1049 856 1044 c 0,31,32
 914 1040 914 1040 964 1035 c 0,33,34
 1021 1030 1021 1030 1076 1023 c 0,35,-1
 1076 -306 l 0,36,37
 1076 -326 1076 -326 1090 -340 c 0,38,39
 1103 -354 1103 -354 1122 -354 c 0,40,-1
 1208 -360 l 0,41,-1
 1208 -460 l 0,42,-1
 633 -460 l 0,0,-1
795 916 m 0,43,44
 785 918 785 918 771 921 c 0,45,46
 760 923 760 923 744 924 c 0,47,48
 728 925 728 925 711 925 c 0,49,50
 618 925 618 925 553 894 c 0,51,52
 488 864 488 864 449 811 c 0,53,54
 409 758 409 758 391 685 c 0,55,56
 374 612 374 612 374 528 c 0,57,58
 374 442 374 442 393 374 c 0,59,60
 412 305 412 305 450 257 c 0,61,62
 487 209 487 209 540 183 c 0,63,64
 593 157 593 157 660 158 c 0,65,66
 684 158 684 158 708 159 c 0,67,68
 732 160 732 160 751 162 c 0,69,70
 774 164 774 164 795 166 c 0,71,-1
 795 916 l 0,43,44
EndSplineSet
EndChar

StartChar: r
Encoding: 85 114 85
Width: 905
VWidth: 1024
Flags: W
LayerCount: 2
Fore
SplineSet
742 692 m 0,0,1
 735 702 735 702 724 717 c 0,2,3
 713 731 713 731 698 744 c 0,4,5
 682 757 682 757 659 767 c 0,6,7
 636 776 636 776 606 776 c 0,8,9
 576 776 576 776 551 770 c 0,10,11
 525 764 525 764 508 757 c 0,12,13
 486 749 486 749 470 738 c 0,14,-1
 470 151 l 0,15,16
 470 133 470 133 483 117 c 0,17,18
 496 102 496 102 516 102 c 0,19,-1
 650 96 l 0,20,-1
 650 -2 l 0,21,-1
 50 -2 l 0,22,-1
 50 96 l 0,23,-1
 142 102 l 0,24,25
 161 104 161 104 175 118 c 0,26,27
 188 132 188 132 188 151 c 0,28,-1
 188 856 l 0,29,-1
 36 856 l 0,30,-1
 36 942 l 0,31,-1
 360 1049 l 0,32,-1
 470 1049 l 0,33,-1
 470 826 l 0,34,35
 489 851 489 851 523 889 c 0,36,37
 556 927 556 927 595 962 c 0,38,39
 634 997 634 997 675 1023 c 0,40,41
 716 1049 716 1049 753 1049 c 0,42,43
 771 1049 771 1049 791 1046 c 0,44,45
 810 1043 810 1043 828 1037 c 0,46,47
 846 1031 846 1031 861 1025 c 0,48,49
 876 1018 876 1018 885 1011 c 0,50,-1
 885 692 l 0,51,-1
 742 692 l 0,0,1
EndSplineSet
EndChar

StartChar: s
Encoding: 86 115 86
Width: 931
VWidth: 1024
Flags: W
LayerCount: 2
Fore
SplineSet
835 702 m 0,0,-1
 705 702 l 0,1,-1
 682 870 l 0,2,3
 662 894 662 894 618 908 c 0,4,5
 575 922 575 922 518 923 c 0,6,7
 444 923 444 923 402 892 c 0,8,9
 360 862 360 862 360 807 c 0,10,11
 360 776 360 776 378 750 c 0,12,13
 395 723 395 723 425 699 c 0,14,15
 455 675 455 675 493 655 c 0,16,17
 531 634 531 634 572 612 c 0,18,19
 624 585 624 585 678 558 c 0,20,21
 731 530 731 530 773 497 c 0,22,23
 815 463 815 463 842 421 c 0,24,25
 869 380 869 380 868 327 c 0,26,27
 868 228 868 228 830 160 c 0,28,29
 792 93 792 93 732 52 c 0,30,31
 672 11 672 11 595 -8 c 0,32,33
 518 -26 518 -26 440 -26 c 0,34,35
 362 -26 362 -26 295 -17 c 0,36,37
 228 -8 228 -8 177 3 c 0,38,39
 118 15 118 15 68 32 c 0,40,-1
 68 350 l 0,41,-1
 200 350 l 0,42,43
 202 328 202 328 206 296 c 0,44,45
 210 263 210 263 214 232 c 0,46,47
 218 196 218 196 224 158 c 0,48,49
 226 153 226 153 248 143 c 0,50,51
 270 133 270 133 299 123 c 0,52,53
 329 113 329 113 361 105 c 0,54,55
 394 98 394 98 420 98 c 0,56,57
 473 98 473 98 508 113 c 0,58,59
 543 127 543 127 563 147 c 0,60,61
 583 167 583 167 592 191 c 0,62,63
 600 214 600 214 600 232 c 0,64,65
 600 275 600 275 573 307 c 0,66,67
 546 338 546 338 503 364 c 0,68,69
 460 390 460 390 406 412 c 0,70,71
 352 435 352 435 300 462 c 0,72,73
 256 484 256 484 216 509 c 0,74,75
 176 535 176 535 146 566 c 0,76,77
 116 598 116 598 98 638 c 0,78,79
 80 678 80 678 80 730 c 0,80,81
 80 803 80 803 111 862 c 0,82,83
 142 921 142 921 199 962 c 0,84,85
 255 1003 255 1003 332 1026 c 0,86,87
 409 1049 409 1049 501 1049 c 0,88,89
 579 1049 579 1049 641 1040 c 0,90,91
 703 1031 703 1031 745 1020 c 0,92,93
 795 1008 795 1008 835 992 c 0,94,-1
 835 702 l 0,0,-1
EndSplineSet
EndChar

StartChar: t
Encoding: 87 116 87
Width: 786
VWidth: 1024
Flags: W
LayerCount: 2
Fore
SplineSet
778 46 m 0,0,1
 729 26 729 26 674 10 c 0,2,3
 627 -4 627 -4 567 -15 c 0,4,5
 507 -26 507 -26 442 -26 c 0,6,7
 372 -26 372 -26 324 -10 c 0,8,9
 275 5 275 5 245 37 c 0,10,11
 215 69 215 69 202 118 c 0,12,13
 189 166 189 166 188 232 c 0,14,-1
 188 889 l 0,15,-1
 50 889 l 0,16,-1
 50 973 l 0,17,-1
 212 1069 l 0,18,-1
 325 1292 l 0,19,-1
 470 1292 l 0,20,-1
 470 1023 l 0,21,-1
 761 1023 l 0,22,-1
 761 889 l 0,23,-1
 470 889 l 0,24,-1
 470 318 l 0,25,26
 470 218 470 218 514 177 c 0,27,28
 558 136 558 136 642 136 c 0,29,30
 667 136 667 136 691 138 c 0,31,32
 716 140 716 140 735 143 c 0,33,34
 758 146 758 146 778 151 c 0,35,-1
 778 46 l 0,0,1
EndSplineSet
EndChar

StartChar: u
Encoding: 88 117 88
Width: 1300
VWidth: 1024
Flags: W
LayerCount: 2
Fore
SplineSet
830 0 m 0,0,-1
 830 116 l 0,1,2
 778 76 778 76 722 45 c 0,3,4
 674 18 674 18 615 -4 c 0,5,6
 557 -26 557 -26 499 -26 c 0,7,8
 410 -26 410 -26 350 -2 c 0,9,10
 290 22 290 22 254 66 c 0,11,12
 218 110 218 110 203 173 c 0,13,14
 188 236 188 236 188 316 c 0,15,-1
 188 858 l 0,16,-1
 52 858 l 0,17,-1
 52 944 l 0,18,-1
 360 1049 l 0,19,-1
 470 1049 l 0,20,-1
 470 398 l 0,21,22
 470 359 470 359 475 318 c 0,23,24
 480 277 480 277 500 244 c 0,25,26
 519 210 519 210 558 188 c 0,27,28
 596 166 596 166 663 166 c 0,29,30
 696 166 696 166 726 171 c 0,31,32
 756 176 756 176 779 183 c 0,33,34
 806 191 806 191 830 202 c 0,35,-1
 830 858 l 0,36,-1
 698 858 l 0,37,-1
 698 944 l 0,38,-1
 1005 1049 l 0,39,-1
 1111 1049 l 0,40,-1
 1111 154 l 0,41,42
 1111 135 1111 135 1126 120 c 0,43,44
 1141 106 1141 106 1160 104 c 0,45,-1
 1252 98 l 0,46,-1
 1252 0 l 0,47,-1
 830 0 l 0,0,-1
EndSplineSet
EndChar

StartChar: v
Encoding: 89 118 89
Width: 1185
VWidth: 1024
Flags: W
LayerCount: 2
Fore
SplineSet
1049 910 m 0,0,-1
 688 0 l 0,1,-1
 480 0 l 0,2,-1
 144 912 l 0,3,-1
 20 925 l 0,4,-1
 20 1023 l 0,5,-1
 572 1023 l 0,6,-1
 572 925 l 0,7,-1
 476 919 l 0,8,9
 457 917 457 917 449 903 c 0,10,11
 441 890 441 890 446 872 c 0,12,-1
 652 292 l 0,13,-1
 881 872 l 0,14,15
 887 887 887 887 877 902 c 0,16,17
 867 916 867 916 849 919 c 0,18,-1
 761 925 l 0,19,-1
 761 1023 l 0,20,-1
 1168 1023 l 0,21,-1
 1168 925 l 0,22,-1
 1049 910 l 0,0,-1
EndSplineSet
EndChar

StartChar: w
Encoding: 90 119 90
Width: 1763
VWidth: 1024
Flags: W
LayerCount: 2
Fore
SplineSet
1627 910 m 0,0,-1
 1347 0 l 0,1,-1
 1113 0 l 0,2,-1
 885 744 l 0,3,-1
 644 0 l 0,4,-1
 416 0 l 0,5,-1
 144 912 l 0,6,-1
 20 925 l 0,7,-1
 20 1023 l 0,8,-1
 558 1023 l 0,9,-1
 558 925 l 0,10,-1
 468 919 l 0,11,12
 451 917 451 917 441 903 c 0,13,14
 431 890 431 890 436 872 c 0,15,-1
 600 296 l 0,16,-1
 835 1023 l 0,17,-1
 1065 1023 l 0,18,-1
 1290 292 l 0,19,-1
 1464 872 l 0,20,21
 1469 887 1469 887 1461 902 c 0,22,23
 1452 916 1452 916 1435 919 c 0,24,-1
 1342 925 l 0,25,-1
 1342 1023 l 0,26,-1
 1745 1023 l 0,27,-1
 1745 925 l 0,28,-1
 1627 910 l 0,0,-1
EndSplineSet
EndChar

StartChar: x
Encoding: 91 120 91
Width: 1144
VWidth: 1024
Flags: W
LayerCount: 2
Fore
SplineSet
594 0 m 0,0,-1
 594 98 l 0,1,-1
 675 106 l 0,2,3
 691 108 691 108 696 119 c 0,4,5
 701 130 701 130 692 142 c 0,6,-1
 526 369 l 0,7,-1
 342 142 l 0,8,9
 333 131 333 131 337 120 c 0,10,11
 341 109 341 109 356 106 c 0,12,-1
 430 98 l 0,13,-1
 430 0 l 0,14,-1
 20 0 l 0,15,-1
 20 98 l 0,16,-1
 146 116 l 0,17,-1
 446 478 l 0,18,-1
 136 910 l 0,19,-1
 26 925 l 0,20,-1
 26 1023 l 0,21,-1
 541 1023 l 0,22,-1
 541 925 l 0,23,-1
 480 919 l 0,24,25
 463 917 463 917 459 904 c 0,26,27
 455 892 455 892 466 881 c 0,28,-1
 612 678 l 0,29,-1
 780 881 l 0,30,31
 788 892 788 892 785 904 c 0,32,33
 781 916 781 916 766 919 c 0,34,-1
 698 925 l 0,35,-1
 698 1023 l 0,36,-1
 1089 1023 l 0,37,-1
 1089 925 l 0,38,-1
 971 910 l 0,39,-1
 692 566 l 0,40,-1
 1015 116 l 0,41,-1
 1126 98 l 0,42,-1
 1126 0 l 0,43,-1
 594 0 l 0,0,-1
EndSplineSet
EndChar

StartChar: y
Encoding: 92 121 92
Width: 1185
VWidth: 1024
Flags: W
LayerCount: 2
Fore
SplineSet
1057 910 m 0,0,-1
 694 20 l 0,1,2
 675 -27 675 -27 651 -82 c 0,3,4
 627 -137 627 -137 599 -193 c 0,5,6
 570 -249 570 -249 535 -301 c 0,7,8
 500 -353 500 -353 457 -392 c 0,9,10
 413 -435 413 -435 361 -460 c 0,11,12
 309 -485 309 -485 248 -484 c 0,13,14
 217 -484 217 -484 184 -473 c 0,15,16
 151 -461 151 -461 123 -439 c 0,17,18
 96 -417 96 -417 79 -386 c 0,19,20
 62 -355 62 -355 62 -316 c 0,21,22
 62 -287 62 -287 73 -264 c 0,23,24
 84 -240 84 -240 101 -220 c 0,25,26
 118 -201 118 -201 140 -186 c 0,27,28
 162 -172 162 -172 184 -162 c 0,29,-1
 362 -298 l 0,30,31
 391 -271 391 -271 416 -234 c 0,32,33
 441 -197 441 -197 461 -158 c 0,34,35
 481 -119 481 -119 496 -82 c 0,36,37
 511 -45 511 -45 518 -18 c 0,38,-1
 144 912 l 0,39,-1
 20 925 l 0,40,-1
 20 1023 l 0,41,-1
 572 1023 l 0,42,-1
 572 925 l 0,43,-1
 476 919 l 0,44,45
 457 917 457 917 447 903 c 0,46,47
 438 890 438 890 444 872 c 0,48,-1
 660 334 l 0,49,-1
 883 872 l 0,50,51
 889 887 889 887 879 902 c 0,52,53
 869 916 869 916 851 919 c 0,54,-1
 759 925 l 0,55,-1
 759 1023 l 0,56,-1
 1168 1023 l 0,57,-1
 1168 925 l 0,58,-1
 1057 910 l 0,0,-1
EndSplineSet
EndChar

StartChar: z
Encoding: 93 122 93
Width: 1030
VWidth: 1024
Flags: W
LayerCount: 2
Fore
SplineSet
68 0 m 0,0,-1
 68 136 l 0,1,-1
 604 904 l 0,2,-1
 288 904 l 0,3,4
 272 904 272 904 260 889 c 0,5,6
 248 874 248 874 248 860 c 0,7,-1
 232 698 l 0,8,-1
 84 698 l 0,9,-1
 84 1023 l 0,10,-1
 933 1023 l 0,11,-1
 933 906 l 0,12,-1
 384 124 l 0,13,-1
 744 124 l 0,14,15
 751 124 751 124 759 129 c 0,16,17
 766 134 766 134 773 141 c 0,18,19
 780 148 780 148 784 157 c 0,20,21
 789 166 789 166 791 174 c 0,22,-1
 818 352 l 0,23,-1
 963 352 l 0,24,-1
 963 0 l 0,25,-1
 68 0 l 0,0,-1
EndSplineSet
EndChar

StartChar: braceleft
Encoding: 94 123 94
Width: 1038
VWidth: 1024
Flags: W
LayerCount: 2
Fore
SplineSet
885 -256 m 0,0,-1
 844 -256 l 0,1,2
 816 -256 816 -256 779 -254 c 0,3,4
 742 -252 742 -252 698 -248 c 0,5,6
 655 -243 655 -243 613 -234 c 0,7,8
 571 -224 571 -224 534 -209 c 0,9,10
 496 -194 496 -194 470 -170 c 0,11,12
 422 -128 422 -128 400 -71 c 0,13,14
 378 -14 378 -14 372 50 c 0,15,16
 365 113 365 113 367 178 c 0,17,18
 369 243 369 243 368 302 c 0,19,20
 367 361 367 361 357 411 c 0,21,22
 347 460 347 460 316 490 c 0,23,24
 285 521 285 521 246 534 c 0,25,26
 206 547 206 547 170 551 c 0,27,28
 129 555 129 555 86 550 c 0,29,-1
 86 675 l 0,30,31
 129 669 129 669 170 673 c 0,32,33
 206 676 206 676 246 689 c 0,34,35
 286 702 286 702 316 732 c 0,36,37
 347 763 347 763 357 813 c 0,38,39
 367 863 367 863 368 922 c 0,40,41
 369 981 369 981 367 1047 c 0,42,43
 365 1113 365 1113 372 1175 c 0,44,45
 379 1238 379 1238 400 1295 c 0,46,47
 422 1352 422 1352 470 1395 c 0,48,49
 496 1419 496 1419 534 1434 c 0,50,51
 572 1449 572 1449 613 1459 c 0,52,53
 655 1469 655 1469 698 1473 c 0,54,55
 741 1478 741 1478 779 1479 c 0,56,57
 816 1481 816 1481 844 1481 c 0,58,-1
 885 1481 l 0,59,-1
 885 1365 l 0,60,61
 847 1365 847 1365 810 1360 c 0,62,63
 778 1355 778 1355 744 1343 c 0,64,65
 710 1332 710 1332 686 1309 c 0,66,67
 654 1278 654 1278 643 1232 c 0,68,69
 632 1186 632 1186 630 1133 c 0,70,71
 628 1079 628 1079 629 1021 c 0,72,73
 630 963 630 963 624 906 c 0,74,75
 618 849 618 849 599 797 c 0,76,77
 580 745 580 745 537 705 c 0,78,79
 504 673 504 673 468 654 c 0,80,81
 432 636 432 636 401 627 c 0,82,83
 370 618 370 618 347 614 c 0,84,85
 330 612 330 612 321 612 c 0,86,87
 330 611 330 611 347 609 c 0,88,89
 371 606 371 606 401 596 c 0,90,91
 432 586 432 586 468 568 c 0,92,93
 504 550 504 550 537 518 c 0,94,95
 580 477 580 477 599 425 c 0,96,97
 618 373 618 373 624 317 c 0,98,99
 630 260 630 260 629 202 c 0,100,101
 628 144 628 144 630 91 c 0,102,103
 632 38 632 38 643 -8 c 0,104,105
 654 -54 654 -54 686 -84 c 0,106,107
 710 -108 710 -108 744 -119 c 0,108,109
 778 -130 778 -130 810 -135 c 0,110,111
 847 -140 847 -140 885 -140 c 0,112,-1
 885 -256 l 0,0,-1
EndSplineSet
EndChar

StartChar: bar
Encoding: 95 124 95
Width: 833
VWidth: 1024
Flags: W
LayerCount: 2
Fore
SplineSet
328 -541 m 0,0,-1
 328 1669 l 0,1,-1
 507 1669 l 0,2,-1
 507 -541 l 0,3,-1
 328 -541 l 0,0,-1
EndSplineSet
EndChar

StartChar: braceright
Encoding: 96 125 96
Width: 1038
VWidth: 1024
Flags: W
LayerCount: 2
Fore
SplineSet
952 550 m 0,0,1
 908 555 908 555 867 551 c 0,2,3
 831 547 831 547 792 534 c 0,4,5
 752 521 752 521 722 490 c 0,6,7
 691 458 691 458 681 410 c 0,8,9
 671 361 671 361 669 301 c 0,10,11
 667 242 667 242 669 177 c 0,12,13
 671 112 671 112 664 49 c 0,14,15
 657 -14 657 -14 636 -71 c 0,16,17
 615 -128 615 -128 568 -170 c 0,18,19
 541 -194 541 -194 504 -209 c 0,20,21
 467 -224 467 -224 425 -234 c 0,22,23
 383 -244 383 -244 340 -248 c 0,24,25
 297 -253 297 -253 260 -254 c 0,26,27
 223 -256 223 -256 194 -256 c 0,28,-1
 154 -256 l 0,29,-1
 154 -140 l 0,30,31
 192 -140 192 -140 228 -135 c 0,32,33
 260 -130 260 -130 294 -119 c 0,34,35
 328 -108 328 -108 352 -84 c 0,36,37
 384 -53 384 -53 395 -8 c 0,38,39
 406 37 406 37 409 90 c 0,40,41
 411 143 411 143 410 201 c 0,42,43
 409 259 409 259 414 316 c 0,44,45
 420 373 420 373 439 425 c 0,46,47
 458 477 458 477 501 518 c 0,48,49
 534 549 534 549 568 567 c 0,50,51
 603 585 603 585 634 595 c 0,52,53
 665 605 665 605 689 608 c 0,54,55
 713 611 713 611 722 612 c 0,56,57
 715 612 715 612 692 614 c 0,58,59
 669 616 669 616 637 626 c 0,60,61
 606 635 606 635 570 653 c 0,62,63
 534 671 534 671 501 705 c 0,64,65
 458 746 458 746 439 798 c 0,66,67
 420 850 420 850 414 907 c 0,68,69
 408 964 408 964 410 1022 c 0,70,71
 411 1080 411 1080 409 1134 c 0,72,73
 407 1188 407 1188 395 1233 c 0,74,75
 384 1278 384 1278 352 1309 c 0,76,77
 327 1333 327 1333 294 1343 c 0,78,79
 260 1354 260 1354 228 1360 c 0,80,81
 191 1365 191 1365 154 1365 c 0,82,-1
 154 1481 l 0,83,-1
 194 1481 l 0,84,85
 223 1481 223 1481 260 1479 c 0,86,87
 297 1477 297 1477 340 1473 c 0,88,89
 383 1468 383 1468 425 1459 c 0,90,91
 467 1449 467 1449 505 1434 c 0,92,93
 543 1419 543 1419 568 1395 c 0,94,95
 615 1352 615 1352 636 1295 c 0,96,97
 657 1238 657 1238 664 1175 c 0,98,99
 671 1112 671 1112 669 1047 c 0,100,101
 667 981 667 981 669 922 c 0,102,103
 671 863 671 863 681 813 c 0,104,105
 691 763 691 763 722 732 c 0,106,107
 752 701 752 701 792 689 c 0,108,109
 832 676 832 676 867 673 c 0,110,111
 908 669 908 669 952 675 c 0,112,-1
 952 550 l 0,0,1
EndSplineSet
EndChar

StartChar: asciitilde
Encoding: 97 126 97
Width: 1746
VWidth: 1024
Flags: W
LayerCount: 2
Fore
SplineSet
783 314 m 0,0,1
 751 291 751 291 724 276 c 0,2,3
 697 261 697 261 673 252 c 0,4,5
 649 243 649 243 626 239 c 0,6,7
 603 235 603 235 581 235 c 0,8,9
 543 235 543 235 507 246 c 0,10,11
 471 257 471 257 435 270 c 0,12,13
 399 283 399 283 363 294 c 0,14,15
 327 305 327 305 288 305 c 0,16,17
 252 305 252 305 204 283 c 0,18,19
 156 261 156 261 90 211 c 0,20,-1
 90 310 l 0,21,22
 149 355 149 355 201 373 c 0,23,24
 252 391 252 391 294 391 c 0,25,26
 324 391 324 391 352 385 c 0,27,28
 380 379 380 379 408 369 c 0,29,30
 435 360 435 360 462 349 c 0,31,32
 489 339 489 339 517 331 c 0,33,34
 533 326 533 326 550 324 c 0,35,36
 566 321 566 321 582 321 c 0,37,38
 599 321 599 321 618 325 c 0,39,40
 637 329 637 329 662 340 c 0,41,42
 686 350 686 350 716 368 c 0,43,44
 746 386 746 386 783 414 c 0,45,-1
 783 314 l 0,0,1
EndSplineSet
EndChar

StartChar: inherent
Encoding: 103 -1 98
Width: 28
Flags: W
LayerCount: 2
Fore
SplineSet
-248 1645 m 1,0,1
 -172 1612 -172 1612 -113.5 1489 c 128,-1,2
 -55 1366 -55 1366 -55 1243 c 256,3,4
 -55 1120 -55 1120 -111 1049 c 0,5,6
 -177 967 -177 967 -307 967 c 2,7,-1
 -594 967 l 1,8,-1
 -594 1190 l 1,9,-1
 -397 1190 l 2,10,11
 -301 1190 -301 1190 -254 1237 c 128,-1,12
 -207 1284 -207 1284 -207 1356 c 256,13,14
 -207 1428 -207 1428 -248 1490 c 128,-1,15
 -289 1552 -289 1552 -369 1585 c 1,16,17
 -310 1608 -310 1608 -270 1630 c 0,18,19
 -266 1633 -266 1633 -248 1645 c 1,0,1
-4 -2 m 1,20,-1
 -2 -2 l 1,21,-1
 -4 -2 l 1,20,-1
-4 -2 m 1,22,-1
 -2 -2 l 1,23,-1
 -4 -2 l 1,22,-1
EndSplineSet
EndChar

StartChar: makewide
Encoding: 104 -1 99
Width: 792
Flags: W
LayerCount: 2
Fore
SplineSet
504 963 m 1,0,1
 590 895 590 895 638 765 c 128,-1,2
 686 635 686 635 686 483 c 0,3,4
 686 272 686 272 586 139 c 0,5,6
 469 -19 469 -19 252 -18 c 0,7,8
 84 -18 84 -18 -17.5 107.5 c 128,-1,9
 -119 233 -119 233 -141 424 c 1,10,-1
 -102 428 l 1,11,12
 -73 367 -73 367 -41 336 c 0,13,14
 63 240 63 240 266 240 c 0,15,16
 397 240 397 240 478 330 c 128,-1,17
 559 420 559 420 559 545 c 0,18,19
 559 690 559 690 455 799 c 0,20,21
 332 928 332 928 100 965 c 1,22,-1
 100 1188 l 1,23,-1
 500 1188 l 1,24,-1
 504 963 l 1,0,1
EndSplineSet
EndChar

StartChar: shortrr
Encoding: 105 -1 100
Width: 1286
Flags: W
LayerCount: 2
Fore
SplineSet
1227 963 m 1,0,-1
 412 963 l 2,1,2
 318 963 318 963 263.5 911.5 c 128,-1,3
 209 860 209 860 209 795 c 0,4,5
 209 748 209 748 239.5 717 c 128,-1,6
 270 686 270 686 336 686 c 2,7,-1
 711 686 l 1,8,-1
 711 453 l 1,9,-1
 358 453 l 2,10,11
 284 453 284 453 241.5 413 c 128,-1,12
 199 373 199 373 199 319 c 0,13,14
 199 210 199 210 317 211 c 0,15,16
 378 211 378 211 412 180.5 c 128,-1,17
 446 150 446 150 446 106 c 0,18,19
 446 65 446 65 413.5 32.5 c 128,-1,20
 381 0 381 0 322 0 c 0,21,22
 246 0 246 0 166 68 c 0,23,24
 64 154 64 154 63 279 c 0,25,26
 63 402 63 402 135 483 c 0,27,28
 186 542 186 542 266 573 c 1,29,30
 170 616 170 616 118 697 c 128,-1,31
 66 778 66 778 66 872 c 0,32,33
 66 1001 66 1001 154 1090 c 0,34,35
 254 1188 254 1188 426 1188 c 2,36,-1
 1227 1188 l 1,37,-1
 1227 963 l 1,0,-1
EndSplineSet
EndChar

StartChar: anusvara
Encoding: 107 3202 101
Width: 1034
Flags: W
LayerCount: 2
Fore
SplineSet
987 606 m 0,0,1
 987 301 987 301 846 129 c 1,2,3
 717 -25 717 -25 528 -25 c 0,4,5
 344 -25 344 -25 213 123 c 0,6,7
 68 289 68 289 68 563 c 0,8,9
 68 839 68 839 186.5 1013.5 c 128,-1,10
 305 1188 305 1188 518 1188 c 0,11,12
 751 1188 751 1188 874 1022 c 0,13,14
 987 868 987 868 987 606 c 0,0,1
891 580 m 0,15,16
 891 719 891 719 788.5 833.5 c 128,-1,17
 686 948 686 948 528 948 c 0,18,19
 366 948 366 948 268 838.5 c 128,-1,20
 170 729 170 729 170 575 c 0,21,22
 170 409 170 409 287 309 c 0,23,24
 391 219 391 219 539 219 c 0,25,26
 684 219 684 219 780 307 c 0,27,28
 889 408 889 408 891 580 c 0,15,16
EndSplineSet
EndChar

StartChar: u0C83
Encoding: 108 3203 102
Width: 575
Flags: W
LayerCount: 2
Fore
SplineSet
506 934 m 1,0,1
 506 805 506 805 446.5 739.5 c 128,-1,2
 387 674 387 674 297 674 c 256,3,4
 207 674 207 674 141 739 c 0,5,6
 67 813 67 813 68 932 c 0,7,8
 68 1036 68 1036 125 1109 c 128,-1,9
 182 1182 182 1182 285 1182 c 0,10,11
 394 1182 394 1182 452 1112.5 c 128,-1,12
 510 1043 510 1043 506 934 c 1,0,1
510 244 m 1,13,14
 510 119 510 119 450.5 53.5 c 128,-1,15
 391 -12 391 -12 301 -12 c 256,16,17
 211 -12 211 -12 145 53 c 0,18,19
 71 127 71 127 72 244 c 0,20,21
 72 346 72 346 129 419 c 128,-1,22
 186 492 186 492 289 492 c 0,23,24
 398 492 398 492 456 422.5 c 128,-1,25
 514 353 514 353 510 244 c 1,13,14
440 930 m 0,26,27
 440 973 440 973 397 996.5 c 128,-1,28
 354 1020 354 1020 293 1020 c 256,29,30
 232 1020 232 1020 194 998.5 c 128,-1,31
 156 977 156 977 156 930 c 0,32,33
 156 887 156 887 197 863.5 c 128,-1,34
 238 840 238 840 297 840 c 0,35,36
 354 840 354 840 398 863.5 c 128,-1,37
 442 887 442 887 440 930 c 0,26,27
442 242 m 0,38,39
 442 287 442 287 399 310.5 c 128,-1,40
 356 334 356 334 295 334 c 0,41,42
 236 334 236 334 196 310.5 c 128,-1,43
 156 287 156 287 156 242 c 0,44,45
 156 209 156 209 180 186 c 0,46,47
 219 149 219 149 295 150 c 0,48,49
 354 150 354 150 397 173.5 c 128,-1,50
 440 197 440 197 442 242 c 0,38,39
EndSplineSet
EndChar

StartChar: avowel
Encoding: 109 3205 103
Width: 1591
Flags: W
LayerCount: 2
Fore
SplineSet
1524 696 m 0,0,1
 1524 358 1524 358 1294 156 c 0,2,3
 1089 -26 1089 -26 793 -27 c 256,4,5
 496 -27 496 -27 293 160 c 0,6,7
 68 365 68 365 68 725 c 0,8,9
 68 920 68 920 156 1067 c 0,10,11
 256 1235 256 1235 422 1235 c 0,12,13
 516 1235 516 1235 564 1162.5 c 128,-1,14
 612 1090 612 1090 612 985 c 0,15,16
 612 862 612 862 555 774 c 0,17,18
 489 674 489 674 385 674 c 0,19,20
 319 674 319 674 269 715 c 128,-1,21
 219 756 219 756 190 831 c 1,22,23
 165 774 165 774 166 709 c 1,24,25
 184 469 184 469 373 332 c 0,26,27
 543 209 543 209 786 209 c 0,28,29
 1044 209 1044 209 1227 346 c 0,30,31
 1430 500 1430 500 1430 752 c 1,32,-1
 1421 825 l 1,33,-1
 1339 717 l 1,34,-1
 676 717 l 1,35,-1
 676 864 l 1,36,-1
 1004 864 l 1,37,38
 996 887 996 887 993.5 922.5 c 128,-1,39
 991 958 991 958 991 963 c 0,40,41
 991 1065 991 1065 1043.5 1138.5 c 128,-1,42
 1096 1212 1096 1212 1198 1212 c 0,43,44
 1356 1212 1356 1212 1444 1053 c 0,45,46
 1524 907 1524 907 1524 696 c 0,0,1
1198 1018 m 1,47,48
 1153 1014 1153 1014 1127.5 991.5 c 128,-1,49
 1102 969 1102 969 1098 926 c 1,50,51
 1098 879 1098 879 1131.5 856.5 c 128,-1,52
 1165 834 1165 834 1212 834 c 0,53,54
 1269 834 1269 834 1312.5 860.5 c 128,-1,55
 1356 887 1356 887 1356 932 c 0,56,57
 1356 985 1356 985 1280 1008 c 1,58,59
 1255 1012 1255 1012 1198 1018 c 1,47,48
414 1059 m 1,60,61
 326 1059 326 1059 276.5 1025 c 128,-1,62
 227 991 227 991 227 954 c 0,63,64
 227 901 227 901 258 864 c 0,65,66
 303 813 303 813 391 813 c 0,67,68
 452 813 452 813 488 854 c 128,-1,69
 524 895 524 895 524 948 c 256,70,71
 524 1001 524 1001 502 1029 c 128,-1,72
 480 1057 480 1057 414 1059 c 1,60,61
EndSplineSet
EndChar

StartChar: aavowel
Encoding: 110 3206 104
Width: 1591
Flags: W
LayerCount: 2
Fore
SplineSet
1450 438 m 1,0,1
 1450 233 1450 233 1249.5 96 c 128,-1,2
 1049 -41 1049 -41 788 -41 c 0,3,4
 487 -41 487 -41 293 133 c 0,5,6
 66 336 66 336 66 717 c 0,7,8
 66 912 66 912 147 1057 c 0,9,10
 241 1225 241 1225 403 1225 c 0,11,12
 507 1225 507 1225 559.5 1153 c 128,-1,13
 612 1081 612 1081 612 977 c 0,14,15
 612 854 612 854 551 764 c 0,16,17
 479 662 479 662 375 662 c 0,18,19
 293 662 293 662 241.5 724 c 128,-1,20
 190 786 190 786 182 883 c 1,21,22
 178 858 178 858 176 822 c 128,-1,23
 174 786 174 786 174 725 c 0,24,25
 174 463 174 463 375 324 c 0,26,27
 545 205 545 205 803 205 c 0,28,29
 1014 205 1014 205 1172.5 286 c 128,-1,30
 1331 367 1331 367 1331 496 c 0,31,32
 1331 547 1331 547 1317 582.5 c 128,-1,33
 1303 618 1303 618 1286 637 c 1,34,35
 1255 629 1255 629 1188.5 627 c 128,-1,36
 1122 625 1122 625 1120 625 c 2,37,-1
 664 625 l 1,38,-1
 664 872 l 1,39,-1
 1104 872 l 1,40,41
 1065 938 1065 938 1065 1028 c 256,42,43
 1065 1118 1065 1118 1112 1177.5 c 128,-1,44
 1159 1237 1159 1237 1264 1237 c 0,45,46
 1397 1237 1397 1237 1465.5 1158 c 128,-1,47
 1534 1079 1534 1079 1534 963 c 0,48,49
 1534 877 1534 877 1496 797 c 128,-1,50
 1458 717 1458 717 1391 674 c 1,51,52
 1416 641 1416 641 1435 583.5 c 128,-1,53
 1454 526 1454 526 1450 438 c 1,0,1
1430 936 m 0,54,55
 1430 967 1430 967 1405 967 c 0,56,57
 1374 967 1374 967 1303 920 c 0,58,59
 1280 906 1280 906 1237 872 c 1,60,61
 1245 872 1245 872 1266.5 870 c 128,-1,62
 1288 868 1288 868 1305 868 c 0,63,64
 1358 868 1358 868 1394 882.5 c 128,-1,65
 1430 897 1430 897 1430 936 c 0,54,55
422 1020 m 1,66,67
 361 1020 361 1020 324 997 c 0,68,69
 314 993 314 993 299 977 c 1,70,71
 297 938 297 938 301 920 c 0,72,73
 319 859 319 859 399 858 c 0,74,75
 450 858 450 858 480 884.5 c 128,-1,76
 510 911 510 911 510 950 c 0,77,78
 510 1024 510 1024 422 1020 c 1,66,67
EndSplineSet
EndChar

StartChar: ivowel
Encoding: 111 3207 105
Width: 1556
Flags: W
LayerCount: 2
Fore
SplineSet
1507 788 m 1,0,1
 1507 686 1507 686 1460 586 c 1,2,3
 1431 533 1431 533 1389 479 c 1,4,5
 1393 456 1393 456 1393 442 c 0,6,7
 1393 411 1393 411 1348 287 c 0,8,9
 1325 226 1325 226 1325 193 c 0,10,11
 1325 150 1325 150 1358 150 c 0,12,13
 1381 150 1381 150 1399 178.5 c 128,-1,14
 1417 207 1417 207 1417 264 c 1,15,-1
 1499 205 l 1,16,17
 1499 182 1499 182 1497 154 c 1,18,19
 1497 78 1497 78 1449 37 c 128,-1,20
 1401 -4 1401 -4 1327 -4 c 0,21,22
 1251 -4 1251 -4 1199 41 c 128,-1,23
 1147 86 1147 86 1147 170 c 0,24,25
 1147 195 1147 195 1170.5 250 c 128,-1,26
 1194 305 1194 305 1217 356 c 1,27,28
 1186 340 1186 340 1141 327.5 c 128,-1,29
 1096 315 1096 315 1051 315 c 0,30,31
 924 315 924 315 855 366.5 c 128,-1,32
 786 418 786 418 786 494 c 256,33,34
 786 570 786 570 854 621 c 0,35,36
 934 680 934 680 1067 680 c 0,37,38
 1163 680 1163 680 1239 647 c 0,39,40
 1286 624 1286 624 1329 588 c 1,41,42
 1354 604 1354 604 1373.5 647 c 128,-1,43
 1393 690 1393 690 1393 733 c 0,44,45
 1393 829 1393 829 1321 891.5 c 128,-1,46
 1249 954 1249 954 1139 954 c 0,47,48
 1041 954 1041 954 942.5 896 c 128,-1,49
 844 838 844 838 764 713 c 1,50,51
 731 799 731 799 700 838 c 0,52,53
 600 967 600 967 446 967 c 0,54,55
 342 967 342 967 269.5 908.5 c 128,-1,56
 197 850 197 850 197 782 c 0,57,58
 197 723 197 723 253 685 c 128,-1,59
 309 647 309 647 428 647 c 1,60,61
 432 633 432 633 439 611.5 c 128,-1,62
 446 590 446 590 446 567 c 0,63,64
 446 536 446 536 428 516 c 128,-1,65
 410 496 410 496 362 496 c 0,66,67
 229 496 229 496 150.5 597 c 128,-1,68
 72 698 72 698 72 836 c 0,69,70
 72 988 72 988 156 1090 c 0,71,72
 252 1207 252 1207 426 1206 c 0,73,74
 571 1206 571 1206 676 1069 c 0,75,76
 709 1024 709 1024 752 934 c 1,77,78
 828 1063 828 1063 936 1129.5 c 128,-1,79
 1044 1196 1044 1196 1155 1196 c 0,80,81
 1298 1196 1298 1196 1399.5 1089.5 c 128,-1,82
 1501 983 1501 983 1507 788 c 1,0,1
1247 535 m 1,83,84
 1224 562 1224 562 1183.5 576 c 128,-1,85
 1143 590 1143 590 1096 590 c 0,86,87
 1051 590 1051 590 1021 569.5 c 128,-1,88
 991 549 991 549 991 524 c 0,89,90
 991 471 991 471 1085 471 c 0,91,92
 1130 471 1130 471 1173 486.5 c 128,-1,93
 1216 502 1216 502 1247 535 c 1,83,84
EndSplineSet
EndChar

StartChar: iivowel
Encoding: 112 3208 106
Width: 2109
Flags: W
LayerCount: 2
Fore
SplineSet
2046 846 m 0,0,1
 2046 727 2046 727 1989 647 c 0,2,3
 1950 590 1950 590 1892 565 c 1,4,5
 1964 491 1964 491 2000 411.5 c 128,-1,6
 2036 332 2036 332 2036 264 c 0,7,8
 2036 155 2036 155 1969.5 78.5 c 128,-1,9
 1903 2 1903 2 1817 2 c 0,10,11
 1735 2 1735 2 1692 72 c 0,12,13
 1678 95 1678 95 1667 141 c 1,14,15
 1757 141 1757 141 1807.5 203.5 c 128,-1,16
 1858 266 1858 266 1858 360 c 0,17,18
 1858 442 1858 442 1815 516 c 1,19,20
 1790 512 1790 512 1757 505 c 128,-1,21
 1724 498 1724 498 1702 498 c 2,22,-1
 1427 498 l 1,23,-1
 1419 467 l 1,24,25
 1374 244 1374 244 1202 113 c 1,26,27
 1042 -6 1042 -6 842 -6 c 0,28,29
 637 -6 637 -6 485 111 c 0,30,31
 319 240 319 240 289 463 c 1,32,-1
 287 500 l 1,33,-1
 76 500 l 1,34,-1
 76 731 l 1,35,-1
 317 731 l 1,36,37
 331 792 331 792 379 858 c 0,38,39
 418 909 418 909 479 963 c 1,40,-1
 285 963 l 1,41,-1
 285 1186 l 1,42,-1
 1059 1186 l 2,43,44
 1153 1186 1153 1186 1200 1231 c 128,-1,45
 1247 1276 1247 1276 1247 1341 c 0,46,47
 1247 1398 1247 1398 1221.5 1446.5 c 128,-1,48
 1196 1495 1196 1495 1145 1520 c 1,49,-1
 1249 1595 l 1,50,51
 1321 1558 1321 1558 1362 1481.5 c 128,-1,52
 1403 1405 1403 1405 1403 1315 c 0,53,54
 1403 1215 1403 1215 1348.5 1127.5 c 128,-1,55
 1294 1040 1294 1040 1190 997 c 1,56,57
 1249 960 1249 960 1294 907 c 0,58,59
 1362 827 1362 827 1395 727 c 1,60,-1
 1640 727 l 1,61,62
 1611 766 1611 766 1595 814 c 128,-1,63
 1579 862 1579 862 1579 938 c 0,64,65
 1579 1038 1579 1038 1638.5 1094.5 c 128,-1,66
 1698 1151 1698 1151 1786 1151 c 0,67,68
 1890 1151 1890 1151 1962 1077 c 0,69,70
 2044 993 2044 993 2046 846 c 0,0,1
1958 860 m 0,71,72
 1958 911 1958 911 1913 945 c 128,-1,73
 1868 979 1868 979 1810 979 c 0,74,75
 1757 979 1757 979 1726.5 948.5 c 128,-1,76
 1696 918 1696 918 1696 850 c 0,77,78
 1696 805 1696 805 1718 768 c 1,79,80
 1743 737 1743 737 1747 729 c 1,81,82
 1792 725 1792 725 1815 725 c 0,83,84
 1883 725 1883 725 1913 750 c 0,85,86
 1956 782 1956 782 1958 860 c 0,71,72
1229 725 m 1,87,88
 1204 821 1204 821 1137 887 c 0,89,90
 1028 989 1028 989 846 989 c 0,91,92
 666 989 666 989 563 903 c 0,93,94
 477 831 477 831 467 723 c 1,95,-1
 1229 725 l 1,87,88
1221 508 m 1,96,-1
 479 508 l 1,97,98
 479 361 479 361 596 272 c 0,99,100
 698 196 698 196 844 197 c 0,101,102
 991 197 991 197 1096 272 c 0,103,104
 1215 361 1215 361 1221 508 c 1,96,-1
EndSplineSet
EndChar

StartChar: uvowel
Encoding: 113 3209 107
Width: 2244
Flags: W
LayerCount: 2
Fore
SplineSet
1839 1165 m 1,0,1
 2005 1104 2005 1104 2095 930 c 0,2,3
 2177 770 2177 770 2177 567 c 0,4,5
 2177 327 2177 327 2068 168 c 0,6,7
 1949 -8 1949 -8 1745 -8 c 0,8,9
 1559 -8 1559 -8 1470 135 c 0,10,11
 1398 252 1398 252 1399 440 c 0,12,13
 1399 506 1399 506 1407 565 c 1,14,15
 1407 588 1407 588 1409 614.5 c 128,-1,16
 1411 641 1411 641 1411 651 c 0,17,18
 1411 794 1411 794 1345.5 870 c 128,-1,19
 1280 946 1280 946 1186 946 c 0,20,21
 1088 946 1088 946 1014 872.5 c 128,-1,22
 940 799 940 799 940 668 c 0,23,24
 940 652 940 652 941 637.5 c 128,-1,25
 942 623 942 623 950 580 c 0,26,27
 983 437 983 437 983 326 c 0,28,29
 983 156 983 156 900 64.5 c 128,-1,30
 817 -27 817 -27 641 -27 c 0,31,32
 381 -27 381 -27 219 225 c 0,33,34
 74 448 74 448 74 739 c 0,35,36
 74 940 74 940 157 1074 c 128,-1,37
 240 1208 240 1208 395 1208 c 0,38,39
 499 1208 499 1208 558.5 1114 c 128,-1,40
 618 1020 618 1020 618 889 c 0,41,42
 618 766 618 766 567 690 c 0,43,44
 508 600 508 600 406 600 c 0,45,46
 320 600 320 600 260 651 c 0,47,48
 215 690 215 690 182 758 c 1,49,50
 180 742 180 742 180 720 c 128,-1,51
 180 698 180 698 180 688 c 0,52,53
 180 498 180 498 268 371 c 0,54,55
 377 213 377 213 596 213 c 0,56,57
 733 213 733 213 799 303 c 0,58,59
 856 383 856 383 856 516 c 0,60,61
 856 547 856 547 852 584 c 128,-1,62
 848 621 848 621 846 639 c 0,63,64
 836 686 836 686 833.5 724 c 128,-1,65
 831 762 831 762 831 809 c 0,66,67
 831 999 831 999 925.5 1109 c 128,-1,68
 1020 1219 1020 1219 1153 1219 c 0,69,70
 1300 1219 1300 1219 1401 1090 c 0,71,72
 1516 945 1516 945 1516 688 c 0,73,74
 1516 622 1516 622 1507 547 c 0,75,76
 1491 422 1491 422 1584 313.5 c 128,-1,77
 1677 205 1677 205 1817 205 c 0,78,79
 1936 205 1936 205 2005.5 289 c 128,-1,80
 2075 373 2075 373 2075 496 c 0,81,82
 2075 650 2075 650 1972 780 c 0,83,84
 1855 932 1855 932 1640 991 c 1,85,86
 1630 1024 1630 1024 1660 1101 c 128,-1,87
 1690 1178 1690 1178 1772 1178 c 0,88,89
 1796 1177 1796 1177 1839 1165 c 1,0,1
410 774 m 0,90,91
 357 778 357 778 332 786 c 0,92,93
 252 817 252 817 252 899 c 0,94,95
 252 946 252 946 278.5 969.5 c 128,-1,96
 305 993 305 993 377 993 c 256,97,98
 449 993 449 993 488.5 956.5 c 128,-1,99
 528 920 528 920 528 868 c 0,100,101
 529 768 529 768 410 774 c 0,90,91
EndSplineSet
EndChar

StartChar: uuvowel
Encoding: 114 3210 108
Width: 2574
Flags: W
LayerCount: 2
Fore
SplineSet
2527 510 m 1,0,1
 2527 227 2527 227 2413 76 c 1,2,3
 2317 -55 2317 -55 2169 -55 c 0,4,5
 2046 -55 2046 -55 1952 42 c 128,-1,6
 1858 139 1858 139 1858 293 c 0,7,8
 1858 451 1858 451 1931 532 c 0,9,10
 1997 604 1997 604 2093 604 c 0,11,12
 2179 604 2179 604 2245.5 552 c 128,-1,13
 2312 500 2312 500 2312 424 c 0,14,15
 2312 356 2312 356 2269 319.5 c 128,-1,16
 2226 283 2226 283 2169 283 c 0,17,18
 2122 283 2122 283 2088 306.5 c 128,-1,19
 2054 330 2054 330 2054 373 c 0,20,21
 2054 439 2054 439 2101 461 c 1,22,23
 2115 465 2115 465 2152 467 c 1,24,25
 2152 492 2152 492 2093 492 c 0,26,27
 2036 492 2036 492 1997 463 c 0,28,29
 1944 424 1944 424 1944 356 c 0,30,31
 1944 262 1944 262 2002 210 c 128,-1,32
 2060 158 2060 158 2148 158 c 0,33,34
 2263 158 2263 158 2343 244 c 0,35,36
 2437 346 2437 346 2437 522 c 0,37,38
 2437 733 2437 733 2318 864 c 0,39,40
 2209 983 2209 983 2062 983 c 0,41,42
 1931 983 1931 983 1843 881 c 0,43,44
 1743 764 1743 764 1743 561 c 0,45,46
 1743 504 1743 504 1751 437.5 c 128,-1,47
 1759 371 1759 371 1759 317 c 0,48,49
 1759 143 1759 143 1676 45 c 128,-1,50
 1593 -53 1593 -53 1483 -53 c 256,51,52
 1372 -53 1372 -53 1292 37 c 0,53,54
 1204 139 1204 139 1204 307 c 0,55,56
 1204 368 1204 368 1206 397 c 128,-1,57
 1208 426 1208 426 1227.5 509 c 128,-1,58
 1247 592 1247 592 1247 664 c 0,59,60
 1247 801 1247 801 1188.5 876.5 c 128,-1,61
 1130 952 1130 952 1049 952 c 0,62,63
 969 952 969 952 910.5 879.5 c 128,-1,64
 852 807 852 807 852 674 c 0,65,66
 852 645 852 645 852 628.5 c 128,-1,67
 852 612 852 612 863 561 c 128,-1,68
 874 510 874 510 876.5 469 c 128,-1,69
 879 428 879 428 879 381 c 0,70,71
 879 178 879 178 774 59 c 0,72,73
 680 -50 680 -50 535 -49 c 0,74,75
 353 -49 353 -49 223 117 c 0,76,77
 76 307 76 307 76 633 c 0,78,79
 76 899 76 899 199 1061 c 0,80,81
 308 1202 308 1202 446 1202 c 0,82,83
 542 1202 542 1202 608 1126.5 c 128,-1,84
 674 1051 674 1051 674 913 c 0,85,86
 674 782 674 782 608.5 710.5 c 128,-1,87
 543 639 543 639 453 639 c 0,88,89
 373 639 373 639 317.5 697.5 c 128,-1,90
 262 756 262 756 262 866 c 1,91,-1
 264 905 l 1,92,93
 227 868 227 868 203 811 c 0,94,95
 170 735 170 735 170 635 c 0,96,97
 170 447 170 447 286.5 320 c 128,-1,98
 403 193 403 193 543 193 c 0,99,100
 647 193 647 193 713.5 275.5 c 128,-1,101
 780 358 780 358 780 526 c 0,102,103
 780 600 780 600 766 681 c 128,-1,104
 752 762 752 762 752 834 c 0,105,106
 752 1010 752 1010 843 1114.5 c 128,-1,107
 934 1219 934 1219 1057 1219 c 256,108,109
 1180 1219 1180 1219 1262 1122 c 0,110,111
 1356 1013 1356 1013 1356 819 c 0,112,113
 1356 731 1356 731 1331 614 c 0,114,115
 1317 538 1317 538 1317 487 c 0,116,117
 1317 368 1317 368 1371 298.5 c 128,-1,118
 1425 229 1425 229 1497 229 c 0,119,120
 1563 229 1563 229 1610 291.5 c 128,-1,121
 1657 354 1657 354 1657 469 c 0,122,123
 1657 512 1657 512 1648.5 561 c 128,-1,124
 1640 610 1640 610 1638 650 c 128,-1,125
 1636 690 1636 690 1636 741 c 0,126,127
 1636 972 1636 972 1755 1110 c 0,128,129
 1866 1235 1866 1235 2032 1235 c 0,130,131
 2229 1235 2229 1235 2372 1059 c 1,132,133
 2531 858 2531 858 2527 510 c 1,0,1
582 883 m 1,134,135
 582 926 582 926 527.5 971 c 128,-1,136
 473 1016 473 1016 420 1016 c 0,137,138
 352 1016 352 1016 352 928 c 0,139,140
 352 867 352 867 386 836 c 128,-1,141
 420 805 420 805 467 805 c 0,142,143
 510 805 510 805 545 828.5 c 128,-1,144
 580 852 580 852 582 883 c 1,134,135
EndSplineSet
EndChar

StartChar: rvocalicvowel.part
Encoding: 116 -1 110
Width: 1779
Flags: W
LayerCount: 2
Fore
SplineSet
1710 352 m 1,0,1
 1710 170 1710 170 1622 72.5 c 128,-1,2
 1534 -25 1534 -25 1401 -25 c 0,3,4
 1262 -25 1262 -25 1137 70 c 0,5,6
 1000 172 1000 172 924 354 c 1,7,8
 881 209 881 209 807 119 c 1,9,10
 692 -26 692 -26 518 -27 c 0,11,12
 358 -27 358 -27 266 78.5 c 128,-1,13
 174 184 174 184 174 315 c 0,14,15
 174 415 174 415 229.5 482 c 128,-1,16
 285 549 285 549 389 549 c 0,17,18
 483 549 483 549 537.5 492.5 c 128,-1,19
 592 436 592 436 592 362 c 256,20,21
 592 288 592 288 547 236 c 128,-1,22
 502 184 502 184 420 184 c 0,23,24
 387 184 387 184 357.5 193.5 c 128,-1,25
 328 203 328 203 305 219 c 1,26,27
 319 160 319 160 374.5 119 c 128,-1,28
 430 78 430 78 498 78 c 0,29,30
 617 78 617 78 674 223 c 0,31,32
 717 334 717 334 717 514 c 0,33,34
 717 725 717 725 657 891 c 0,35,36
 577 1110 577 1110 426 1110 c 0,37,38
 358 1110 358 1110 311 1073 c 0,39,40
 278 1048 278 1048 262 1006 c 1,41,42
 293 1014 293 1014 326 1014 c 0,43,44
 406 1014 406 1014 460 967 c 128,-1,45
 514 920 514 920 514 817 c 0,46,47
 514 735 514 735 458.5 688 c 128,-1,48
 403 641 403 641 324 641 c 0,49,50
 228 641 228 641 160 702 c 0,51,52
 80 774 80 774 80 897 c 0,53,54
 80 1030 80 1030 182.5 1118 c 128,-1,55
 285 1206 285 1206 430 1206 c 0,56,57
 606 1206 606 1206 743 1073 c 0,58,59
 903 915 903 915 954 610 c 1,60,61
 999 473 999 473 1038 408 c 0,62,63
 1163 203 1163 203 1352 203 c 0,64,65
 1461 203 1461 203 1523 271.5 c 128,-1,66
 1585 340 1585 340 1585 442 c 0,67,68
 1585 569 1585 569 1499 700 c 0,69,70
 1403 847 1403 847 1221 956 c 1,71,-1
 965 956 l 1,72,-1
 965 1182 l 1,73,-1
 1382 1182 l 2,74,75
 1478 1182 1478 1182 1523.5 1225 c 128,-1,76
 1569 1268 1569 1268 1569 1335 c 0,77,78
 1569 1394 1569 1394 1540 1442.5 c 128,-1,79
 1511 1491 1511 1491 1460 1516 c 1,80,-1
 1550 1587 l 1,81,82
 1616 1554 1616 1554 1661 1468 c 128,-1,83
 1706 1382 1706 1382 1706 1288 c 0,84,85
 1706 1149 1706 1149 1618 1061 c 0,86,87
 1514 959 1514 959 1305 958 c 1,88,89
 1442 878 1442 878 1509 813 c 0,90,91
 1714 616 1714 616 1710 352 c 1,0,1
365 836 m 1,92,93
 365 875 365 875 343.5 890 c 128,-1,94
 322 905 322 905 285 905 c 0,95,96
 269 905 269 905 252.5 901 c 128,-1,97
 236 897 236 897 231 897 c 1,98,99
 227 874 227 874 227 852 c 0,100,101
 227 813 227 813 243.5 783.5 c 128,-1,102
 260 754 260 754 299 754 c 1,103,104
 322 752 322 752 344.5 777.5 c 128,-1,105
 367 803 367 803 365 836 c 1,92,93
471 356 m 1,106,107
 471 413 471 413 412 414 c 0,108,109
 375 414 375 414 339 390.5 c 128,-1,110
 303 367 303 367 305 342 c 0,111,112
 309 317 309 317 334.5 303 c 128,-1,113
 360 289 360 289 397 289 c 0,114,115
 428 289 428 289 447.5 305 c 128,-1,116
 467 321 467 321 471 356 c 1,106,107
EndSplineSet
EndChar

StartChar: lvocalicvowel.part
Encoding: 118 -1 112
Width: 1615
Flags: W
LayerCount: 2
Fore
SplineSet
1552 217 m 1,0,1
 1552 106 1552 106 1472.5 44 c 128,-1,2
 1393 -18 1393 -18 1282 -18 c 0,3,4
 1173 -18 1173 -18 1094 43 c 1,5,6
 1006 115 1006 115 1006 233 c 0,7,8
 1006 356 1006 356 1229 565 c 0,9,10
 1338 665 1338 665 1337 780 c 0,11,12
 1337 874 1337 874 1268.5 917.5 c 128,-1,13
 1200 961 1200 961 1106 961 c 0,14,15
 973 961 973 961 879 821 c 0,16,17
 848 776 848 776 811 680 c 1,18,-1
 768 678 l 1,19,20
 743 772 743 772 719 817 c 1,21,22
 633 958 633 958 473 958 c 0,23,24
 350 958 350 958 280.5 909 c 128,-1,25
 211 860 211 860 211 788 c 0,26,27
 211 737 211 737 259 690 c 128,-1,28
 307 643 307 643 397 621 c 1,29,30
 397 588 397 588 383 578 c 1,31,32
 358 553 358 553 307 553 c 0,33,34
 196 553 196 553 137 637 c 128,-1,35
 78 721 78 721 78 836 c 0,36,37
 78 977 78 977 168 1085 c 1,38,39
 270 1204 270 1204 432 1204 c 0,40,41
 569 1204 569 1204 672 1114 c 0,42,43
 740 1055 740 1055 784 958 c 1,44,45
 841 1052 841 1052 915 1118 c 0,46,47
 1030 1218 1030 1218 1149 1219 c 0,48,49
 1294 1219 1294 1219 1399.5 1116.5 c 128,-1,50
 1505 1014 1505 1014 1505 877 c 0,51,52
 1505 709 1505 709 1331 551 c 128,-1,53
 1157 393 1157 393 1157 307 c 0,54,55
 1157 246 1157 246 1193 210 c 128,-1,56
 1229 174 1229 174 1282 174 c 0,57,58
 1348 174 1348 174 1401 219 c 0,59,60
 1467 272 1467 272 1485 362 c 1,61,62
 1508 344 1508 344 1516 330 c 0,63,64
 1548 283 1548 283 1552 217 c 1,0,1
EndSplineSet
EndChar

StartChar: evowel
Encoding: 119 3214 113
Width: 1556
Flags: W
LayerCount: 2
Fore
SplineSet
1487 391 m 1,0,1
 1487 221 1487 221 1407 106 c 0,2,3
 1317 -25 1317 -25 1149 -25 c 0,4,5
 1018 -25 1018 -25 909 90 c 0,6,7
 837 164 837 164 784 281 c 1,8,9
 731 164 731 164 664 88 c 0,10,11
 555 -31 555 -31 426 -31 c 0,12,13
 252 -31 252 -31 156 100 c 0,14,15
 74 211 74 211 74 369 c 0,16,17
 74 531 74 531 160 616 c 0,18,19
 234 690 234 690 344 690 c 0,20,21
 440 690 440 690 516 635 c 128,-1,22
 592 580 592 580 592 492 c 0,23,24
 592 426 592 426 554 390 c 128,-1,25
 516 354 516 354 483 365 c 1,26,27
 460 375 460 375 461 428 c 0,28,29
 461 469 461 469 424 491.5 c 128,-1,30
 387 514 387 514 336 514 c 0,31,32
 275 514 275 514 234 485.5 c 128,-1,33
 193 457 193 457 193 399 c 0,34,35
 193 313 193 313 254 261 c 128,-1,36
 315 209 315 209 412 209 c 0,37,38
 572 209 572 209 686 346 c 0,39,40
 723 391 723 391 768 485 c 1,41,-1
 811 485 l 1,42,43
 848 395 848 395 881 350 c 0,44,45
 983 213 983 213 1143 213 c 0,46,47
 1252 213 1252 213 1318 300 c 128,-1,48
 1384 387 1384 387 1384 526 c 0,49,50
 1384 692 1384 692 1172.5 833.5 c 128,-1,51
 961 975 961 975 694 975 c 0,52,53
 628 975 628 975 545 961 c 0,54,55
 531 959 531 959 506 958 c 0,56,57
 453 958 453 958 417 988 c 128,-1,58
 381 1018 381 1018 381 1063 c 0,59,60
 381 1120 381 1120 440 1159 c 0,61,62
 514 1206 514 1206 647 1206 c 0,63,64
 930 1206 930 1206 1169 1038 c 0,65,66
 1493 811 1493 811 1487 391 c 1,0,1
EndSplineSet
EndChar

StartChar: eevowel
Encoding: 120 3215 114
Width: 1556
Flags: W
LayerCount: 2
Fore
SplineSet
1120 215 m 1,0,1
 1251 215 1251 215 1321 296 c 128,-1,2
 1391 377 1391 377 1391 506 c 0,3,4
 1391 715 1391 715 1239 909 c 0,5,6
 1071 1122 1071 1122 809 1188 c 1,7,-1
 817 1106 l 1,8,9
 817 1010 817 1010 741.5 945.5 c 128,-1,10
 666 881 666 881 563 881 c 0,11,12
 438 881 438 881 348 971 c 0,13,14
 244 1075 244 1075 227 1276 c 1,15,-1
 227 1350 l 1,16,-1
 317 1350 l 1,17,18
 317 1225 317 1225 397 1145 c 0,19,20
 469 1073 469 1073 559 1073 c 0,21,22
 692 1073 692 1073 692 1206 c 0,23,24
 692 1239 692 1239 641 1292 c 0,25,26
 625 1308 625 1308 588 1339 c 1,27,28
 1018 1292 1018 1292 1266 1004 c 0,29,30
 1483 750 1483 750 1483 438 c 0,31,32
 1483 243 1483 243 1381.5 110 c 128,-1,33
 1280 -23 1280 -23 1106 -23 c 0,34,35
 987 -23 987 -23 893 76 c 1,36,37
 834 142 834 142 788 246 c 1,38,39
 743 137 743 137 678 70 c 0,40,41
 578 -34 578 -34 455 -35 c 0,42,43
 273 -35 273 -35 164 104 c 0,44,45
 74 223 74 223 74 371 c 0,46,47
 74 529 74 529 162 616 c 0,48,49
 238 692 238 692 352 692 c 0,50,51
 448 692 448 692 518 633.5 c 128,-1,52
 588 575 588 575 588 471 c 0,53,54
 588 385 588 385 550 341 c 128,-1,55
 512 297 512 297 453 297 c 0,56,57
 392 297 392 297 338 350 c 1,58,59
 377 360 377 360 393 369 c 0,60,61
 452 402 452 402 453 457 c 0,62,63
 453 502 453 502 419 524.5 c 128,-1,64
 385 547 385 547 334 547 c 0,65,66
 273 547 273 547 222.5 512 c 128,-1,67
 172 477 172 477 172 410 c 0,68,69
 172 314 172 314 244.5 258.5 c 128,-1,70
 317 203 317 203 428 203 c 0,71,72
 573 203 573 203 705 362 c 0,73,74
 748 413 748 413 807 522 c 1,75,76
 846 413 846 413 879 362 c 0,77,78
 981 203 981 203 1120 215 c 1,0,1
EndSplineSet
EndChar

StartChar: aivowel
Encoding: 121 3216 115
Width: 1556
Flags: W
LayerCount: 2
Fore
SplineSet
1120 197 m 1,0,1
 1263 197 1263 197 1336 290 c 128,-1,2
 1409 383 1409 383 1409 522 c 0,3,4
 1409 696 1409 696 1309 829 c 0,5,6
 1200 974 1200 974 1030 975 c 0,7,8
 862 975 862 975 788 842 c 0,9,10
 765 799 765 799 748 705 c 1,11,-1
 709 696 l 1,12,13
 643 848 643 848 549 920.5 c 128,-1,14
 455 993 455 993 360 993 c 0,15,16
 294 993 294 993 251.5 959.5 c 128,-1,17
 209 926 209 926 209 868 c 0,18,19
 209 823 209 823 231 786 c 0,20,21
 233 782 233 782 244 772 c 1,22,23
 228 764 228 764 203 764 c 0,24,25
 152 764 152 764 112 807 c 128,-1,26
 72 850 72 850 72 936 c 0,27,28
 72 1075 72 1075 143.5 1149 c 128,-1,29
 215 1223 215 1223 326 1223 c 0,30,31
 422 1223 422 1223 520 1160.5 c 128,-1,32
 618 1098 618 1098 684 979 c 1,33,34
 717 1065 717 1065 778 1122 c 0,35,36
 872 1208 872 1208 1010 1208 c 0,37,38
 1229 1208 1229 1208 1366 991 c 0,39,40
 1489 794 1489 794 1489 528 c 0,41,42
 1489 295 1489 295 1399 147 c 0,43,44
 1297 -21 1297 -21 1110 -20 c 0,45,46
 995 -20 995 -20 905 70 c 0,47,48
 844 131 844 131 799 225 c 1,49,50
 746 129 746 129 680 72 c 0,51,52
 576 -22 576 -22 451 -23 c 0,53,54
 289 -23 289 -23 184 121 c 0,55,56
 94 246 94 246 94 399 c 0,57,58
 94 546 94 546 182 627.5 c 128,-1,59
 270 709 270 709 387 709 c 0,60,61
 477 709 477 709 541.5 654.5 c 128,-1,62
 606 600 606 600 606 498 c 0,63,64
 606 422 606 422 561 379 c 128,-1,65
 516 336 516 336 455 336 c 256,66,67
 394 336 394 336 356 381 c 1,68,69
 395 389 395 389 414 397 c 0,70,71
 473 426 473 426 473 477 c 0,72,73
 473 522 473 522 437 548.5 c 128,-1,74
 401 575 401 575 350 575 c 0,75,76
 291 575 291 575 247 538.5 c 128,-1,77
 203 502 203 502 203 432 c 0,78,79
 203 323 203 323 273.5 269 c 128,-1,80
 344 215 344 215 449 215 c 0,81,82
 578 215 578 215 674 283 c 0,83,84
 783 359 783 359 782 475 c 1,85,-1
 825 475 l 1,86,87
 835 422 835 422 850 391 c 0,88,89
 936 201 936 201 1120 197 c 1,0,1
EndSplineSet
EndChar

StartChar: ovowel
Encoding: 122 3218 116
Width: 1638
Flags: W
LayerCount: 2
Fore
SplineSet
1341 625 m 1,0,1
 1460 625 1460 625 1524.5 546 c 128,-1,2
 1589 467 1589 467 1589 352 c 0,3,4
 1589 207 1589 207 1499 96 c 0,5,6
 1397 -27 1397 -27 1235 -27 c 0,7,8
 1098 -27 1098 -27 995 63 c 0,9,10
 927 122 927 122 883 217 c 1,11,12
 830 129 830 129 754 61 c 0,13,14
 639 -39 639 -39 520 -39 c 0,15,16
 373 -39 373 -39 270.5 63.5 c 128,-1,17
 168 166 168 166 168 309 c 0,18,19
 168 481 168 481 344 633.5 c 128,-1,20
 520 786 520 786 520 868 c 0,21,22
 520 927 520 927 480 961 c 128,-1,23
 440 995 440 995 383 995 c 0,24,25
 336 995 336 995 298 965.5 c 128,-1,26
 260 936 260 936 260 885 c 256,27,28
 260 834 260 834 326 803 c 0,29,30
 344 795 344 795 391 784 c 1,31,32
 348 741 348 741 283 741 c 0,33,34
 203 741 203 741 140.5 800.5 c 128,-1,35
 78 860 78 860 78 963 c 0,36,37
 78 1088 78 1088 159 1156.5 c 128,-1,38
 240 1225 240 1225 358 1225 c 0,39,40
 481 1225 481 1225 565 1153 c 0,41,42
 661 1071 661 1071 662 932 c 0,43,44
 662 809 662 809 438 604 c 0,45,46
 329 504 329 504 330 395 c 0,47,48
 330 295 330 295 398.5 252 c 128,-1,49
 467 209 467 209 561 209 c 0,50,51
 698 209 698 209 793 352 c 0,52,53
 824 397 824 397 860 494 c 1,54,-1
 899 492 l 1,55,56
 924 402 924 402 948 356 c 0,57,58
 1030 217 1030 217 1186 217 c 0,59,60
 1311 217 1311 217 1380.5 264 c 128,-1,61
 1450 311 1450 311 1450 383 c 0,62,63
 1450 440 1450 440 1405 485 c 128,-1,64
 1360 530 1360 530 1266 555 c 1,65,66
 1258 571 1258 571 1274 600 c 128,-1,67
 1290 629 1290 629 1341 625 c 1,0,1
EndSplineSet
EndChar

StartChar: oovowel
Encoding: 123 3219 117
Width: 1638
Flags: W
LayerCount: 2
Fore
SplineSet
1341 633 m 1,0,1
 1458 633 1458 633 1523.5 553 c 128,-1,2
 1589 473 1589 473 1589 360 c 0,3,4
 1589 213 1589 213 1499 102 c 0,5,6
 1397 -23 1397 -23 1235 -23 c 0,7,8
 1098 -23 1098 -23 995 72 c 0,9,10
 927 133 927 133 883 223 c 1,11,12
 826 129 826 129 752 63 c 0,13,14
 637 -37 637 -37 518 -37 c 0,15,16
 373 -37 373 -37 268.5 67.5 c 128,-1,17
 164 172 164 172 164 315 c 0,18,19
 164 489 164 489 340 645 c 128,-1,20
 516 801 516 801 516 883 c 0,21,22
 516 942 516 942 475 978 c 128,-1,23
 434 1014 434 1014 381 1014 c 0,24,25
 330 1014 330 1014 293 985 c 128,-1,26
 256 956 256 956 256 903 c 256,27,28
 256 850 256 850 322 819 c 0,29,30
 340 811 340 811 387 801 c 1,31,32
 344 758 344 758 276 758 c 0,33,34
 200 758 200 758 138 822.5 c 128,-1,35
 76 887 76 887 76 991 c 0,36,37
 76 1071 76 1071 126 1137.5 c 128,-1,38
 176 1204 176 1204 262 1227 c 1,39,40
 201 1245 201 1245 172 1262 c 0,41,42
 78 1319 78 1319 78 1409 c 0,43,44
 78 1497 78 1497 144.5 1549.5 c 128,-1,45
 211 1602 211 1602 305 1602 c 0,46,47
 352 1602 352 1602 400.5 1587.5 c 128,-1,48
 449 1573 449 1573 494 1544 c 1,49,50
 422 1530 422 1530 389 1516 c 0,51,52
 285 1471 285 1471 285 1389 c 0,53,54
 285 1317 285 1317 328 1278 c 0,55,56
 342 1268 342 1268 371 1253 c 1,57,58
 467 1253 467 1253 549 1192 c 0,59,60
 664 1106 664 1106 664 948 c 0,61,62
 664 825 664 825 440 616 c 0,63,64
 331 514 331 514 332 403 c 0,65,66
 332 303 332 303 406 256 c 0,67,68
 467 217 467 217 561 217 c 0,69,70
 698 217 698 217 793 362 c 0,71,72
 824 409 824 409 860 506 c 1,73,-1
 899 504 l 1,74,75
 924 410 924 410 948 365 c 0,76,77
 1030 224 1030 224 1186 223 c 0,78,79
 1309 223 1309 223 1380.5 272.5 c 128,-1,80
 1452 322 1452 322 1452 393 c 0,81,82
 1452 446 1452 446 1407 493.5 c 128,-1,83
 1362 541 1362 541 1268 569 c 1,84,85
 1260 585 1260 585 1275 612 c 128,-1,86
 1290 639 1290 639 1341 633 c 1,0,1
EndSplineSet
EndChar

StartChar: auvowel
Encoding: 124 3220 118
Width: 1556
Flags: W
LayerCount: 2
Fore
SplineSet
1262 631 m 0,0,1
 1379 631 1379 631 1444 551 c 128,-1,2
 1509 471 1509 471 1509 356 c 0,3,4
 1509 209 1509 209 1419 98 c 0,5,6
 1319 -25 1319 -25 1153 -25 c 0,7,8
 1024 -25 1024 -25 930 72 c 0,9,10
 869 138 869 138 825 242 c 1,11,12
 778 142 778 142 707 68 c 0,13,14
 605 -36 605 -36 487 -37 c 0,15,16
 344 -37 344 -37 238.5 68.5 c 128,-1,17
 133 174 133 174 133 313 c 0,18,19
 133 485 133 485 323.5 641 c 128,-1,20
 514 797 514 797 514 879 c 0,21,22
 514 940 514 940 470 976 c 128,-1,23
 426 1012 426 1012 369 1012 c 0,24,25
 316 1012 316 1012 276 982 c 128,-1,26
 236 952 236 952 236 899 c 0,27,28
 236 842 236 842 315 809 c 0,29,30
 340 799 340 799 393 788 c 1,31,32
 340 743 340 743 264 743 c 256,33,34
 188 743 188 743 131 797.5 c 128,-1,35
 74 852 74 852 74 946 c 0,36,37
 74 1028 74 1028 107.5 1087.5 c 128,-1,38
 141 1147 141 1147 199 1184 c 1,39,-1
 86 1184 l 1,40,-1
 86 1364 l 1,41,-1
 457 1364 l 2,42,43
 494 1364 494 1364 494 1389 c 0,44,45
 494 1412 494 1412 465 1419 c 1,46,-1
 84 1419 l 1,47,-1
 84 1659 l 1,48,-1
 1032 1659 l 2,49,50
 1270 1659 1270 1659 1403 1507 c 0,51,52
 1520 1374 1520 1374 1520 1178 c 0,53,54
 1520 998 1520 998 1423 872 c 0,55,56
 1319 735 1319 735 1143 735 c 0,57,58
 977 735 977 735 887 836 c 0,59,60
 807 922 807 922 807 1053 c 0,61,62
 807 1170 807 1170 875.5 1258 c 128,-1,63
 944 1346 944 1346 1059 1346 c 0,64,65
 1168 1346 1168 1346 1227 1283.5 c 128,-1,66
 1286 1221 1286 1221 1286 1139 c 0,67,68
 1286 1067 1286 1067 1245 1017 c 128,-1,69
 1204 967 1204 967 1133 967 c 0,70,71
 1059 967 1059 967 1019 1000.5 c 128,-1,72
 979 1034 979 1034 979 1081 c 0,73,74
 979 1126 979 1126 1009.5 1160 c 128,-1,75
 1040 1194 1040 1194 1085 1194 c 0,76,77
 1108 1194 1108 1194 1129.5 1187 c 128,-1,78
 1151 1180 1151 1180 1174 1165 c 1,79,80
 1170 1188 1170 1188 1136 1204.5 c 128,-1,81
 1102 1221 1102 1221 1065 1221 c 0,82,83
 993 1221 993 1221 948 1172.5 c 128,-1,84
 903 1124 903 1124 903 1057 c 0,85,86
 903 981 903 981 964.5 929 c 128,-1,87
 1026 877 1026 877 1153 877 c 0,88,89
 1282 877 1282 877 1354.5 957.5 c 128,-1,90
 1427 1038 1427 1038 1427 1149 c 256,91,92
 1427 1260 1427 1260 1360 1333 c 0,93,94
 1284 1415 1284 1415 1145 1415 c 2,95,-1
 596 1415 l 1,96,97
 635 1358 635 1358 635 1307 c 0,98,99
 635 1207 635 1207 526 1178 c 1,100,101
 585 1147 585 1147 618 1100 c 0,102,103
 665 1034 665 1034 666 940 c 0,104,105
 666 823 666 823 420 612 c 0,106,107
 303 514 303 514 303 399 c 0,108,109
 303 299 303 299 374.5 256 c 128,-1,110
 446 213 446 213 541 213 c 0,111,112
 678 213 678 213 760 356 c 0,113,114
 785 401 785 401 813 498 c 1,115,-1
 852 498 l 1,116,117
 870 404 870 404 893 358 c 0,118,119
 967 219 967 219 1114 219 c 0,120,121
 1233 219 1233 219 1302.5 268 c 128,-1,122
 1372 317 1372 317 1372 385 c 0,123,124
 1372 436 1372 436 1325 486.5 c 128,-1,125
 1278 537 1278 537 1188 561 c 1,126,127
 1180 577 1180 577 1198.5 604 c 128,-1,128
 1217 631 1217 631 1262 631 c 0,0,1
EndSplineSet
EndChar

StartChar: ka.base
Encoding: 126 -1 120
Width: 1069
Flags: W
AnchorPoint: "s" 569 -127 basechar 0
LayerCount: 2
Fore
SplineSet
1014 688 m 1,0,-1
 809 688 l 1,1,2
 885 602 885 602 893 588 c 0,3,4
 940 506 940 506 940 362 c 0,5,6
 940 182 940 182 823 80 c 0,7,8
 721 -10 721 -10 563 -10 c 0,9,10
 401 -10 401 -10 285 86 c 0,11,12
 156 195 156 195 156 369 c 0,13,14
 156 484 156 484 191.5 563.5 c 128,-1,15
 227 643 227 643 287 688 c 1,16,-1
 63 688 l 1,17,-1
 63 860 l 1,18,-1
 518 860 l 2,19,20
 561 860 561 860 561 911 c 256,21,22
 561 962 561 962 518 963 c 2,23,-1
 76 963 l 1,24,-1
 76 1186 l 1,25,-1
 694 1186 l 1,26,-1
 694 860 l 1,27,-1
 1014 860 l 1,28,-1
 1014 688 l 1,0,-1
784 442 m 1,29,30
 784 544 784 544 715.5 601.5 c 128,-1,31
 647 659 647 659 553 659 c 0,32,33
 453 659 453 659 374 600 c 128,-1,34
 295 541 295 541 295 438 c 0,35,36
 295 338 295 338 368.5 279.5 c 128,-1,37
 442 221 442 221 545 221 c 0,38,39
 641 221 641 221 710.5 279.5 c 128,-1,40
 780 338 780 338 784 442 c 1,29,30
EndSplineSet
EndChar

StartChar: ka.imathra
Encoding: 127 -1 121
Width: 1069
Flags: W
AnchorPoint: "s" 553 -164 basechar 0
LayerCount: 2
Fore
SplineSet
1014 625 m 1,0,-1
 811 625 l 1,1,2
 864 578 864 578 895 520 c 0,3,4
 940 438 940 438 940 344 c 0,5,6
 940 168 940 168 817 63 c 0,7,8
 706 -31 706 -31 547 -31 c 0,9,10
 385 -31 385 -31 270 66 c 1,11,12
 145 175 145 175 145 356 c 0,13,14
 145 450 145 450 184 524 c 0,15,16
 213 579 213 579 266 625 c 1,17,-1
 57 625 l 1,18,-1
 57 868 l 1,19,-1
 506 868 l 1,20,21
 588 905 588 905 618 967 c 1,22,23
 593 953 593 953 572 945.5 c 128,-1,24
 551 938 551 938 520 938 c 0,25,26
 424 938 424 938 373 999.5 c 128,-1,27
 322 1061 322 1061 322 1151 c 0,28,29
 322 1253 322 1253 386.5 1337 c 128,-1,30
 451 1421 451 1421 553 1421 c 0,31,32
 668 1421 668 1421 737.5 1340.5 c 128,-1,33
 807 1260 807 1260 807 1149 c 0,34,35
 807 1067 807 1067 774 996.5 c 128,-1,36
 741 926 741 926 666 868 c 1,37,-1
 1014 868 l 1,38,-1
 1014 625 l 1,0,-1
532 1249 m 0,39,40
 489 1249 489 1249 465.5 1225.5 c 128,-1,41
 442 1202 442 1202 442 1165 c 0,42,43
 442 1134 442 1134 464.5 1112 c 128,-1,44
 487 1090 487 1090 526 1090 c 0,45,46
 569 1090 569 1090 592.5 1113.5 c 128,-1,47
 616 1137 616 1137 616 1174 c 0,48,49
 616 1205 616 1205 593.5 1227 c 128,-1,50
 571 1249 571 1249 532 1249 c 0,39,40
788 428 m 0,51,52
 788 539 788 539 719.5 596 c 128,-1,53
 651 653 651 653 551 653 c 0,54,55
 447 653 447 653 370 591.5 c 128,-1,56
 293 530 293 530 293 420 c 0,57,58
 293 316 293 316 366.5 256.5 c 128,-1,59
 440 197 440 197 539 197 c 0,60,61
 641 197 641 197 713.5 256 c 128,-1,62
 786 315 786 315 788 428 c 0,51,52
EndSplineSet
LCarets2: 1 0
EndChar

StartChar: ka.sub
Encoding: 128 -1 122
Width: 485
Flags: W
AnchorPoint: "Sub" -250 262 mark 0
AnchorPoint: "Sub" 373 -723 basemark 0
LayerCount: 2
Fore
SplineSet
485 -317 m 1,0,-1
 317 -317 l 1,1,2
 378 -383 378 -383 379 -477 c 0,3,4
 379 -602 379 -602 299 -670.5 c 128,-1,5
 219 -739 219 -739 111 -739 c 256,6,7
 2 -739 2 -739 -74 -674 c 0,8,9
 -158 -600 -158 -600 -158 -477 c 0,10,11
 -158 -383 -158 -383 -106 -317 c 1,12,-1
 -264 -317 l 1,13,-1
 -264 -152 l 1,14,-1
 25 -152 l 1,15,16
 76 -86 76 -86 98.5 -20.5 c 128,-1,17
 121 45 121 45 121 102 c 0,18,19
 121 149 121 149 108.5 193.5 c 128,-1,20
 96 238 96 238 74 283 c 1,21,-1
 125 283 l 1,22,23
 176 279 176 279 221 219.5 c 128,-1,24
 266 160 266 160 266 78 c 0,25,26
 266 25 266 25 242.5 -30.5 c 128,-1,27
 219 -86 219 -86 166 -147 c 1,28,-1
 489 -147 l 1,29,-1
 485 -317 l 1,0,-1
270 -422 m 0,30,31
 270 -363 270 -363 220 -322 c 128,-1,32
 170 -281 170 -281 104 -281 c 256,33,34
 38 -281 38 -281 -5.5 -321.5 c 128,-1,35
 -49 -362 -49 -362 -49 -428 c 0,36,37
 -49 -500 -49 -500 -4 -537.5 c 128,-1,38
 41 -575 41 -575 109 -575 c 0,39,40
 175 -575 175 -575 221.5 -535.5 c 128,-1,41
 268 -496 268 -496 270 -422 c 0,30,31
EndSplineSet
LCarets2: 1 0
EndChar

StartChar: ka_rvocalicmatra.sub
Encoding: 129 -1 123
Width: 985
Flags: W
LayerCount: 2
Fore
SplineSet
641 -520 m 1,0,-1
 633 -571 l 1,1,2
 729 -534 729 -534 776 -454.5 c 128,-1,3
 823 -375 823 -375 823 -266 c 0,4,5
 823 -100 823 -100 720.5 73 c 128,-1,6
 618 246 618 246 453 342 c 1,7,-1
 524 401 l 1,8,9
 733 276 733 276 848 78 c 0,10,11
 950 -102 950 -102 950 -293 c 0,12,13
 950 -488 950 -488 847.5 -616.5 c 128,-1,14
 745 -745 745 -745 571 -745 c 0,15,16
 497 -745 497 -745 443 -715.5 c 128,-1,17
 389 -686 389 -686 358 -649 c 1,18,19
 282 -749 282 -749 123 -750 c 0,20,21
 19 -750 19 -750 -47 -692 c 0,22,23
 -123 -626 -123 -626 -123 -500 c 0,24,25
 -123 -398 -123 -398 -70 -336 c 1,26,-1
 -223 -336 l 1,27,-1
 -223 -170 l 1,28,-1
 49 -170 l 1,29,30
 166 -23 166 -23 166 139 c 0,31,32
 166 276 166 276 76 385 c 1,33,-1
 178 367 l 2,34,35
 235 357 235 357 272 295 c 128,-1,36
 309 233 309 233 309 147 c 0,37,38
 309 63 309 63 278.5 -13.5 c 128,-1,39
 248 -90 248 -90 176 -166 c 1,40,-1
 524 -166 l 1,41,-1
 524 -332 l 1,42,-1
 362 -332 l 1,43,-1
 381 -369 l 1,44,45
 428 -344 428 -344 475 -344 c 0,46,47
 543 -344 543 -344 594 -395 c 128,-1,48
 645 -446 645 -446 641 -520 c 1,0,-1
549 -520 m 1,49,50
 549 -444 549 -444 463 -444 c 0,51,52
 389 -444 389 -444 389 -514 c 0,53,54
 389 -571 389 -571 436 -587.5 c 128,-1,55
 483 -604 483 -604 528 -600 c 1,56,57
 532 -592 532 -592 532 -590 c 0,58,59
 547 -559 547 -559 549 -520 c 1,49,50
295 -444 m 0,60,61
 295 -385 295 -385 248 -344 c 128,-1,62
 201 -303 201 -303 139 -303 c 0,63,64
 71 -303 71 -303 24 -344 c 128,-1,65
 -23 -385 -23 -385 -23 -451 c 0,66,67
 -23 -519 -23 -519 24.5 -556.5 c 128,-1,68
 72 -594 72 -594 137 -594 c 0,69,70
 198 -594 198 -594 246.5 -554 c 128,-1,71
 295 -514 295 -514 295 -444 c 0,60,61
EndSplineSet
EndChar

StartChar: kha
Encoding: 130 3222 124
Width: 1751
Flags: W
LayerCount: 2
Fore
SplineSet
1208 -16 m 0,0,1
 1085 -16 1085 -16 963 86 c 0,2,3
 889 147 889 147 821 242 c 1,4,5
 760 154 760 154 670 88 c 0,6,7
 531 -14 531 -14 383 -14 c 0,8,9
 231 -14 231 -14 148.5 57.5 c 128,-1,10
 66 129 66 129 66 229 c 0,11,12
 66 344 66 344 166 424 c 0,13,14
 281 514 281 514 471 514 c 0,15,16
 573 514 573 514 668 483 c 1,17,18
 734 465 734 465 780 434 c 1,19,20
 860 536 860 536 860 713 c 0,21,22
 860 846 860 846 803 928 c 0,23,24
 735 1028 735 1028 598 1028 c 0,25,26
 508 1028 508 1028 459 987 c 128,-1,27
 410 946 410 946 410 895 c 0,28,29
 410 850 410 850 449 836 c 1,30,-1
 446 874 l 1,31,32
 446 917 446 917 482 947 c 128,-1,33
 518 977 518 977 565 977 c 256,34,35
 612 977 612 977 648 944 c 128,-1,36
 684 911 684 911 684 846 c 0,37,38
 684 774 684 774 633 733 c 128,-1,39
 582 692 582 692 510 692 c 0,40,41
 410 692 410 692 354.5 760.5 c 128,-1,42
 299 829 299 829 299 928 c 0,43,44
 299 1039 299 1039 371.5 1125.5 c 128,-1,45
 444 1212 444 1212 575 1212 c 0,46,47
 770 1212 770 1212 874 1044 c 0,48,49
 964 899 964 899 965 688 c 0,50,51
 965 483 965 483 885 369 c 1,52,53
 942 310 942 310 1020 276 c 128,-1,54
 1098 242 1098 242 1180 242 c 0,55,56
 1389 242 1389 242 1499 381 c 0,57,58
 1595 504 1595 504 1595 700 c 0,59,60
 1595 925 1595 925 1479 1102 c 0,61,62
 1354 1290 1354 1290 1167 1290 c 0,63,64
 1106 1290 1106 1290 1069 1271.5 c 128,-1,65
 1032 1253 1032 1253 999 1237 c 1,66,67
 909 1237 909 1237 909 1327 c 0,68,69
 909 1393 909 1393 964.5 1440 c 128,-1,70
 1020 1487 1020 1487 1135 1487 c 0,71,72
 1381 1487 1381 1487 1548 1206 c 0,73,74
 1702 950 1702 950 1702 621 c 0,75,76
 1702 345 1702 345 1587 176 c 0,77,78
 1456 -18 1456 -18 1208 -16 c 0,0,1
698 340 m 1,79,80
 651 373 651 373 579.5 391.5 c 128,-1,81
 508 410 508 410 451 410 c 0,82,83
 340 410 340 410 269.5 362.5 c 128,-1,84
 199 315 199 315 199 262 c 0,85,86
 199 188 199 188 324 188 c 0,87,88
 433 188 433 188 555 248 c 0,89,90
 630 285 630 285 698 340 c 1,79,80
EndSplineSet
LCarets2: 1 0
EndChar

StartChar: kha.base
Encoding: 131 -1 125
Width: 1837
Flags: W
LayerCount: 2
Fore
SplineSet
1442 963 m 1,0,-1
 1022 963 l 1,1,-1
 1022 1186 l 1,2,-1
 1360 1186 l 1,3,4
 1550 1147 1550 1147 1669 950 c 0,5,6
 1780 768 1780 768 1780 535 c 256,7,8
 1780 302 1780 302 1663 154 c 0,9,10
 1532 -14 1532 -14 1286 -14 c 0,11,12
 1190 -14 1190 -14 1075.5 55.5 c 128,-1,13
 961 125 961 125 848 256 c 1,14,15
 774 168 774 168 684 102 c 0,16,17
 530 -7 530 -7 383 -6 c 256,18,19
 236 -6 236 -6 152 65.5 c 128,-1,20
 68 137 68 137 68 233 c 0,21,22
 68 344 68 344 168 424 c 0,23,24
 283 514 283 514 473 514 c 0,25,26
 575 514 575 514 678 483 c 0,27,28
 744 465 744 465 801 436 c 1,29,30
 877 536 877 536 877 698 c 0,31,32
 877 835 877 835 815 924 c 0,33,34
 741 1026 741 1026 602 1026 c 0,35,36
 508 1026 508 1026 460 986 c 128,-1,37
 412 946 412 946 412 895 c 0,38,39
 412 850 412 850 451 836 c 1,40,-1
 449 874 l 1,41,42
 449 919 449 919 484.5 946 c 128,-1,43
 520 973 520 973 567 973 c 0,44,45
 618 973 618 973 652 942 c 128,-1,46
 686 911 686 911 686 846 c 0,47,48
 686 778 686 778 635 735 c 128,-1,49
 584 692 584 692 512 692 c 0,50,51
 412 692 412 692 356.5 760.5 c 128,-1,52
 301 829 301 829 301 930 c 0,53,54
 301 1041 301 1041 373.5 1126.5 c 128,-1,55
 446 1212 446 1212 578 1212 c 0,56,57
 779 1212 779 1212 889 1036 c 0,58,59
 983 884 983 884 983 668 c 0,60,61
 983 488 983 488 915 379 c 1,62,63
 972 336 972 336 1053 299 c 0,64,65
 1176 244 1176 244 1280 244 c 0,66,67
 1477 244 1477 244 1585 356 c 0,68,69
 1681 458 1681 458 1681 610 c 0,70,71
 1681 729 1681 729 1617 831.5 c 128,-1,72
 1553 934 1553 934 1442 963 c 1,0,-1
717 344 m 1,73,74
 672 369 672 369 621 385 c 0,75,76
 541 410 541 410 453 410 c 0,77,78
 342 410 342 410 271.5 362.5 c 128,-1,79
 201 315 201 315 201 262 c 0,80,81
 201 188 201 188 326 188 c 0,82,83
 435 188 435 188 561 248 c 0,84,85
 647 287 647 287 717 344 c 1,73,74
EndSplineSet
EndChar

StartChar: kha.imathra
Encoding: 132 -1 126
Width: 1837
Flags: W
LayerCount: 2
Fore
SplineSet
1370 1227 m 1,0,1
 1386 1170 1386 1170 1386 1124 c 0,2,3
 1386 1052 1386 1052 1354 1014 c 0,4,5
 1309 963 1309 963 1206 963 c 0,6,7
 1081 963 1081 963 990 1068.5 c 128,-1,8
 899 1174 899 1174 899 1292 c 0,9,10
 899 1378 899 1378 957.5 1435.5 c 128,-1,11
 1016 1493 1016 1493 1135 1493 c 0,12,13
 1403 1493 1403 1493 1591 1192 c 0,14,15
 1767 911 1767 911 1767 571 c 0,16,17
 1767 317 1767 317 1657 164 c 0,18,19
 1532 -12 1532 -12 1288 -12 c 0,20,21
 1192 -12 1192 -12 1076.5 56.5 c 128,-1,22
 961 125 961 125 850 254 c 1,23,24
 776 166 776 166 686 100 c 0,25,26
 532 -9 532 -9 385 -8 c 0,27,28
 233 -8 233 -8 150.5 63.5 c 128,-1,29
 68 135 68 135 68 236 c 0,30,31
 68 351 68 351 168 430 c 0,32,33
 283 520 283 520 473 520 c 0,34,35
 577 520 577 520 678 489 c 0,36,37
 731 473 731 473 799 440 c 1,38,39
 875 540 875 540 874 702 c 0,40,41
 874 841 874 841 813 930 c 0,42,43
 739 1034 739 1034 600 1034 c 0,44,45
 510 1034 510 1034 461 993 c 128,-1,46
 412 952 412 952 412 901 c 0,47,48
 412 856 412 856 451 842 c 1,49,-1
 449 881 l 1,50,51
 449 924 449 924 484.5 953.5 c 128,-1,52
 520 983 520 983 567 983 c 256,53,54
 614 983 614 983 650 950.5 c 128,-1,55
 686 918 686 918 686 852 c 0,56,57
 686 780 686 780 635 739 c 128,-1,58
 584 698 584 698 512 698 c 0,59,60
 412 698 412 698 356.5 767 c 128,-1,61
 301 836 301 836 301 934 c 0,62,63
 301 1045 301 1045 373.5 1132 c 128,-1,64
 446 1219 446 1219 578 1219 c 0,65,66
 781 1219 781 1219 889 1042 c 0,67,68
 983 890 983 890 983 672 c 0,69,70
 983 486 983 486 911 377 c 1,71,72
 962 334 962 334 1030 301 c 0,73,74
 1141 248 1141 248 1251 248 c 0,75,76
 1462 248 1462 248 1567 367 c 0,77,78
 1661 476 1661 476 1661 651 c 0,79,80
 1661 825 1661 825 1575 995.5 c 128,-1,81
 1489 1166 1489 1166 1370 1227 c 1,0,1
1266 1210 m 0,82,83
 1266 1233 1266 1233 1265 1244 c 128,-1,84
 1264 1255 1264 1255 1255 1264 c 1,85,86
 1239 1272 1239 1272 1205 1279 c 128,-1,87
 1171 1286 1171 1286 1149 1286 c 0,88,89
 1098 1286 1098 1286 1065 1266.5 c 128,-1,90
 1032 1247 1032 1247 1032 1200 c 256,91,92
 1032 1153 1032 1153 1066 1127.5 c 128,-1,93
 1100 1102 1100 1102 1147 1102 c 0,94,95
 1198 1102 1198 1102 1232 1130.5 c 128,-1,96
 1266 1159 1266 1159 1266 1210 c 0,82,83
713 346 m 1,97,98
 670 375 670 375 616 391 c 0,99,100
 540 416 540 416 451 416 c 0,101,102
 340 416 340 416 269.5 369 c 128,-1,103
 199 322 199 322 199 268 c 0,104,105
 199 194 199 194 324 195 c 0,106,107
 433 195 433 195 559 254 c 0,108,109
 641 291 641 291 713 346 c 1,97,98
EndSplineSet
LCarets2: 1 0
EndChar

StartChar: kha.sub
Encoding: 133 -1 127
Width: 485
Flags: W
AnchorPoint: "Sub" -672 207 mark 0
AnchorPoint: "Sub" 434 -795 basemark 0
LayerCount: 2
Fore
SplineSet
219 252 m 1,0,1
 313 252 313 252 383 68.5 c 128,-1,2
 453 -115 453 -115 453 -334 c 0,3,4
 453 -537 453 -537 391 -662 c 0,5,6
 317 -807 317 -807 176 -807 c 0,7,8
 80 -807 80 -807 -2 -754 c 0,9,10
 -49 -723 -49 -723 -129 -643 c 1,11,12
 -174 -719 -174 -719 -253 -757 c 128,-1,13
 -332 -795 -332 -795 -418 -795 c 0,14,15
 -541 -795 -541 -795 -610.5 -740.5 c 128,-1,16
 -680 -686 -680 -686 -680 -614 c 0,17,18
 -680 -540 -680 -540 -607.5 -483 c 128,-1,19
 -535 -426 -535 -426 -410 -426 c 0,20,21
 -330 -426 -330 -426 -256 -455 c 0,22,23
 -225 -465 -225 -465 -164 -498 c 1,24,25
 -117 -437 -117 -437 -117 -356 c 0,26,27
 -117 -290 -117 -290 -149.5 -247.5 c 128,-1,28
 -182 -205 -182 -205 -250 -205 c 0,29,30
 -307 -205 -307 -205 -303 -250 c 1,31,32
 -299 -217 -299 -217 -276 -217 c 0,33,34
 -237 -217 -237 -217 -213.5 -240.5 c 128,-1,35
 -190 -264 -190 -264 -190 -297 c 0,36,37
 -190 -334 -190 -334 -218 -360.5 c 128,-1,38
 -246 -387 -246 -387 -303 -387 c 0,39,40
 -356 -387 -356 -387 -386 -351 c 128,-1,41
 -416 -315 -416 -315 -416 -262 c 0,42,43
 -416 -201 -416 -201 -371 -149.5 c 128,-1,44
 -326 -98 -326 -98 -250 -98 c 0,45,46
 -160 -98 -160 -98 -94.5 -175 c 128,-1,47
 -29 -252 -29 -252 -29 -362 c 0,48,49
 -29 -458 -29 -458 -82 -549 c 1,50,51
 -49 -567 -49 -567 -12 -584 c 0,52,53
 54 -613 54 -613 104 -612 c 0,54,55
 219 -612 219 -612 285.5 -531.5 c 128,-1,56
 352 -451 352 -451 352 -322 c 0,57,58
 352 -203 352 -203 292.5 -65.5 c 128,-1,59
 233 72 233 72 117 195 c 1,60,61
 133 226 133 226 147 236 c 0,62,63
 176 258 176 258 219 252 c 1,0,1
-225 -569 m 1,64,65
 -239 -559 -239 -559 -294.5 -543.5 c 128,-1,66
 -350 -528 -350 -528 -416 -528 c 0,67,68
 -475 -528 -475 -528 -510 -547.5 c 128,-1,69
 -545 -567 -545 -567 -545 -592 c 0,70,71
 -545 -643 -545 -643 -428 -643 c 0,72,73
 -348 -643 -348 -643 -289 -614 c 0,74,75
 -252 -598 -252 -598 -225 -569 c 1,64,65
EndSplineSet
LCarets2: 1 0
EndChar

StartChar: ga.base
Encoding: 135 -1 129
Width: 1337
Flags: W
LayerCount: 2
Fore
SplineSet
1264 -4 m 1,0,-1
 1032 18 l 1,1,2
 1032 507 1032 507 961 725 c 0,3,4
 881 969 881 969 690 969 c 256,5,6
 500 969 500 969 408.5 727 c 128,-1,7
 317 485 317 485 317 -4 c 1,8,-1
 92 -4 l 1,9,10
 92 397 92 397 168 631 c 0,11,12
 236 840 236 840 389 963 c 1,13,-1
 88 963 l 1,14,-1
 88 1186 l 1,15,-1
 987 1186 l 1,16,-1
 987 963 l 1,17,18
 1124 869 1124 869 1194 648.5 c 128,-1,19
 1264 428 1264 428 1264 -4 c 1,0,-1
EndSplineSet
EndChar

StartChar: ga.imathra
Encoding: 136 -1 130
Width: 1314
Flags: W
LayerCount: 2
Fore
SplineSet
1272 -4 m 1,0,-1
 1044 -4 l 1,1,2
 1044 463 1044 463 971 707 c 0,3,4
 881 1002 881 1002 676 1001 c 0,5,6
 463 1001 463 1001 373 692 c 0,7,8
 301 448 301 448 301 -8 c 1,9,-1
 76 -4 l 1,10,11
 76 49 76 49 75 101.5 c 128,-1,12
 74 154 74 154 74 221 c 2,13,-1
 74 281 l 2,14,15
 74 570 74 570 164 743 c 0,16,17
 223 858 223 858 360 969 c 1,18,19
 286 994 286 994 242 1038 c 0,20,21
 170 1112 170 1112 170 1221 c 256,22,23
 170 1330 170 1330 264 1394 c 128,-1,24
 358 1458 358 1458 506 1458 c 0,25,26
 795 1458 795 1458 1012 1229 c 0,27,28
 1278 946 1278 946 1278 440 c 1,29,-1
 1272 -4 l 1,0,-1
1094 885 m 1,30,31
 1033 1039 1033 1039 932 1135 c 0,32,33
 778 1282 778 1282 553 1282 c 0,34,35
 479 1282 479 1282 427 1256.5 c 128,-1,36
 375 1231 375 1231 375 1165 c 0,37,38
 375 1104 375 1104 418 1073 c 0,39,40
 443 1055 443 1055 481 1047 c 1,41,42
 528 1070 528 1070 580.5 1082 c 128,-1,43
 633 1094 633 1094 690 1094 c 0,44,45
 792 1094 792 1094 893 1047 c 128,-1,46
 994 1000 994 1000 1094 885 c 1,30,31
EndSplineSet
LCarets2: 1 0
EndChar

StartChar: ga.sub
Encoding: 137 -1 131
Width: 485
Flags: W
AnchorPoint: "Sub" -563 -123 mark 0
AnchorPoint: "Sub" 418 -842 basemark 0
LayerCount: 2
Fore
SplineSet
469 -770 m 1,0,-1
 246 -770 l 1,1,2
 250 -719 250 -719 250 -688 c 0,3,4
 250 -508 250 -508 178 -365 c 0,5,6
 98 -205 98 -205 -25 -205 c 0,7,8
 -158 -205 -158 -205 -233.5 -343 c 128,-1,9
 -309 -481 -309 -481 -309 -655 c 0,10,11
 -309 -671 -309 -671 -308 -694 c 128,-1,12
 -307 -717 -307 -717 -305 -745 c 1,13,-1
 -514 -745 l 1,14,15
 -514 -526 -514 -526 -399 -342 c 0,16,17
 -262 -119 -262 -119 -43 -119 c 0,18,19
 190 -119 190 -119 336 -330 c 0,20,21
 465 -518 465 -518 469 -770 c 1,0,-1
EndSplineSet
LCarets2: 1 0
EndChar

StartChar: gha.base
Encoding: 139 -1 133
Width: 1656
Flags: W
LayerCount: 2
Fore
SplineSet
1298 963 m 1,0,-1
 82 963 l 1,1,-1
 82 1186 l 1,2,-1
 1298 1186 l 1,3,-1
 1298 963 l 1,0,-1
922 754 m 0,4,5
 922 693 922 693 871.5 651.5 c 128,-1,6
 821 610 821 610 760 610 c 0,7,8
 703 610 703 610 663 647 c 128,-1,9
 623 684 623 684 623 756 c 0,10,11
 623 830 623 830 660.5 865.5 c 128,-1,12
 698 901 698 901 758 901 c 0,13,14
 824 901 824 901 872 863.5 c 128,-1,15
 920 826 920 826 922 754 c 0,4,5
1640 944 m 1,16,17
 1757 811 1757 811 1757 680 c 0,18,19
 1757 604 1757 604 1713 552 c 128,-1,20
 1669 500 1669 500 1583 500 c 0,21,22
 1507 500 1507 500 1456 528 c 1,23,24
 1464 477 1464 477 1464 424 c 0,25,26
 1464 236 1464 236 1389 117 c 0,27,28
 1295 -30 1295 -30 1112 -31 c 0,29,30
 1001 -31 1001 -31 899 57 c 0,31,32
 827 118 827 118 776 207 c 1,33,34
 731 119 731 119 666 63 c 0,35,36
 566 -25 566 -25 436 -25 c 0,37,38
 248 -25 248 -25 152 127 c 0,39,40
 72 250 72 250 72 422 c 0,41,42
 72 569 72 569 156 650 c 128,-1,43
 240 731 240 731 356 731 c 0,44,45
 456 731 456 731 527 668.5 c 128,-1,46
 598 606 598 606 598 489 c 0,47,48
 598 415 598 415 553 372.5 c 128,-1,49
 508 330 508 330 446 330 c 0,50,51
 378 330 378 330 328 383 c 1,52,53
 367 397 367 397 385 406 c 0,54,55
 444 437 444 437 444 487 c 0,56,57
 444 530 444 530 408.5 557 c 128,-1,58
 373 584 373 584 322 584 c 0,59,60
 263 584 263 584 221.5 546 c 128,-1,61
 180 508 180 508 180 428 c 0,62,63
 180 340 180 340 248.5 280.5 c 128,-1,64
 317 221 317 221 432 221 c 0,65,66
 551 221 551 221 633 293 c 1,67,68
 748 389 748 389 748 465 c 1,69,-1
 791 465 l 1,70,71
 838 383 838 383 870 344 c 0,72,73
 979 221 979 221 1116 221 c 0,74,75
 1227 221 1227 221 1288.5 282.5 c 128,-1,76
 1350 344 1350 344 1350 434 c 0,77,78
 1350 559 1350 559 1247 662 c 0,79,80
 1173 736 1173 736 1174 788 c 0,81,82
 1174 825 1174 825 1200.5 843.5 c 128,-1,83
 1227 862 1227 862 1260 862 c 0,84,85
 1311 862 1311 862 1335 803 c 0,86,87
 1392 672 1392 672 1458 672 c 0,88,89
 1472 672 1472 672 1505 676 c 1,90,91
 1591 699 1591 699 1591 756 c 0,92,93
 1591 803 1591 803 1526 885 c 1,94,95
 1526 910 1526 910 1533 935.5 c 128,-1,96
 1540 961 1540 961 1577 961 c 0,97,98
 1605 960 1605 960 1640 944 c 1,16,17
918 -274 m 1,99,100
 918 -346 918 -346 874.5 -383 c 128,-1,101
 831 -420 831 -420 772 -420 c 256,102,103
 713 -420 713 -420 670 -383 c 128,-1,104
 627 -346 627 -346 627 -274 c 0,105,106
 627 -235 627 -235 686 -90 c 0,107,108
 704 -43 704 -43 748 47 c 1,109,-1
 766 39 l 1,110,-1
 784 47 l 1,111,112
 827 -41 827 -41 846 -88 c 0,113,114
 912 -239 912 -239 918 -274 c 1,99,100
EndSplineSet
EndChar

StartChar: gha.imathra
Encoding: 140 -1 134
Width: 1886
Flags: W
LayerCount: 2
Fore
SplineSet
827 1065 m 1,0,1
 782 1004 782 1004 724 974 c 128,-1,2
 666 944 666 944 606 944 c 0,3,4
 497 944 497 944 435 1015.5 c 128,-1,5
 373 1087 373 1087 373 1184 c 0,6,7
 373 1274 373 1274 431 1338.5 c 128,-1,8
 489 1403 489 1403 600 1403 c 0,9,10
 752 1403 752 1403 852 1272 c 0,11,12
 942 1153 942 1153 942 999 c 0,13,14
 942 874 942 874 877 795 c 0,15,16
 803 705 803 705 659 705 c 0,17,18
 583 705 583 705 518 756 c 128,-1,19
 453 807 453 807 457 874 c 0,20,21
 457 907 457 907 494 926 c 0,22,23
 498 928 498 928 512 932 c 1,24,25
 535 881 535 881 571.5 858.5 c 128,-1,26
 608 836 608 836 651 836 c 0,27,28
 723 836 723 836 780.5 886 c 128,-1,29
 838 936 838 936 838 1008 c 0,30,31
 837 1038 837 1038 827 1065 c 1,0,1
1610 475 m 1,32,33
 1567 475 1567 475 1531 486.5 c 128,-1,34
 1495 498 1495 498 1452 522 c 1,35,36
 1460 471 1460 471 1460 418 c 0,37,38
 1460 228 1460 228 1384 109 c 0,39,40
 1290 -38 1290 -38 1108 -39 c 0,41,42
 999 -39 999 -39 895 51 c 0,43,44
 823 112 823 112 772 199 c 1,45,46
 727 113 727 113 662 57 c 0,47,48
 560 -33 560 -33 434 -33 c 0,49,50
 248 -33 248 -33 150 121 c 0,51,52
 70 246 70 246 70 414 c 0,53,54
 70 561 70 561 154 642 c 128,-1,55
 238 723 238 723 350 723 c 0,56,57
 450 723 450 723 523 658.5 c 128,-1,58
 596 594 596 594 596 479 c 0,59,60
 596 405 596 405 551 362 c 128,-1,61
 506 319 506 319 444 319 c 0,62,63
 376 319 376 319 326 373 c 1,64,65
 365 387 365 387 383 395 c 0,66,67
 442 426 442 426 442 477 c 0,68,69
 442 520 442 520 406.5 546.5 c 128,-1,70
 371 573 371 573 319 573 c 0,71,72
 260 573 260 573 219 535.5 c 128,-1,73
 178 498 178 498 178 418 c 0,74,75
 178 328 178 328 246.5 268.5 c 128,-1,76
 315 209 315 209 430 209 c 0,77,78
 547 209 547 209 633 283 c 0,79,80
 748 379 748 379 748 455 c 1,81,-1
 791 455 l 1,82,83
 838 373 838 373 870 334 c 0,84,85
 981 209 981 209 1114 209 c 0,86,87
 1229 209 1229 209 1293.5 270.5 c 128,-1,88
 1358 332 1358 332 1358 426 c 0,89,90
 1358 494 1358 494 1322 560.5 c 128,-1,91
 1286 627 1286 627 1212 688 c 1,92,93
 1169 721 1169 721 1151 751.5 c 128,-1,94
 1133 782 1133 782 1133 811 c 0,95,96
 1133 850 1133 850 1163.5 875.5 c 128,-1,97
 1194 901 1194 901 1225 901 c 0,98,99
 1311 901 1311 901 1376.5 779 c 128,-1,100
 1442 657 1442 657 1559 657 c 0,101,102
 1618 657 1618 657 1650.5 695 c 128,-1,103
 1683 733 1683 733 1683 795 c 0,104,105
 1683 877 1683 877 1631 974 c 128,-1,106
 1579 1071 1579 1071 1497 1122 c 0,107,108
 1472 1138 1472 1138 1461 1158 c 128,-1,109
 1450 1178 1450 1178 1450 1200 c 0,110,111
 1450 1259 1450 1259 1509 1260 c 0,112,113
 1527 1260 1527 1260 1544 1252.5 c 128,-1,114
 1561 1245 1561 1245 1583 1227 c 0,115,116
 1702 1127 1702 1127 1764.5 995.5 c 128,-1,117
 1827 864 1827 864 1827 739 c 0,118,119
 1827 620 1827 620 1768.5 541.5 c 128,-1,120
 1710 463 1710 463 1610 475 c 1,32,33
918 -287 m 1,121,122
 918 -359 918 -359 874.5 -395.5 c 128,-1,123
 831 -432 831 -432 772 -432 c 256,124,125
 713 -432 713 -432 670 -395 c 128,-1,126
 627 -358 627 -358 627 -287 c 0,127,128
 627 -248 627 -248 686 -102 c 0,129,130
 704 -55 704 -55 748 35 c 1,131,-1
 766 27 l 1,132,-1
 784 35 l 1,133,134
 827 -53 827 -53 846 -100 c 0,135,136
 912 -252 912 -252 918 -287 c 1,121,122
754 1167 m 1,137,138
 740 1192 740 1192 704 1206.5 c 128,-1,139
 668 1221 668 1221 629 1221 c 0,140,141
 572 1221 572 1221 536 1185 c 128,-1,142
 500 1149 500 1149 500 1106 c 0,143,144
 500 1073 500 1073 522.5 1051.5 c 128,-1,145
 545 1030 545 1030 592 1030 c 0,146,147
 664 1030 664 1030 709 1083 c 0,148,149
 734 1114 734 1114 754 1167 c 1,137,138
EndSplineSet
LCarets2: 1 0
EndChar

StartChar: gha.sub
Encoding: 141 -1 135
Width: 598
Flags: W
AnchorPoint: "Sub" -530 90 mark 0
AnchorPoint: "Sub" 487 -745 basemark 0
LayerCount: 2
Fore
SplineSet
453 -287 m 1,0,1
 400 -287 400 -287 362 -258 c 1,2,3
 364 -276 364 -276 365 -319 c 0,4,5
 365 -438 365 -438 326 -514 c 0,6,7
 275 -614 275 -614 166 -614 c 0,8,9
 76 -614 76 -614 2 -539 c 0,10,11
 -49 -488 -49 -488 -88 -401 c 1,12,13
 -129 -505 -129 -505 -205 -559 c 0,14,15
 -271 -604 -271 -604 -346 -604 c 0,16,17
 -434 -604 -434 -604 -484.5 -539.5 c 128,-1,18
 -535 -475 -535 -475 -535 -387 c 256,19,20
 -535 -299 -535 -299 -486.5 -235.5 c 128,-1,21
 -438 -172 -438 -172 -348 -172 c 0,22,23
 -287 -172 -287 -172 -246 -210 c 128,-1,24
 -205 -248 -205 -248 -205 -295 c 0,25,26
 -205 -356 -205 -356 -256 -379 c 1,27,28
 -272 -383 -272 -383 -305 -387 c 1,29,-1
 -303 -369 l 1,30,-1
 -317 -354 l 1,31,32
 -301 -340 -301 -340 -301 -317 c 0,33,34
 -301 -270 -301 -270 -354 -270 c 0,35,36
 -430 -270 -430 -270 -430 -346 c 0,37,38
 -430 -383 -430 -383 -404.5 -405.5 c 128,-1,39
 -379 -428 -379 -428 -326 -428 c 0,40,41
 -217 -428 -217 -428 -156 -324 c 0,42,43
 -138 -291 -138 -291 -115 -217 c 1,44,-1
 -76 -215 l 1,45,46
 -53 -285 -53 -285 -35 -317 c 0,47,48
 26 -421 26 -421 129 -422 c 0,49,50
 195 -422 195 -422 230.5 -384 c 128,-1,51
 266 -346 266 -346 266 -287 c 0,52,53
 266 -178 266 -178 176 -102 c 1,54,55
 153 -79 153 -79 154 -55 c 0,56,57
 154 -2 154 -2 207 -2 c 256,58,59
 260 -2 260 -2 287 -53 c 0,60,61
 326 -127 326 -127 338 -136 c 128,-1,62
 350 -145 350 -145 358 -150 c 0,63,64
 387 -166 387 -166 418 -166 c 0,65,66
 490 -166 490 -166 489 -106 c 0,67,68
 489 -16 489 -16 332 115 c 1,69,70
 357 119 357 119 367 121 c 0,71,72
 414 131 414 131 416 131 c 0,73,74
 482 119 482 119 528.5 40 c 128,-1,75
 575 -39 575 -39 575 -123 c 0,76,77
 575 -191 575 -191 542.5 -235 c 128,-1,78
 510 -279 510 -279 453 -287 c 1,0,1
-4 -711 m 1,79,80
 -4 -756 -4 -756 -32.5 -781.5 c 128,-1,81
 -61 -807 -61 -807 -100 -807 c 0,82,83
 -137 -807 -137 -807 -163.5 -780.5 c 128,-1,84
 -190 -754 -190 -754 -190 -702 c 0,85,86
 -190 -698 -190 -698 -147 -598 c 0,87,88
 -133 -567 -133 -567 -104 -500 c 1,89,-1
 -4 -711 l 1,79,80
EndSplineSet
LCarets2: 1 0
EndChar

StartChar: nga
Encoding: 142 3225 136
Width: 1638
Flags: W
LayerCount: 2
Fore
SplineSet
1092 760 m 0,0,1
 1092 699 1092 699 1041.5 657.5 c 128,-1,2
 991 616 991 616 930 616 c 0,3,4
 873 616 873 616 833 653 c 128,-1,5
 793 690 793 690 793 762 c 256,6,7
 793 834 793 834 832.5 870.5 c 128,-1,8
 872 907 872 907 930 907 c 0,9,10
 996 907 996 907 1044 869.5 c 128,-1,11
 1092 832 1092 832 1092 760 c 0,0,1
1364 717 m 0,12,13
 1374 742 1374 742 1378 756 c 0,14,15
 1394 803 1394 803 1395 846 c 0,16,17
 1395 926 1395 926 1343 973 c 0,18,19
 1275 1034 1275 1034 1118 1034 c 0,20,21
 932 1034 932 1034 752 905 c 0,22,23
 693 862 693 862 610 774 c 1,24,25
 458 665 458 665 371.5 575 c 128,-1,26
 285 485 285 485 285 389 c 0,27,28
 285 299 285 299 360 252 c 0,29,30
 421 213 421 213 508 213 c 0,31,32
 645 213 645 213 750 389 c 0,33,34
 783 446 783 446 827 569 c 1,35,36
 872 452 872 452 905 395 c 1,37,38
 1016 219 1016 219 1163 219 c 0,39,40
 1272 219 1272 219 1334.5 266 c 128,-1,41
 1397 313 1397 313 1397 381 c 0,42,43
 1397 434 1397 434 1350 486.5 c 128,-1,44
 1303 539 1303 539 1212 567 c 1,45,46
 1220 585 1220 585 1225 594 c 0,47,48
 1250 625 1250 625 1286 625 c 0,49,50
 1300 625 1300 625 1366 617.5 c 128,-1,51
 1432 610 1432 610 1496.5 527 c 128,-1,52
 1561 444 1561 444 1561 330 c 0,53,54
 1561 189 1561 189 1473 86 c 0,55,56
 1373 -29 1373 -29 1206 -29 c 0,57,58
 1061 -29 1061 -29 950 72 c 0,59,60
 876 138 876 138 823 240 c 1,61,62
 764 138 764 138 692 70 c 0,63,64
 577 -39 577 -39 455 -39 c 0,65,66
 310 -39 310 -39 205 65.5 c 128,-1,67
 100 170 100 170 100 309 c 0,68,69
 100 481 100 481 287.5 633.5 c 128,-1,70
 475 786 475 786 475 868 c 0,71,72
 475 927 475 927 438 960 c 128,-1,73
 401 993 401 993 348 993 c 0,74,75
 301 993 301 993 267 966.5 c 128,-1,76
 233 940 233 940 233 889 c 0,77,78
 233 846 233 846 301 809 c 0,79,80
 324 799 324 799 369 782 c 1,81,82
 324 743 324 743 266 743 c 0,83,84
 186 743 186 743 127 801 c 0,85,86
 59 867 59 867 59 969 c 0,87,88
 59 1092 59 1092 145 1163.5 c 128,-1,89
 231 1235 231 1235 348 1235 c 0,90,91
 467 1235 467 1235 554 1156 c 128,-1,92
 641 1077 641 1077 641 926 c 1,93,94
 735 1035 735 1035 797 1085 c 0,95,96
 994 1247 994 1247 1176 1247 c 0,97,98
 1366 1247 1366 1247 1462 1153 c 0,99,100
 1544 1073 1544 1073 1544 948 c 0,101,102
 1544 852 1544 852 1497 782.5 c 128,-1,103
 1450 713 1450 713 1378 713 c 0,104,105
 1362 713 1362 713 1364 717 c 0,12,13
EndSplineSet
LCarets2: 1 0
EndChar

StartChar: nga.sub
Encoding: 143 -1 137
Width: 514
Flags: W
AnchorPoint: "Sub" -569 -156 mark 0
AnchorPoint: "Sub" 475 -840 basemark 0
LayerCount: 2
Fore
SplineSet
80 -432 m 0,0,1
 80 -461 80 -461 63 -483 c 0,2,3
 34 -520 34 -520 -12 -520 c 0,4,5
 -49 -520 -49 -520 -74.5 -497.5 c 128,-1,6
 -100 -475 -100 -475 -100 -432 c 0,7,8
 -100 -393 -100 -393 -73.5 -369.5 c 128,-1,9
 -47 -346 -47 -346 -14 -346 c 256,10,11
 19 -346 19 -346 48.5 -369.5 c 128,-1,12
 78 -393 78 -393 80 -432 c 0,0,1
430 -346 m 1,13,14
 430 -391 430 -391 399.5 -420 c 128,-1,15
 369 -449 369 -449 297 -449 c 0,16,17
 287 -449 287 -449 279.5 -449 c 128,-1,18
 272 -449 272 -449 268 -446 c 1,19,20
 276 -385 276 -385 229 -355.5 c 128,-1,21
 182 -326 182 -326 102 -326 c 0,22,23
 14 -326 14 -326 -83 -358.5 c 128,-1,24
 -180 -391 -180 -391 -240 -438 c 0,25,26
 -279 -467 -279 -467 -312.5 -514 c 128,-1,27
 -346 -561 -346 -561 -346 -598 c 0,28,29
 -346 -655 -346 -655 -252 -655 c 0,30,31
 -172 -655 -172 -655 -82 -582 c 0,32,33
 -53 -559 -53 -559 -8 -508 c 1,34,35
 31 -559 31 -559 59 -584 c 0,36,37
 147 -660 147 -660 236 -659 c 0,38,39
 281 -659 281 -659 309.5 -644 c 128,-1,40
 338 -629 338 -629 338 -596 c 0,41,42
 338 -565 338 -565 305 -535 c 0,43,44
 295 -527 295 -527 272 -510 c 1,45,-1
 283 -473 l 1,46,47
 385 -473 385 -473 442.5 -527.5 c 128,-1,48
 500 -582 500 -582 500 -657 c 256,49,50
 500 -733 500 -733 445.5 -790.5 c 128,-1,51
 391 -848 391 -848 295 -848 c 0,52,53
 186 -848 186 -848 92 -774 c 0,54,55
 35 -729 35 -729 -16 -653 c 1,56,57
 -75 -725 -75 -725 -137 -768 c 0,58,59
 -239 -840 -239 -840 -338 -840 c 0,60,61
 -432 -840 -432 -840 -487.5 -789.5 c 128,-1,62
 -543 -739 -543 -739 -543 -666 c 0,63,64
 -543 -562 -543 -562 -440 -485 c 0,65,66
 -350 -419 -350 -419 -340 -410 c 0,67,68
 -307 -373 -307 -373 -307 -334 c 0,69,70
 -307 -305 -307 -305 -325.5 -286.5 c 128,-1,71
 -344 -268 -344 -268 -369 -268 c 0,72,73
 -416 -268 -416 -268 -416 -322 c 0,74,75
 -416 -351 -416 -351 -373 -373 c 1,76,77
 -359 -377 -359 -377 -328 -391 c 1,78,79
 -373 -422 -373 -422 -424 -422 c 0,80,81
 -543 -422 -543 -422 -543 -303 c 0,82,83
 -543 -233 -543 -233 -494.5 -193.5 c 128,-1,84
 -446 -154 -446 -154 -375 -154 c 0,85,86
 -301 -154 -301 -154 -254 -193.5 c 128,-1,87
 -207 -233 -207 -233 -207 -315 c 1,88,89
 -113 -239 -113 -239 -15.5 -203.5 c 128,-1,90
 82 -168 82 -168 172 -168 c 0,91,92
 291 -168 291 -168 363.5 -219 c 128,-1,93
 436 -270 436 -270 430 -346 c 1,13,14
EndSplineSet
LCarets2: 1 0
EndChar

StartChar: ca.base
Encoding: 145 -1 139
Width: 1615
Flags: W
LayerCount: 2
Fore
SplineSet
1563 633 m 1,0,-1
 1417 633 l 1,1,2
 1497 561 1497 561 1533 488.5 c 128,-1,3
 1569 416 1569 416 1569 334 c 0,4,5
 1569 189 1569 189 1466.5 83 c 128,-1,6
 1364 -23 1364 -23 1219 -23 c 0,7,8
 1080 -23 1080 -23 965 72 c 0,9,10
 889 133 889 133 838 221 c 1,11,12
 779 131 779 131 702 66 c 0,13,14
 583 -36 583 -36 465 -37 c 0,15,16
 322 -37 322 -37 224.5 65.5 c 128,-1,17
 127 168 127 168 127 311 c 0,18,19
 127 483 127 483 322.5 635.5 c 128,-1,20
 518 788 518 788 518 870 c 0,21,22
 518 929 518 929 478 963 c 128,-1,23
 438 997 438 997 381 997 c 0,24,25
 334 997 334 997 296 967.5 c 128,-1,26
 258 938 258 938 258 887 c 256,27,28
 258 836 258 836 324 805 c 0,29,30
 342 797 342 797 389 786 c 1,31,32
 346 743 346 743 281 743 c 0,33,34
 201 743 201 743 138.5 802.5 c 128,-1,35
 76 862 76 862 76 965 c 0,36,37
 76 1090 76 1090 157 1158.5 c 128,-1,38
 238 1227 238 1227 356 1227 c 0,39,40
 479 1227 479 1227 563 1155 c 0,41,42
 659 1073 659 1073 659 934 c 0,43,44
 659 815 659 815 406 606 c 0,45,46
 287 510 287 510 287 399 c 0,47,48
 287 303 287 303 362 256 c 0,49,50
 428 217 428 217 516 217 c 0,51,52
 655 217 655 217 750 360 c 0,53,54
 781 405 781 405 817 502 c 1,55,-1
 856 502 l 1,56,57
 887 412 887 412 918 369 c 0,58,59
 1012 232 1012 232 1167 231 c 0,60,61
 1261 231 1261 231 1331 283.5 c 128,-1,62
 1401 336 1401 336 1401 412 c 0,63,64
 1401 465 1401 465 1361 522.5 c 128,-1,65
 1321 580 1321 580 1235 633 c 1,66,-1
 905 633 l 1,67,-1
 905 870 l 1,68,-1
 1251 870 l 2,69,70
 1304 870 1304 870 1305 915 c 256,71,72
 1305 960 1305 960 1260 963 c 1,73,-1
 915 963 l 1,74,-1
 915 1186 l 1,75,-1
 1190 1186 l 1,76,77
 1272 1129 1272 1129 1343 1055 c 0,78,79
 1447 944 1447 944 1438 870 c 1,80,-1
 1554 870 l 1,81,-1
 1563 633 l 1,0,-1
EndSplineSet
EndChar

StartChar: ca.imathra
Encoding: 146 -1 140
Width: 1615
Flags: W
LayerCount: 2
Fore
SplineSet
1550 639 m 1,0,-1
 1389 639 l 1,1,2
 1471 582 1471 582 1511.5 499 c 128,-1,3
 1552 416 1552 416 1552 330 c 0,4,5
 1552 187 1552 187 1459 79 c 128,-1,6
 1366 -29 1366 -29 1221 -29 c 0,7,8
 1082 -29 1082 -29 958 68 c 0,9,10
 878 129 878 129 819 219 c 1,11,12
 760 125 760 125 686 59 c 0,13,14
 569 -43 569 -43 446 -43 c 0,15,16
 307 -43 307 -43 214 58.5 c 128,-1,17
 121 160 121 160 121 305 c 0,18,19
 121 477 121 477 316.5 632.5 c 128,-1,20
 512 788 512 788 512 870 c 0,21,22
 512 931 512 931 471 964 c 128,-1,23
 430 997 430 997 377 997 c 0,24,25
 326 997 326 997 289 968.5 c 128,-1,26
 252 940 252 940 252 887 c 0,27,28
 252 836 252 836 317 805 c 0,29,30
 335 797 335 797 383 786 c 1,31,32
 340 743 340 743 274 743 c 0,33,34
 192 743 192 743 135 801 c 0,35,36
 69 867 69 867 70 969 c 0,37,38
 70 1094 70 1094 150.5 1162.5 c 128,-1,39
 231 1231 231 1231 350 1231 c 0,40,41
 473 1231 473 1231 564 1152 c 128,-1,42
 655 1073 655 1073 655 934 c 0,43,44
 655 817 655 817 401 606 c 0,45,46
 282 506 282 506 283 395 c 0,47,48
 283 295 283 295 358 248 c 0,49,50
 419 209 419 209 510 209 c 0,51,52
 649 209 649 209 731 352 c 0,53,54
 756 397 756 397 786 498 c 1,55,-1
 825 498 l 1,56,57
 862 404 862 404 895 358 c 0,58,59
 1004 215 1004 215 1165 215 c 0,60,61
 1261 215 1261 215 1328 272.5 c 128,-1,62
 1395 330 1395 330 1395 406 c 0,63,64
 1395 472 1395 472 1343.5 533 c 128,-1,65
 1292 594 1292 594 1188 637 c 1,66,-1
 905 637 l 1,67,-1
 905 870 l 1,68,-1
 1186 870 l 1,69,70
 1204 888 1204 888 1215.5 904 c 128,-1,71
 1227 920 1227 920 1245 956 c 1,72,73
 1222 946 1222 946 1201 938 c 128,-1,74
 1180 930 1180 930 1151 930 c 0,75,76
 1063 930 1063 930 1015 995.5 c 128,-1,77
 967 1061 967 1061 967 1151 c 0,78,79
 967 1255 967 1255 1028.5 1339 c 128,-1,80
 1090 1423 1090 1423 1192 1423 c 0,81,82
 1311 1423 1311 1423 1375.5 1347.5 c 128,-1,83
 1440 1272 1440 1272 1440 1161 c 0,84,85
 1440 1085 1440 1085 1407 1006.5 c 128,-1,86
 1374 928 1374 928 1315 868 c 1,87,-1
 1538 868 l 1,88,-1
 1550 639 l 1,0,-1
1171 1251 m 1,89,90
 1124 1251 1124 1251 1098.5 1228.5 c 128,-1,91
 1073 1206 1073 1206 1073 1169 c 0,92,93
 1073 1136 1073 1136 1096.5 1109.5 c 128,-1,94
 1120 1083 1120 1083 1163 1083 c 0,95,96
 1208 1083 1208 1083 1231.5 1106.5 c 128,-1,97
 1255 1130 1255 1130 1255 1163 c 256,98,99
 1255 1196 1255 1196 1231.5 1222.5 c 128,-1,100
 1208 1249 1208 1249 1171 1251 c 1,89,90
EndSplineSet
LCarets2: 1 0
EndChar

StartChar: ca.sub
Encoding: 147 -1 141
Width: 514
Flags: W
AnchorPoint: "Sub" -532 -35 mark 0
AnchorPoint: "Sub" 504 -762 basemark 0
LayerCount: 2
Fore
SplineSet
510 -362 m 1,0,-1
 408 -362 l 1,1,2
 455 -401 455 -401 483.5 -463.5 c 128,-1,3
 512 -526 512 -526 512 -586 c 0,4,5
 512 -668 512 -668 461 -723 c 128,-1,6
 410 -778 410 -778 313 -778 c 0,7,8
 209 -778 209 -778 109 -707 c 0,9,10
 43 -662 43 -662 -8 -596 c 1,11,12
 -78 -692 -78 -692 -164 -739 c 128,-1,13
 -250 -786 -250 -786 -332 -786 c 0,14,15
 -418 -786 -418 -786 -476.5 -738 c 128,-1,16
 -535 -690 -535 -690 -535 -616 c 0,17,18
 -535 -534 -535 -534 -415 -440 c 128,-1,19
 -295 -346 -295 -346 -295 -285 c 0,20,21
 -295 -256 -295 -256 -314.5 -239.5 c 128,-1,22
 -334 -223 -334 -223 -358 -223 c 0,23,24
 -411 -223 -411 -223 -412 -274 c 0,25,26
 -412 -305 -412 -305 -352 -324 c 0,27,28
 -344 -326 -344 -326 -322 -328 c 1,29,30
 -369 -365 -369 -365 -422 -365 c 0,31,32
 -467 -365 -467 -365 -495.5 -334 c 128,-1,33
 -524 -303 -524 -303 -524 -244 c 0,34,35
 -524 -178 -524 -178 -481 -141 c 128,-1,36
 -438 -104 -438 -104 -377 -104 c 0,37,38
 -309 -104 -309 -104 -255 -149.5 c 128,-1,39
 -201 -195 -201 -195 -201 -276 c 0,40,41
 -201 -350 -201 -350 -301 -451 c 0,42,43
 -348 -498 -348 -498 -348 -543 c 0,44,45
 -348 -611 -348 -611 -268 -610 c 0,46,47
 -213 -610 -213 -610 -143.5 -570 c 128,-1,48
 -74 -530 -74 -530 -6 -455 c 1,49,50
 37 -506 37 -506 66 -528 c 0,51,52
 156 -604 156 -604 238 -604 c 0,53,54
 304 -604 304 -604 336.5 -575.5 c 128,-1,55
 369 -547 369 -547 369 -506 c 0,56,57
 369 -463 369 -463 340 -420 c 128,-1,58
 311 -377 311 -377 264 -358 c 1,59,-1
 78 -358 l 1,60,-1
 78 -176 l 1,61,-1
 250 -176 l 2,62,63
 287 -176 287 -176 287 -145 c 0,64,65
 287 -86 287 -86 211 -86 c 0,66,67
 203 -86 203 -86 174 -90 c 1,68,69
 178 -57 178 -57 186 -41 c 0,70,71
 211 12 211 12 270 12 c 0,72,73
 331 12 331 12 364 -23.5 c 128,-1,74
 397 -59 397 -59 397 -111 c 0,75,76
 397 -144 397 -144 379 -176 c 1,77,-1
 510 -176 l 1,78,-1
 510 -362 l 1,0,-1
EndSplineSet
LCarets2: 1 0
EndChar

StartChar: cha.base
Encoding: 149 -1 143
Width: 1556
Flags: W
LayerCount: 2
Fore
SplineSet
1190 963 m 1,0,-1
 743 963 l 1,1,-1
 743 1186 l 1,2,-1
 1120 1186 l 1,3,4
 1296 1063 1296 1063 1393.5 865.5 c 128,-1,5
 1491 668 1491 668 1491 465 c 0,6,7
 1491 248 1491 248 1389 111 c 0,8,9
 1274 -41 1274 -41 1073 -41 c 0,10,11
 987 -41 987 -41 918 12 c 0,12,13
 836 78 836 78 776 211 c 1,14,15
 737 121 737 121 672 61 c 0,16,17
 578 -27 578 -27 459 -27 c 0,18,19
 283 -27 283 -27 181.5 164.5 c 128,-1,20
 80 356 80 356 80 612 c 0,21,22
 80 852 80 852 170 1026 c 128,-1,23
 260 1200 260 1200 426 1200 c 0,24,25
 535 1200 535 1200 597 1110 c 128,-1,26
 659 1020 659 1020 659 897 c 256,27,28
 659 774 659 774 600 684 c 128,-1,29
 541 594 541 594 432 594 c 0,30,31
 338 594 338 594 285 653 c 0,32,33
 246 696 246 696 229 764 c 1,34,35
 172 676 172 676 172 547 c 0,36,37
 172 406 172 406 244 315 c 0,38,39
 326 211 326 211 485 211 c 0,40,41
 624 211 624 211 711 344 c 0,42,43
 740 387 740 387 770 477 c 1,44,-1
 809 477 l 1,45,46
 823 424 823 424 838 393 c 0,47,48
 926 209 926 209 1102 209 c 0,49,50
 1241 209 1241 209 1317 307 c 0,51,52
 1385 395 1385 395 1384 539 c 0,53,54
 1384 658 1384 658 1332 776.5 c 128,-1,55
 1280 895 1280 895 1190 963 c 1,0,-1
926 -276 m 1,56,57
 926 -344 926 -344 885 -382 c 128,-1,58
 844 -420 844 -420 784 -420 c 256,59,60
 725 -420 725 -420 684 -383 c 128,-1,61
 643 -346 643 -346 643 -274 c 0,62,63
 643 -233 643 -233 700 -90 c 1,64,65
 716 -43 716 -43 760 47 c 1,66,-1
 778 39 l 1,67,-1
 797 47 l 1,68,69
 840 -41 840 -41 858 -88 c 0,70,71
 924 -239 924 -239 926 -276 c 1,56,57
449 989 m 0,72,73
 375 989 375 989 332 952 c 0,74,75
 318 942 318 942 303 918 c 1,76,77
 295 871 295 871 320.5 838 c 128,-1,78
 346 805 346 805 420 805 c 0,79,80
 479 805 479 805 514 834.5 c 128,-1,81
 549 864 549 864 549 903 c 0,82,83
 549 936 549 936 521.5 962.5 c 128,-1,84
 494 989 494 989 449 989 c 0,72,73
EndSplineSet
EndChar

StartChar: cha.imathra
Encoding: 150 -1 144
Width: 1527
Flags: W
LayerCount: 2
Fore
SplineSet
1178 1104 m 1,0,1
 1178 1010 1178 1010 1139 938 c 0,2,3
 1082 836 1082 836 958 836 c 0,4,5
 849 836 849 836 785 927 c 128,-1,6
 721 1018 721 1018 721 1141 c 0,7,8
 721 1260 721 1260 785.5 1342.5 c 128,-1,9
 850 1425 850 1425 975 1425 c 0,10,11
 1192 1425 1192 1425 1339 1137 c 0,12,13
 1472 875 1472 875 1473 541 c 0,14,15
 1473 289 1473 289 1386 135 c 0,16,17
 1290 -41 1290 -41 1108 -41 c 0,18,19
 991 -41 991 -41 891 55 c 0,20,21
 825 121 825 121 778 217 c 1,22,23
 721 98 721 98 627 33 c 0,24,25
 545 -24 545 -24 457 -25 c 0,26,27
 281 -25 281 -25 179.5 168.5 c 128,-1,28
 78 362 78 362 78 621 c 0,29,30
 78 865 78 865 168 1038.5 c 128,-1,31
 258 1212 258 1212 424 1212 c 0,32,33
 533 1212 533 1212 595 1122 c 128,-1,34
 657 1032 657 1032 657 909 c 256,35,36
 657 786 657 786 598 695 c 128,-1,37
 539 604 539 604 430 604 c 0,38,39
 336 604 336 604 283 664 c 0,40,41
 244 707 244 707 227 774 c 1,42,43
 170 686 170 686 170 557 c 0,44,45
 170 414 170 414 242 324 c 0,46,47
 326 215 326 215 483 215 c 0,48,49
 622 215 622 215 709 348 c 0,50,51
 738 391 738 391 768 485 c 1,52,-1
 807 485 l 1,53,54
 836 391 836 391 864 346 c 0,55,56
 948 207 948 207 1094 207 c 0,57,58
 1237 207 1237 207 1314 316.5 c 128,-1,59
 1391 426 1391 426 1391 588 c 0,60,61
 1391 731 1391 731 1335.5 872.5 c 128,-1,62
 1280 1014 1280 1014 1178 1104 c 1,0,1
926 -272 m 1,63,64
 926 -340 926 -340 885 -378 c 128,-1,65
 844 -416 844 -416 784 -416 c 256,66,67
 725 -416 725 -416 684 -379 c 128,-1,68
 643 -342 643 -342 643 -270 c 0,69,70
 643 -229 643 -229 700 -86 c 1,71,72
 716 -39 716 -39 760 51 c 1,73,-1
 778 43 l 1,74,-1
 797 51 l 1,75,76
 840 -37 840 -37 858 -84 c 0,77,78
 924 -235 924 -235 926 -272 c 1,63,64
969 1214 m 0,79,80
 897 1214 897 1214 857 1180.5 c 128,-1,81
 817 1147 817 1147 817 1100 c 0,82,83
 817 1024 817 1024 911 1024 c 0,84,85
 972 1024 972 1024 1017.5 1064 c 128,-1,86
 1063 1104 1063 1104 1063 1151 c 0,87,88
 1063 1169 1063 1169 1053 1184 c 0,89,90
 1028 1214 1028 1214 969 1214 c 0,79,80
446 997 m 1,91,92
 372 997 372 997 330 965 c 0,93,94
 316 955 316 955 301 930 c 1,95,96
 293 883 293 883 318.5 850 c 128,-1,97
 344 817 344 817 418 817 c 0,98,99
 477 817 477 817 512 847 c 128,-1,100
 547 877 547 877 547 913 c 0,101,102
 547 946 547 946 519 972.5 c 128,-1,103
 491 999 491 999 446 997 c 1,91,92
EndSplineSet
LCarets2: 1 0
EndChar

StartChar: cha.sub
Encoding: 151 -1 145
Width: 409
Flags: W
AnchorPoint: "Sub" -524 285 mark 0
AnchorPoint: "Sub" 336 -768 basemark 0
LayerCount: 2
Fore
SplineSet
403 -158 m 1,0,1
 403 -369 403 -369 373 -455 c 0,2,3
 326 -592 326 -592 172 -592 c 0,4,5
 82 -592 82 -592 10 -516 c 0,6,7
 -41 -463 -41 -463 -72 -381 c 1,8,9
 -109 -457 -109 -457 -162 -508 c 0,10,11
 -238 -582 -238 -582 -326 -582 c 0,12,13
 -420 -582 -420 -582 -471 -512 c 128,-1,14
 -522 -442 -522 -442 -522 -342 c 0,15,16
 -522 -240 -522 -240 -470 -166 c 128,-1,17
 -418 -92 -418 -92 -328 -92 c 0,18,19
 -252 -92 -252 -92 -211 -133 c 128,-1,20
 -170 -174 -170 -174 -170 -233 c 0,21,22
 -170 -294 -170 -294 -217 -338.5 c 128,-1,23
 -264 -383 -264 -383 -352 -383 c 0,24,25
 -395 -383 -395 -383 -426 -367 c 1,26,27
 -401 -428 -401 -428 -307 -428 c 0,28,29
 -211 -428 -211 -428 -143 -311 c 1,30,31
 -125 -274 -125 -274 -96 -195 c 1,32,-1
 -57 -195 l 1,33,34
 -32 -269 -32 -269 -14 -301 c 0,35,36
 52 -410 52 -410 147 -410 c 0,37,38
 227 -410 227 -410 262 -340 c 128,-1,39
 297 -270 297 -270 297 -156 c 0,40,41
 297 -23 297 -23 256 129 c 128,-1,42
 215 281 215 281 172 328 c 1,43,44
 190 342 190 342 199 344 c 0,45,46
 232 360 232 360 250 350 c 0,47,48
 334 311 334 311 367 143 c 0,49,50
 389 28 389 28 403 -158 c 1,0,1
4 -707 m 0,51,52
 4 -754 4 -754 -23.5 -779.5 c 128,-1,53
 -51 -805 -51 -805 -90 -805 c 0,54,55
 -127 -805 -127 -805 -153.5 -778.5 c 128,-1,56
 -180 -752 -180 -752 -180 -700 c 0,57,58
 -180 -690 -180 -690 -135 -590 c 0,59,60
 -121 -559 -121 -559 -88 -492 c 1,61,62
 -57 -560 -57 -560 -43 -592 c 0,63,64
 4 -703 4 -703 4 -707 c 0,51,52
-348 -205 m 0,65,66
 -391 -205 -391 -205 -412.5 -223.5 c 128,-1,67
 -434 -242 -434 -242 -442 -264 c 1,68,69
 -440 -272 -440 -272 -424 -279.5 c 128,-1,70
 -408 -287 -408 -287 -375 -287 c 0,71,72
 -301 -287 -301 -287 -301 -236 c 0,73,74
 -301 -205 -301 -205 -348 -205 c 0,65,66
EndSplineSet
LCarets2: 1 0
EndChar

StartChar: ja
Encoding: 152 3228 146
Width: 1638
Flags: W
LayerCount: 2
Fore
SplineSet
1466 1055 m 1,0,1
 1466 918 1466 918 1357.5 820.5 c 128,-1,2
 1249 723 1249 723 1098 723 c 0,3,4
 973 723 973 723 834 799 c 0,5,6
 744 846 744 846 655 926 c 1,7,8
 655 793 655 793 467 641 c 128,-1,9
 279 489 279 489 279 387 c 0,10,11
 279 299 279 299 358 252 c 0,12,13
 424 213 424 213 514 213 c 0,14,15
 651 213 651 213 756 389 c 0,16,17
 789 446 789 446 834 565 c 1,18,19
 879 448 879 448 911 391 c 1,20,21
 1022 217 1022 217 1169 217 c 0,22,23
 1284 217 1284 217 1348.5 264 c 128,-1,24
 1413 311 1413 311 1413 379 c 0,25,26
 1413 432 1413 432 1362 484.5 c 128,-1,27
 1311 537 1311 537 1221 561 c 1,28,29
 1231 584 1231 584 1239 592 c 0,30,31
 1270 623 1270 623 1317 618 c 1,32,33
 1440 618 1440 618 1505.5 541.5 c 128,-1,34
 1571 465 1571 465 1571 348 c 0,35,36
 1571 203 1571 203 1481 94 c 1,37,38
 1379 -25 1379 -25 1217 -25 c 0,39,40
 1084 -25 1084 -25 969 76 c 0,41,42
 889 144 889 144 836 240 c 1,43,44
 779 138 779 138 707 70 c 0,45,46
 592 -39 592 -39 465 -39 c 0,47,48
 305 -39 305 -39 208 60.5 c 128,-1,49
 111 160 111 160 111 305 c 0,50,51
 111 473 111 473 304.5 625.5 c 128,-1,52
 498 778 498 778 498 864 c 0,53,54
 498 921 498 921 457 954 c 128,-1,55
 416 987 416 987 365 987 c 0,56,57
 318 987 318 987 282 960.5 c 128,-1,58
 246 934 246 934 246 887 c 0,59,60
 246 834 246 834 313 803 c 0,61,62
 336 795 336 795 381 784 c 1,63,64
 338 741 338 741 272 741 c 0,65,66
 190 741 190 741 133 799 c 0,67,68
 67 865 67 865 68 967 c 0,69,70
 68 1090 68 1090 148.5 1155.5 c 128,-1,71
 229 1221 229 1221 344 1221 c 0,72,73
 420 1221 420 1221 488.5 1188 c 128,-1,74
 557 1155 557 1155 594 1096 c 1,75,76
 637 1059 637 1059 674 1034 c 0,77,78
 840 921 840 921 991 922 c 0,79,80
 1138 922 1138 922 1228.5 990.5 c 128,-1,81
 1319 1059 1319 1059 1319 1149 c 0,82,83
 1319 1188 1319 1188 1296 1227 c 1,84,85
 1353 1217 1353 1217 1378 1202 c 0,86,87
 1464 1157 1464 1157 1466 1055 c 1,0,1
EndSplineSet
LCarets2: 1 0
EndChar

StartChar: ja.base
Encoding: 153 -1 147
Width: 1615
Flags: W
LayerCount: 2
Fore
SplineSet
1333 993 m 1,0,1
 1427 903 1427 903 1427 815 c 0,2,3
 1427 729 1427 729 1350.5 675 c 128,-1,4
 1274 621 1274 621 1143 621 c 0,5,6
 1002 621 1002 621 842 711 c 0,7,8
 748 764 748 764 647 852 c 1,9,10
 629 776 629 776 449 645 c 0,11,12
 281 522 281 522 281 391 c 0,13,14
 281 301 281 301 360 254 c 0,15,16
 426 215 426 215 516 215 c 0,17,18
 655 215 655 215 750 358 c 0,19,20
 781 403 781 403 817 500 c 1,21,-1
 856 500 l 1,22,23
 885 406 885 406 913 360 c 0,24,25
 1001 221 1001 221 1153 221 c 0,26,27
 1276 221 1276 221 1341.5 268 c 128,-1,28
 1407 315 1407 315 1407 383 c 0,29,30
 1407 440 1407 440 1362 488.5 c 128,-1,31
 1317 537 1317 537 1231 559 c 1,32,33
 1223 573 1223 573 1242.5 603 c 128,-1,34
 1262 633 1262 633 1307 629 c 1,35,36
 1426 629 1426 629 1490 550 c 128,-1,37
 1554 471 1554 471 1554 356 c 0,38,39
 1554 211 1554 211 1464 100 c 0,40,41
 1362 -23 1362 -23 1200 -23 c 0,42,43
 1061 -23 1061 -23 952 72 c 0,44,45
 880 133 880 133 836 221 c 1,46,47
 777 127 777 127 702 66 c 0,48,49
 585 -34 585 -34 467 -35 c 0,50,51
 324 -35 324 -35 223.5 67.5 c 128,-1,52
 123 170 123 170 123 313 c 0,53,54
 123 481 123 481 307.5 633.5 c 128,-1,55
 492 786 492 786 492 872 c 0,56,57
 492 929 492 929 455 960 c 128,-1,58
 418 991 418 991 367 991 c 0,59,60
 322 991 322 991 288 964.5 c 128,-1,61
 254 938 254 938 254 891 c 0,62,63
 254 840 254 840 319 809 c 0,64,65
 337 801 337 801 385 791 c 1,66,67
 340 746 340 746 272 745 c 0,68,69
 192 745 192 745 133 804.5 c 128,-1,70
 74 864 74 864 74 969 c 0,71,72
 74 1092 74 1092 160 1158.5 c 128,-1,73
 246 1225 246 1225 362 1225 c 0,74,75
 481 1225 481 1225 565 1159.5 c 128,-1,76
 649 1094 649 1094 649 965 c 1,77,78
 723 908 723 908 770 879 c 1,79,80
 928 791 928 791 1079 791 c 0,81,82
 1175 791 1175 791 1230.5 819.5 c 128,-1,83
 1286 848 1286 848 1286 893 c 0,84,85
 1286 930 1286 930 1249 963 c 1,86,-1
 834 963 l 1,87,-1
 834 1186 l 1,88,-1
 1188 1186 l 1,89,-1
 1333 993 l 1,0,1
EndSplineSet
EndChar

StartChar: ja.imathra
Encoding: 154 -1 148
Width: 1615
Flags: W
LayerCount: 2
Fore
SplineSet
1341 627 m 1,0,1
 1460 627 1460 627 1524.5 549 c 128,-1,2
 1589 471 1589 471 1589 356 c 0,3,4
 1589 209 1589 209 1499 98 c 0,5,6
 1399 -25 1399 -25 1233 -25 c 0,7,8
 1094 -25 1094 -25 975 70 c 0,9,10
 901 129 901 129 840 223 c 1,11,12
 787 133 787 133 713 68 c 0,13,14
 596 -34 596 -34 473 -35 c 0,15,16
 330 -35 330 -35 227.5 67.5 c 128,-1,17
 125 170 125 170 125 315 c 0,18,19
 125 477 125 477 312.5 629.5 c 128,-1,20
 500 782 500 782 500 877 c 0,21,22
 500 930 500 930 459 962.5 c 128,-1,23
 418 995 418 995 365 995 c 0,24,25
 256 995 256 995 256 895 c 0,26,27
 256 842 256 842 322 811 c 0,28,29
 340 803 340 803 387 793 c 1,30,31
 344 750 344 750 279 750 c 0,32,33
 197 750 197 750 139 807 c 0,34,35
 73 873 73 873 74 975 c 0,36,37
 74 1106 74 1106 153.5 1175.5 c 128,-1,38
 233 1245 233 1245 344 1245 c 0,39,40
 438 1245 438 1245 518 1195 c 128,-1,41
 598 1145 598 1145 616 1057 c 1,42,43
 688 991 688 991 807 944 c 128,-1,44
 926 897 926 897 1022 897 c 0,45,46
 1174 897 1174 897 1262 963.5 c 128,-1,47
 1350 1030 1350 1030 1350 1118 c 0,48,49
 1350 1212 1350 1212 1247 1270 c 1,50,51
 1265 1225 1265 1225 1266 1192 c 0,52,53
 1266 1020 1266 1020 1083 1020 c 0,54,55
 983 1020 983 1020 931 1081.5 c 128,-1,56
 879 1143 879 1143 879 1231 c 0,57,58
 879 1325 879 1325 942.5 1394.5 c 128,-1,59
 1006 1464 1006 1464 1122 1464 c 0,60,61
 1274 1464 1274 1464 1362 1356.5 c 128,-1,62
 1450 1249 1450 1249 1450 1104 c 0,63,64
 1450 944 1450 944 1348 836 c 0,65,66
 1229 711 1229 711 1018 711 c 0,67,68
 916 711 916 711 797 784 c 0,69,70
 723 829 723 829 635 915 c 1,71,72
 635 821 635 821 397 606 c 0,73,74
 286 508 286 508 287 399 c 0,75,76
 287 303 287 303 362 256 c 0,77,78
 428 217 428 217 516 217 c 0,79,80
 655 217 655 217 750 360 c 0,81,82
 781 405 781 405 817 504 c 1,83,-1
 856 504 l 1,84,85
 893 408 893 408 924 362 c 0,86,87
 1026 219 1026 219 1186 219 c 0,88,89
 1309 219 1309 219 1380.5 269 c 128,-1,90
 1452 319 1452 319 1452 391 c 0,91,92
 1452 448 1452 448 1407 493.5 c 128,-1,93
 1362 539 1362 539 1268 563 c 1,94,95
 1260 579 1260 579 1275 606 c 128,-1,96
 1290 633 1290 633 1341 627 c 1,0,1
1151 1239 m 2,97,-1
 1149 1298 l 1,98,99
 1061 1298 1061 1298 1021 1274.5 c 128,-1,100
 981 1251 981 1251 981 1186 c 0,101,102
 981 1139 981 1139 1047 1139 c 0,103,104
 1086 1139 1086 1139 1118.5 1165.5 c 128,-1,105
 1151 1192 1151 1192 1151 1239 c 2,97,-1
EndSplineSet
LCarets2: 1 0
EndChar

StartChar: ja.sub
Encoding: 155 -1 149
Width: 514
Flags: W
AnchorPoint: "Sub" -543 -98 mark 0
AnchorPoint: "Sub" 446 -831 basemark 0
LayerCount: 2
Fore
SplineSet
496 -633 m 0,0,1
 496 -793 496 -793 301 -793 c 1,2,3
 192 -801 192 -801 98 -729 c 0,4,5
 47 -690 47 -690 -12 -608 c 1,6,7
 -84 -702 -84 -702 -168 -747.5 c 128,-1,8
 -252 -793 -252 -793 -334 -793 c 0,9,10
 -420 -793 -420 -793 -478.5 -744.5 c 128,-1,11
 -537 -696 -537 -696 -537 -623 c 0,12,13
 -537 -541 -537 -541 -417 -446.5 c 128,-1,14
 -297 -352 -297 -352 -297 -293 c 0,15,16
 -297 -232 -297 -232 -362 -231 c 0,17,18
 -415 -231 -415 -231 -416 -283 c 0,19,20
 -416 -314 -416 -314 -362 -332 c 0,21,22
 -354 -334 -354 -334 -336 -336 c 1,23,24
 -379 -375 -379 -375 -432 -375 c 0,25,26
 -475 -375 -475 -375 -506 -344 c 128,-1,27
 -537 -313 -537 -313 -537 -266 c 0,28,29
 -537 -205 -537 -205 -489.5 -164 c 128,-1,30
 -442 -123 -442 -123 -375 -123 c 0,31,32
 -289 -123 -289 -123 -215 -197 c 1,33,34
 -164 -222 -164 -222 -113 -250 c 1,35,36
 2 -303 2 -303 74 -303 c 0,37,38
 160 -303 160 -303 218 -266 c 128,-1,39
 276 -229 276 -229 276 -162 c 0,40,41
 276 -137 276 -137 264 -100 c 1,42,43
 323 -108 323 -108 352 -119 c 0,44,45
 440 -156 440 -156 440 -238 c 0,46,47
 440 -318 440 -318 357 -369 c 128,-1,48
 274 -420 274 -420 172 -420 c 0,49,50
 68 -420 68 -420 -47 -375 c 0,51,52
 -106 -352 -106 -352 -201 -299 c 1,53,54
 -201 -371 -201 -371 -277.5 -439.5 c 128,-1,55
 -354 -508 -354 -508 -354 -555 c 0,56,57
 -354 -621 -354 -621 -279 -621 c 0,58,59
 -220 -621 -220 -621 -148 -583 c 128,-1,60
 -76 -545 -76 -545 -4 -463 c 1,61,62
 33 -518 33 -518 57 -543 c 0,63,64
 143 -629 143 -629 248 -629 c 0,65,66
 338 -629 338 -629 338 -561 c 0,67,68
 338 -495 338 -495 242 -428 c 1,69,70
 328 -442 328 -442 367 -459 c 0,71,72
 496 -516 496 -516 496 -633 c 0,0,1
EndSplineSet
LCarets2: 1 0
EndChar

StartChar: jha.sub
Encoding: 160 -1 154
Width: 927
Flags: W
AnchorPoint: "Sub" -539 -141 mark 0
AnchorPoint: "Sub" 797 -852 basemark 0
LayerCount: 2
Fore
SplineSet
682 -145 m 0,0,1
 784 -145 784 -145 843.5 -225 c 128,-1,2
 903 -305 903 -305 903 -416 c 0,3,4
 903 -535 903 -535 842 -610 c 0,5,6
 768 -700 768 -700 639 -700 c 0,7,8
 551 -700 551 -700 485 -649 c 0,9,10
 442 -616 442 -616 406 -555 c 1,11,12
 381 -612 381 -612 330 -651 c 0,13,14
 262 -702 262 -702 168 -702 c 0,15,16
 94 -702 94 -702 35 -657 c 0,17,18
 -8 -624 -8 -624 -41 -573 c 1,19,20
 -66 -630 -66 -630 -111 -664 c 0,21,22
 -172 -711 -172 -711 -268 -711 c 0,23,24
 -393 -711 -393 -711 -461.5 -630 c 128,-1,25
 -530 -549 -530 -549 -530 -432 c 0,26,27
 -530 -313 -530 -313 -457.5 -226 c 128,-1,28
 -385 -139 -385 -139 -256 -139 c 0,29,30
 -139 -139 -139 -139 -69.5 -215 c 128,-1,31
 0 -291 0 -291 0 -401 c 1,32,33
 8 -458 8 -458 23 -483 c 0,34,35
 66 -565 66 -565 174 -565 c 0,36,37
 256 -565 256 -565 300 -521 c 128,-1,38
 344 -477 344 -477 344 -416 c 0,39,40
 344 -357 344 -357 304 -313.5 c 128,-1,41
 264 -270 264 -270 199 -270 c 0,42,43
 105 -270 105 -270 104 -211 c 0,44,45
 104 -145 104 -145 209 -145 c 0,46,47
 320 -145 320 -145 385 -248 c 0,48,49
 436 -328 436 -328 436 -410 c 1,50,51
 459 -461 459 -461 477 -483 c 0,52,53
 543 -559 543 -559 643 -559 c 0,54,55
 725 -559 725 -559 770 -515 c 128,-1,56
 815 -471 815 -471 815 -412 c 0,57,58
 815 -355 815 -355 778 -318 c 128,-1,59
 741 -281 741 -281 674 -281 c 0,60,61
 565 -281 565 -281 565 -215 c 0,62,63
 565 -143 565 -143 682 -145 c 0,0,1
508 -836 m 0,64,65
 508 -879 508 -879 479.5 -904.5 c 128,-1,66
 451 -930 451 -930 412 -930 c 0,67,68
 375 -930 375 -930 348.5 -903.5 c 128,-1,69
 322 -877 322 -877 322 -825 c 0,70,71
 322 -815 322 -815 365 -721 c 0,72,73
 379 -690 379 -690 410 -625 c 1,74,75
 443 -691 443 -691 457 -723 c 0,76,77
 508 -828 508 -828 508 -836 c 0,64,65
-94 -418 m 0,78,79
 -94 -350 -94 -350 -146.5 -312 c 128,-1,80
 -199 -274 -199 -274 -268 -274 c 0,81,82
 -340 -274 -340 -274 -390 -311 c 128,-1,83
 -440 -348 -440 -348 -440 -420 c 0,84,85
 -440 -488 -440 -488 -389 -525.5 c 128,-1,86
 -338 -563 -338 -563 -266 -563 c 0,87,88
 -192 -563 -192 -563 -142 -526.5 c 128,-1,89
 -92 -490 -92 -490 -94 -418 c 0,78,79
EndSplineSet
LCarets2: 1 0
EndChar

StartChar: jha.part
Encoding: 161 -1 155
Width: 739
Flags: W
LayerCount: 2
Fore
SplineSet
688 532 m 1,0,1
 688 292 688 292 588 141 c 0,2,3
 473 -33 473 -33 260 -33 c 0,4,5
 35 -33 35 -33 -74 195 c 1,6,7
 -107 269 -107 269 -137 426 c 1,8,-1
 -98 428 l 1,9,10
 -55 332 -55 332 4 293 c 0,11,12
 108 225 108 225 276 225 c 0,13,14
 395 225 395 225 489 293 c 0,15,16
 600 375 600 375 600 506 c 0,17,18
 600 723 600 723 389 852 c 0,19,20
 299 905 299 905 113 963 c 1,21,22
 0 992 0 992 0 1079 c 0,23,24
 0 1124 0 1124 35 1160 c 128,-1,25
 70 1196 70 1196 123 1196 c 0,26,27
 305 1196 305 1196 487 999 c 0,28,29
 684 788 684 788 688 532 c 1,0,1
772 -295 m 1,30,31
 772 -369 772 -369 729 -409 c 128,-1,32
 686 -449 686 -449 629 -449 c 256,33,34
 572 -449 572 -449 528.5 -409 c 128,-1,35
 485 -369 485 -369 485 -301 c 0,36,37
 485 -258 485 -258 543 -104 c 1,38,39
 559 -53 559 -53 602 47 c 1,40,-1
 621 39 l 1,41,-1
 639 47 l 1,42,43
 682 -49 682 -49 700 -100 c 1,44,45
 766 -260 766 -260 772 -295 c 1,30,31
EndSplineSet
EndChar

